<svg xmlns="http://www.w3.org/2000/svg" width="167" height="160"><path fill="#D4D4D4" d="M155.3 56.7c-2.6-8 .6-19.1-4.3-25.7-4.9-6.7-16.4-7.1-23.2-12-6.7-4.9-10.6-15.7-18.6-18.3-7.7-2.5-17.2 3.9-25.8 3.9-8.6 0-18.1-6.4-25.8-3.9C49.6 3.3 45.7 14.2 39 19c-6.7 4.9-18.3 5.3-23.2 12-4.9 6.7-1.7 17.7-4.3 25.7C9.2 64.4 0 71.4 0 80s9.2 15.6 11.7 23.3c2.6 8-.6 19.1 4.3 25.7 4.9 6.7 16.4 7.1 23.2 12 6.7 4.9 10.5 15.7 18.6 18.3 7.7 2.5 17.2-3.9 25.8-3.9 8.6 0 18.1 6.4 25.8 3.9 8-2.6 11.9-13.5 18.6-18.3 6.7-4.9 18.3-5.3 23.2-12 4.9-6.7 1.7-17.7 4.3-25.7C157.8 95.6 167 88.6 167 80s-9.2-15.6-11.7-23.3z"/><linearGradient id="a" gradientUnits="userSpaceOnUse" x1="181.395" y1="9.07" x2="77.895" y2="150.57" gradientTransform="translate(-46)"><stop offset=".029" stop-color="#a7a7a7"/><stop offset=".152" stop-color="#d0d0d0"/><stop offset=".479" stop-color="#919191"/><stop offset=".749" stop-color="#d1d1d1"/><stop offset="1" stop-color="#c5c5c5"/></linearGradient><path fill="url(#a)" d="M167 80c0 8.6-9.2 15.6-11.7 23.3-2.6 8 .6 19.1-4.3 25.7-4.9 6.7-16.4 7.1-23.2 12-6.7 4.9-10.5 15.7-18.6 18.3-7.7 2.5-17.2-3.9-25.8-3.9-8.6 0-18.1 6.4-25.8 3.9-8-2.6-11.9-13.5-18.6-18.3-6.7-4.9-18.3-5.3-23.2-12-4.9-6.7-1.7-17.7-4.3-25.7C9.2 95.6 0 88.6 0 80s9.2-15.6 11.7-23.3c2.6-8-.6-19.1 4.3-25.7 4.9-6.7 16.4-7.1 23.2-12C45.9 14.1 49.7 3.3 57.8.7 65.5-1.8 75 4.6 83.6 4.6c8.6 0 18.1-6.4 25.8-3.9 8 2.6 11.9 13.5 18.6 18.3 6.7 4.9 18.3 5.3 23.2 12 4.9 6.7 1.7 17.7 4.3 25.7C157.8 64.4 167 71.4 167 80z"/><linearGradient id="b" gradientUnits="userSpaceOnUse" x1="53.001" y1="80.015" x2="206" y2="80.015" gradientTransform="translate(-46)"><stop offset=".029" stop-color="#a7a7a7"/><stop offset=".152" stop-color="#d0d0d0"/><stop offset=".479" stop-color="#919191"/><stop offset=".749" stop-color="#d1d1d1"/><stop offset="1" stop-color="#c5c5c5"/></linearGradient><path fill="url(#b)" d="M155 70c-2.3-3.3-4.9-7-6.3-11.2-1.4-4.3-1.5-9-1.6-13.1-.1-4.4-.2-8.5-1.7-10.6-1.6-2.1-5.5-3.5-9.7-4.9-3.9-1.3-8.3-2.9-11.9-5.5-3.6-2.6-6.4-6.3-8.8-9.6-2.7-3.6-5.2-6.9-7.8-7.8-.5-.2-1.1-.2-1.8-.2-2.4 0-5.4.9-8.7 1.9-4 1.2-8.5 2.6-13.2 2.6S74.3 10.2 70.3 9c-3.2-1.1-6.3-2-8.7-2-.7 0-1.3.1-1.8.2-2.6.8-5.1 4.2-7.8 7.8-2.4 3.3-5.2 6.9-8.8 9.6-3.7 2.7-8.1 4.2-11.9 5.5-4.2 1.4-8.1 2.8-9.7 4.9-1.5 2.1-1.6 6.3-1.7 10.7-.1 4.1-.2 8.8-1.6 13.1-1.3 4.2-4 8-6.3 11.2-2.5 3.5-5 7.1-5 10 0 2.8 2.6 6.5 5 10 2.3 3.3 4.9 7 6.3 11.2 1.4 4.3 1.5 9 1.6 13.2.1 4.4.2 8.5 1.7 10.6 1.6 2.1 5.5 3.5 9.7 4.9 3.9 1.3 8.3 2.9 11.9 5.5 3.6 2.6 6.4 6.3 8.8 9.6 2.7 3.6 5.2 6.9 7.8 7.8.5.2 1.1.2 1.8.2 2.4 0 5.4-.9 8.7-1.9 4-1.2 8.5-2.6 13.2-2.6s9.2 1.4 13.2 2.6c3.2 1 6.3 1.9 8.7 1.9.7 0 1.3-.1 1.8-.2 2.6-.8 5.1-4.2 7.8-7.8 2.4-3.3 5.2-6.9 8.8-9.6 3.7-2.7 8.1-4.2 11.9-5.5 4.2-1.4 8.1-2.8 9.7-4.9 1.5-2.1 1.6-6.2 1.7-10.6.1-4.1.2-8.8 1.6-13.1 1.4-4.2 4-7.9 6.3-11.2 2.5-3.5 5-7.1 5-10 0-2.9-2.6-6.5-5-10.1zm-1.7 19.7c-2.3 3.2-4.8 6.9-6.2 10.9-1.4 4.2-1.5 8.8-1.5 12.8-.1 4.3-.2 8.3-1.7 10.4-1.5 2.1-5.4 3.4-9.5 4.8-3.8 1.3-8.1 2.8-11.7 5.4-3.5 2.6-6.2 6.2-8.6 9.3-2.6 3.5-5.1 6.8-7.6 7.6-.5.2-1 .2-1.7.2-2.3 0-5.3-.9-8.5-1.9-3.9-1.2-8.3-2.5-12.9-2.5s-9 1.3-12.9 2.5c-3.2 1-6.2 1.9-8.5 1.9-.7 0-1.2-.1-1.7-.2-2.5-.8-5-4.1-7.6-7.6-2.4-3.2-5.1-6.8-8.6-9.4-3.6-2.6-7.9-4.1-11.7-5.4-4.1-1.4-7.9-2.7-9.5-4.8-1.5-2.1-1.6-6.1-1.6-10.4-.1-4-.2-8.6-1.5-12.8-1.3-4.1-3.9-7.7-6.1-10.9-2.4-3.4-4.9-7-4.9-9.7 0-2.8 2.5-6.3 4.9-9.7 2.3-3.2 4.8-6.9 6.2-10.9 1.4-4.2 1.5-8.8 1.5-12.8.1-4.3.2-8.3 1.6-10.4 1.5-2.1 5.4-3.4 9.5-4.8 3.8-1.3 8.1-2.8 11.7-5.4 3.5-2.6 6.2-6.2 8.6-9.4 2.6-3.5 5.1-6.8 7.6-7.6.5-.2 1-.2 1.7-.2 2.3 0 5.3.9 8.5 1.9 3.9 1.2 8.3 2.5 12.9 2.5s9-1.3 12.9-2.5c3.2-1 6.2-1.9 8.5-1.9.7 0 1.2.1 1.7.2 2.5.8 5 4.1 7.6 7.6 2.4 3.2 5.1 6.8 8.6 9.4 3.6 2.6 7.9 4.1 11.7 5.4 4.1 1.4 7.9 2.7 9.5 4.8 1.5 2.1 1.6 6.1 1.7 10.4.1 4 .2 8.6 1.5 12.8 1.3 4.1 3.9 7.7 6.2 10.9 2.4 3.4 4.9 7 4.9 9.7s-2.6 6.4-5 9.8z"/><path fill="#CCC" d="M155 70c-2.3-3.3-4.9-7-6.3-11.2-1.4-4.3-1.5-9-1.6-13.1-.1-4.4-.2-8.5-1.7-10.6-1.6-2.1-5.5-3.5-9.7-4.9-3.9-1.3-8.3-2.9-11.9-5.5-3.6-2.6-6.4-6.3-8.8-9.6-2.7-3.6-5.2-6.9-7.8-7.8-.5-.2-1.1-.2-1.8-.2-2.4 0-5.4.9-8.7 1.9-4 1.2-8.5 2.6-13.2 2.6S74.3 10.2 70.3 9c-3.2-1.1-6.3-2-8.7-2-.7 0-1.3.1-1.8.2-2.6.8-5.1 4.2-7.8 7.8-2.4 3.3-5.2 6.9-8.8 9.6-3.7 2.7-8.1 4.2-11.9 5.5-4.2 1.4-8.1 2.8-9.7 4.9-1.5 2.1-1.6 6.3-1.7 10.7-.1 4.1-.2 8.8-1.6 13.1-1.3 4.2-4 8-6.3 11.2-2.5 3.5-5 7.1-5 10 0 2.8 2.6 6.5 5 10 2.3 3.3 4.9 7 6.3 11.2 1.4 4.3 1.5 9 1.6 13.2.1 4.4.2 8.5 1.7 10.6 1.6 2.1 5.5 3.5 9.7 4.9 3.9 1.3 8.3 2.9 11.9 5.5 3.6 2.6 6.4 6.3 8.8 9.6 2.7 3.6 5.2 6.9 7.8 7.8.5.2 1.1.2 1.8.2 2.4 0 5.4-.9 8.7-1.9 4-1.2 8.5-2.6 13.2-2.6s9.2 1.4 13.2 2.6c3.2 1 6.3 1.9 8.7 1.9.7 0 1.3-.1 1.8-.2 2.6-.8 5.1-4.2 7.8-7.8 2.4-3.3 5.2-6.9 8.8-9.6 3.7-2.7 8.1-4.2 11.9-5.5 4.2-1.4 8.1-2.8 9.7-4.9 1.5-2.1 1.6-6.2 1.7-10.6.1-4.1.2-8.8 1.6-13.1 1.4-4.2 4-7.9 6.3-11.2 2.5-3.5 5-7.1 5-10 0-2.9-2.6-6.5-5-10.1zm-1.7 19.7c-2.3 3.2-4.8 6.9-6.2 10.9-1.4 4.2-1.5 8.8-1.5 12.8-.1 4.3-.2 8.3-1.7 10.4-1.5 2.1-5.4 3.4-9.5 4.8-3.8 1.3-8.1 2.8-11.7 5.4-3.5 2.6-6.2 6.2-8.6 9.3-2.6 3.5-5.1 6.8-7.6 7.6-.5.2-1 .2-1.7.2-2.3 0-5.3-.9-8.5-1.9-3.9-1.2-8.3-2.5-12.9-2.5s-9 1.3-12.9 2.5c-3.2 1-6.2 1.9-8.5 1.9-.7 0-1.2-.1-1.7-.2-2.5-.8-5-4.1-7.6-7.6-2.4-3.2-5.1-6.8-8.6-9.4-3.6-2.6-7.9-4.1-11.7-5.4-4.1-1.4-7.9-2.7-9.5-4.8-1.5-2.1-1.6-6.1-1.6-10.4-.1-4-.2-8.6-1.5-12.8-1.3-4.1-3.9-7.7-6.1-10.9-2.4-3.4-4.9-7-4.9-9.7 0-2.8 2.5-6.3 4.9-9.7 2.3-3.2 4.8-6.9 6.2-10.9 1.4-4.2 1.5-8.8 1.5-12.8.1-4.3.2-8.3 1.6-10.4 1.5-2.1 5.4-3.4 9.5-4.8 3.8-1.3 8.1-2.8 11.7-5.4 3.5-2.6 6.2-6.2 8.6-9.4 2.6-3.5 5.1-6.8 7.6-7.6.5-.2 1-.2 1.7-.2 2.3 0 5.3.9 8.5 1.9 3.9 1.2 8.3 2.5 12.9 2.5s9-1.3 12.9-2.5c3.2-1 6.2-1.9 8.5-1.9.7 0 1.2.1 1.7.2 2.5.8 5 4.1 7.6 7.6 2.4 3.2 5.1 6.8 8.6 9.4 3.6 2.6 7.9 4.1 11.7 5.4 4.1 1.4 7.9 2.7 9.5 4.8 1.5 2.1 1.6 6.1 1.7 10.4.1 4 .2 8.6 1.5 12.8 1.3 4.1 3.9 7.7 6.2 10.9 2.4 3.4 4.9 7 4.9 9.7s-2.6 6.4-5 9.8z"/><linearGradient id="c" gradientUnits="userSpaceOnUse" x1="89.519" y1="10.766" x2="169.483" y2="149.267" gradientTransform="translate(-46)"><stop offset="0" stop-color="#b1b1b1"/><stop offset=".24" stop-color="#e1e1e1"/><stop offset=".36" stop-color="#bebebe"/><stop offset=".49" stop-color="#9d9d9d"/><stop offset=".561" stop-color="#919191"/><stop offset=".633" stop-color="#999"/><stop offset=".744" stop-color="#afafaf"/><stop offset=".871" stop-color="#d0d0d0"/><stop offset=".971" stop-color="#a7a7a7"/></linearGradient><path fill="url(#c)" d="M153.3 70.3c-2.3-3.2-4.8-6.8-6.2-10.9-1.4-4.2-1.5-8.8-1.5-12.8-.1-4.3-.2-8.3-1.7-10.4-1.5-2.1-5.4-3.4-9.5-4.8-3.8-1.3-8.1-2.8-11.7-5.4-3.5-2.6-6.2-6.2-8.6-9.4-2.6-3.5-5.1-6.8-7.6-7.6-.5-.2-1.1-.2-1.7-.2-2.3 0-5.3.9-8.5 1.9-3.9 1.2-8.3 2.5-12.9 2.5s-9-1.3-12.9-2.5c-3.2-1-6.2-1.9-8.5-1.9-.7 0-1.2.1-1.7.2-2.5.8-5 4.1-7.6 7.6-2.4 3.2-5.1 6.8-8.6 9.4-3.6 2.6-7.9 4.1-11.7 5.4-4.1 1.4-7.9 2.7-9.5 4.8-1.5 2.1-1.6 6.1-1.6 10.4-.1 4-.2 8.6-1.5 12.8-1.3 4.1-3.9 7.7-6.2 10.9-2.4 3.4-4.9 7-4.9 9.7 0 2.8 2.5 6.3 4.9 9.7 2.3 3.2 4.8 6.8 6.1 10.9 1.4 4.2 1.5 8.8 1.5 12.8.1 4.3.2 8.3 1.6 10.4 1.5 2.1 5.4 3.4 9.5 4.8 3.8 1.3 8.1 2.8 11.7 5.4 3.5 2.6 6.2 6.2 8.6 9.4 2.6 3.5 5.1 6.8 7.6 7.6.5.2 1 .2 1.7.2 2.3 0 5.3-.9 8.5-1.9 3.9-1.2 8.3-2.5 12.9-2.5s9 1.3 12.9 2.5c3.2 1 6.2 1.9 8.5 1.9.7 0 1.2-.1 1.7-.2 2.5-.8 5-4.1 7.6-7.6 2.4-3.2 5.1-6.8 8.6-9.3 3.6-2.6 7.9-4.1 11.7-5.4 4.1-1.4 7.9-2.7 9.5-4.8 1.5-2.1 1.6-6.1 1.7-10.4.1-4 .2-8.6 1.5-12.8 1.3-4.1 3.9-7.7 6.2-10.9 2.4-3.4 4.9-7 4.9-9.7s-2.4-6.4-4.8-9.8z"/><linearGradient id="d" gradientUnits="userSpaceOnUse" x1="60.529" y1="123.115" x2="198.474" y2="36.917" gradientTransform="translate(-46)"><stop offset="0" stop-color="#b1b1b1"/><stop offset=".24" stop-color="#fff"/><stop offset=".342" stop-color="#d6d6d6"/><stop offset=".438" stop-color="#b5b5b5"/><stop offset=".491" stop-color="#a9a9a9"/><stop offset=".69" stop-color="#919191"/><stop offset=".755" stop-color="#959595"/><stop offset=".822" stop-color="#a2a2a2"/><stop offset=".891" stop-color="#b7b7b7"/><stop offset=".96" stop-color="#d4d4d4"/><stop offset="1" stop-color="#e8e8e8"/></linearGradient><path fill="url(#d)" d="M159.1 67.2c-2.2-3.1-4.5-6.4-5.6-9.9-1.2-3.6-1.3-7.7-1.3-11.7-.1-5.2-.2-10.1-2.6-13.5-2.5-3.4-7.2-5-12.1-6.7-3.7-1.3-7.6-2.6-10.6-4.8-3-2.2-5.4-5.4-7.8-8.5-3.2-4.2-6.1-8.2-10.2-9.5-1-.3-2.1-.5-3.3-.5-3.1 0-6.5 1-10.2 2.1-3.8 1.2-7.8 2.4-11.7 2.4-3.9 0-7.9-1.2-11.7-2.4C68.1 3 64.7 2 61.6 2c-1.2 0-2.3.2-3.3.5-4.1 1.3-7.1 5.3-10.2 9.5-2.3 3.1-4.8 6.3-7.8 8.5-3.1 2.2-6.9 3.5-10.6 4.8-4.9 1.7-9.6 3.3-12.1 6.7-2.5 3.4-2.6 8.3-2.6 13.5-.1 4-.2 8.1-1.3 11.7-1.1 3.5-3.4 6.7-5.6 9.9C5 71.3 2 75.6 2 80s3 8.7 5.9 12.9c2.2 3.1 4.5 6.4 5.6 9.9 1.2 3.6 1.3 7.7 1.3 11.7.1 5.2.2 10.1 2.6 13.5 2.5 3.4 7.2 5 12.1 6.7 3.7 1.3 7.6 2.6 10.6 4.8 3 2.2 5.4 5.4 7.8 8.5 3.2 4.2 6.1 8.2 10.2 9.5 1 .3 2.1.5 3.3.5 3.1 0 6.5-1 10.2-2.1 3.8-1.2 7.8-2.4 11.7-2.4 3.9 0 7.9 1.2 11.7 2.4 3.6 1.1 7 2.1 10.1 2.1 1.2 0 2.3-.2 3.3-.5 4.1-1.3 7.1-5.3 10.2-9.5 2.3-3.1 4.8-6.3 7.8-8.5 3.1-2.2 6.9-3.5 10.6-4.8 4.9-1.7 9.6-3.3 12.1-6.7 2.5-3.4 2.5-8.3 2.6-13.5.1-4 .1-8.1 1.3-11.7 1.1-3.5 3.4-6.7 5.6-9.9 2.9-4.1 5.9-8.4 5.9-12.8.5-4.5-2.5-8.8-5.4-12.9zM155 90c-2.3 3.3-4.9 7-6.3 11.2-1.4 4.3-1.5 9-1.6 13.1-.1 4.4-.2 8.5-1.7 10.6-1.6 2.1-5.5 3.5-9.7 4.9-3.9 1.3-8.3 2.9-11.9 5.5-3.6 2.6-6.4 6.3-8.8 9.6-2.7 3.6-5.2 6.9-7.8 7.8-.5.2-1.1.2-1.8.2-2.4 0-5.4-.9-8.7-1.9-4-1.2-8.5-2.6-13.2-2.6s-9.2 1.4-13.2 2.6c-3.3 1-6.3 1.9-8.7 1.9-.7 0-1.3-.1-1.8-.2-2.6-.8-5.1-4.2-7.8-7.8-2.4-3.3-5.2-7-8.8-9.6-3.7-2.7-8.1-4.2-11.9-5.5-4.2-1.4-8.1-2.8-9.7-4.9-1.5-2.1-1.6-6.2-1.7-10.6-.1-4.1-.2-8.8-1.6-13.2C17 97 14.4 93.3 12 90c-2.5-3.5-5-7.1-5-10 0-2.8 2.6-6.5 5-10 2.3-3.3 4.9-7 6.3-11.2 1.4-4.3 1.5-9 1.6-13.1.1-4.4.2-8.6 1.7-10.7 1.6-2.1 5.5-3.5 9.7-4.9 3.9-1.3 8.3-2.9 11.9-5.5 3.6-2.6 6.4-6.3 8.8-9.6 2.7-3.6 5.2-6.9 7.8-7.8.6-.1 1.1-.2 1.8-.2 2.4 0 5.4.9 8.7 1.9 4 1.2 8.5 2.6 13.2 2.6s9.2-1.4 13.2-2.6c3.3-1 6.3-1.9 8.7-1.9.7 0 1.3.1 1.8.2 2.6.8 5.1 4.2 7.8 7.8 2.4 3.3 5.2 7 8.8 9.6 3.7 2.7 8.1 4.2 11.9 5.5 4.2 1.4 8.1 2.8 9.7 4.9 1.5 2.1 1.6 6.2 1.7 10.6.1 4.1.2 8.8 1.6 13.1 1.4 4.2 4 7.9 6.3 11.2 2.5 3.5 5 7.1 5 10 0 2.9-2.6 6.6-5 10.1z"/><path fill="#BABABA" d="M155.2 70.4c-2.3-3.3-4.9-7-6.3-11.2-1.4-4.3-1.5-9-1.6-13.1-.1-4.4-.2-8.5-1.7-10.6-1.6-2.1-5.5-3.5-9.7-4.9-3.9-1.3-8.3-2.9-11.9-5.5-3.6-2.6-6.4-6.3-8.8-9.6-2.7-3.6-5.2-6.9-7.8-7.8-.5-.2-1.1-.2-1.8-.2-2.4 0-5.4.9-8.7 1.9-4 1.2-8.5 2.6-13.2 2.6-4.7 0-9.2-1.4-13.2-2.6-3.3-1-6.3-1.9-8.7-1.9-.7 0-1.3.1-1.8.2-2.6.8-5.1 4.2-7.8 7.8-2.4 3.3-5.2 6.9-8.8 9.6-3.7 2.7-8.1 4.2-11.9 5.5-4.2 1.4-8.1 2.8-9.7 4.9-1.5 2.1-1.6 6.3-1.7 10.7-.1 4.1-.2 8.8-1.6 13.1-1.4 4.2-4 7.9-6.3 11.2-2.5 3.5-5 7.1-5 10 0 2.8 2.6 6.5 5 10 2.3 3.3 4.9 7 6.3 11.2 1.4 4.3 1.5 9 1.6 13.2.1 4.4.2 8.5 1.7 10.6 1.6 2.1 5.5 3.5 9.7 4.9 3.9 1.3 8.3 2.9 11.9 5.5 3.6 2.6 6.4 6.3 8.8 9.6 2.7 3.6 5.2 6.9 7.8 7.8.5.2 1.1.2 1.8.2 2.4 0 5.4-.9 8.7-1.9 4-1.2 8.5-2.6 13.2-2.6s9.2 1.4 13.2 2.6c3.2 1 6.3 1.9 8.7 1.9.7 0 1.3-.1 1.8-.2 2.6-.8 5.1-4.2 7.8-7.8 2.4-3.3 5.2-6.9 8.8-9.6 3.7-2.7 8.1-4.2 11.9-5.5 4.2-1.4 8.1-2.8 9.7-4.9 1.5-2.1 1.6-6.2 1.7-10.6.1-4.1.2-8.8 1.6-13.1 1.4-4.2 4-7.9 6.3-11.2 2.5-3.5 5-7.1 5-10 0-3-2.6-6.6-5-10.2zm-1.7 19.7c-2.3 3.2-4.8 6.9-6.2 10.9-1.4 4.2-1.5 8.8-1.5 12.8-.1 4.3-.2 8.3-1.6 10.4-1.5 2.1-5.4 3.4-9.5 4.8-3.8 1.3-8.1 2.8-11.7 5.4-3.5 2.6-6.2 6.2-8.6 9.3-2.6 3.5-5.1 6.8-7.6 7.6-.5.2-1 .2-1.7.2-2.3 0-5.3-.9-8.5-1.9-3.9-1.2-8.3-2.5-12.9-2.5s-9 1.3-12.9 2.5c-3.2 1-6.2 1.9-8.5 1.9-.7 0-1.2-.1-1.7-.2-2.5-.8-5-4.1-7.6-7.6-2.4-3.2-5.1-6.8-8.6-9.4-3.6-2.6-7.9-4.1-11.7-5.4-4.1-1.4-7.9-2.7-9.5-4.8-1.5-2-1.6-6.1-1.7-10.4-.1-4-.2-8.6-1.5-12.8-1.3-4.1-3.9-7.7-6.1-10.9-2.4-3.4-4.9-7-4.9-9.7 0-2.8 2.5-6.3 4.9-9.7 2.3-3.2 4.8-6.9 6.2-10.9 1.4-4.2 1.5-8.8 1.5-12.8.1-4.3.2-8.3 1.7-10.4 1.5-2.1 5.4-3.4 9.5-4.8 3.8-1.3 8.1-2.8 11.7-5.4 3.5-2.6 6.2-6.2 8.6-9.4 2.6-3.5 5.1-6.8 7.6-7.6.5-.2 1-.2 1.7-.2 2.3 0 5.3.9 8.5 1.9 3.9 1.2 8.3 2.5 12.9 2.5s9-1.3 12.9-2.5c3.2-1 6.2-1.9 8.5-1.9.7 0 1.2.1 1.7.2 2.5.8 5 4.1 7.6 7.6 2.4 3.2 5.1 6.8 8.6 9.4 3.6 2.6 7.9 4.1 11.7 5.4 4.1 1.4 7.9 2.7 9.5 4.8 1.5 2 1.6 6.1 1.6 10.4.1 4 .2 8.6 1.5 12.8 1.3 4.1 3.9 7.7 6.1 10.9 2.4 3.4 4.9 7 4.9 9.7 0 2.9-2.5 6.4-4.9 9.8z"/><path fill="#BABABA" d="M155.2 70.4c-2.3-3.3-4.9-7-6.3-11.2-1.4-4.3-1.5-9-1.6-13.1-.1-4.4-.2-8.5-1.7-10.6-1.6-2.1-5.5-3.5-9.7-4.9-3.9-1.3-8.3-2.9-11.9-5.5-3.6-2.6-6.4-6.3-8.8-9.6-2.7-3.6-5.2-6.9-7.8-7.8-.5-.2-1.1-.2-1.8-.2-2.4 0-5.4.9-8.7 1.9-4 1.2-8.5 2.6-13.2 2.6-4.7 0-9.2-1.4-13.2-2.6-3.3-1-6.3-1.9-8.7-1.9-.7 0-1.3.1-1.8.2-2.6.8-5.1 4.2-7.8 7.8-2.4 3.3-5.2 6.9-8.8 9.6-3.7 2.7-8.1 4.2-11.9 5.5-4.2 1.4-8.1 2.8-9.7 4.9-1.5 2.1-1.6 6.3-1.7 10.7-.1 4.1-.2 8.8-1.6 13.1-1.4 4.2-4 7.9-6.3 11.2-2.5 3.5-5 7.1-5 10 0 2.8 2.6 6.5 5 10 2.3 3.3 4.9 7 6.3 11.2 1.4 4.3 1.5 9 1.6 13.2.1 4.4.2 8.5 1.7 10.6 1.6 2.1 5.5 3.5 9.7 4.9 3.9 1.3 8.3 2.9 11.9 5.5 3.6 2.6 6.4 6.3 8.8 9.6 2.7 3.6 5.2 6.9 7.8 7.8.5.2 1.1.2 1.8.2 2.4 0 5.4-.9 8.7-1.9 4-1.2 8.5-2.6 13.2-2.6s9.2 1.4 13.2 2.6c3.2 1 6.3 1.9 8.7 1.9.7 0 1.3-.1 1.8-.2 2.6-.8 5.1-4.2 7.8-7.8 2.4-3.3 5.2-6.9 8.8-9.6 3.7-2.7 8.1-4.2 11.9-5.5 4.2-1.4 8.1-2.8 9.7-4.9 1.5-2.1 1.6-6.2 1.7-10.6.1-4.1.2-8.8 1.6-13.1 1.4-4.2 4-7.9 6.3-11.2 2.5-3.5 5-7.1 5-10 0-3-2.6-6.6-5-10.2zm-1.7 19.7c-2.3 3.2-4.8 6.9-6.2 10.9-1.4 4.2-1.5 8.8-1.5 12.8-.1 4.3-.2 8.3-1.6 10.4-1.5 2.1-5.4 3.4-9.5 4.8-3.8 1.3-8.1 2.8-11.7 5.4-3.5 2.6-6.2 6.2-8.6 9.3-2.6 3.5-5.1 6.8-7.6 7.6-.5.2-1 .2-1.7.2-2.3 0-5.3-.9-8.5-1.9-3.9-1.2-8.3-2.5-12.9-2.5s-9 1.3-12.9 2.5c-3.2 1-6.2 1.9-8.5 1.9-.7 0-1.2-.1-1.7-.2-2.5-.8-5-4.1-7.6-7.6-2.4-3.2-5.1-6.8-8.6-9.4-3.6-2.6-7.9-4.1-11.7-5.4-4.1-1.4-7.9-2.7-9.5-4.8-1.5-2-1.6-6.1-1.7-10.4-.1-4-.2-8.6-1.5-12.8-1.3-4.1-3.9-7.7-6.1-10.9-2.4-3.4-4.9-7-4.9-9.7 0-2.8 2.5-6.3 4.9-9.7 2.3-3.2 4.8-6.9 6.2-10.9 1.4-4.2 1.5-8.8 1.5-12.8.1-4.3.2-8.3 1.7-10.4 1.5-2.1 5.4-3.4 9.5-4.8 3.8-1.3 8.1-2.8 11.7-5.4 3.5-2.6 6.2-6.2 8.6-9.4 2.6-3.5 5.1-6.8 7.6-7.6.5-.2 1-.2 1.7-.2 2.3 0 5.3.9 8.5 1.9 3.9 1.2 8.3 2.5 12.9 2.5s9-1.3 12.9-2.5c3.2-1 6.2-1.9 8.5-1.9.7 0 1.2.1 1.7.2 2.5.8 5 4.1 7.6 7.6 2.4 3.2 5.1 6.8 8.6 9.4 3.6 2.6 7.9 4.1 11.7 5.4 4.1 1.4 7.9 2.7 9.5 4.8 1.5 2 1.6 6.1 1.6 10.4.1 4 .2 8.6 1.5 12.8 1.3 4.1 3.9 7.7 6.1 10.9 2.4 3.4 4.9 7 4.9 9.7 0 2.9-2.5 6.4-4.9 9.8z"/><linearGradient id="e" gradientUnits="userSpaceOnUse" x1="53.001" y1="80.015" x2="206" y2="80.015" gradientTransform="translate(-46)"><stop offset=".029" stop-color="#a7a7a7"/><stop offset=".152" stop-color="#d0d0d0"/><stop offset=".479" stop-color="#919191"/><stop offset=".749" stop-color="#d1d1d1"/><stop offset="1" stop-color="#c5c5c5"/></linearGradient><path fill="url(#e)" d="M155 70c-2.3-3.3-4.9-7-6.3-11.2-1.4-4.3-1.5-9-1.6-13.1-.1-4.4-.2-8.5-1.7-10.6-1.6-2.1-5.5-3.5-9.7-4.9-3.9-1.3-8.3-2.9-11.9-5.5-3.6-2.6-6.4-6.3-8.8-9.6-2.7-3.6-5.2-6.9-7.8-7.8-.5-.2-1.1-.2-1.8-.2-2.4 0-5.4.9-8.7 1.9-4 1.2-8.5 2.6-13.2 2.6S74.3 10.2 70.3 9c-3.2-1.1-6.3-2-8.7-2-.7 0-1.3.1-1.8.2-2.6.8-5.1 4.2-7.8 7.8-2.4 3.3-5.2 6.9-8.8 9.6-3.7 2.7-8.1 4.2-11.9 5.5-4.2 1.4-8.1 2.8-9.7 4.9-1.5 2.1-1.6 6.3-1.7 10.7-.1 4.1-.2 8.8-1.6 13.1-1.3 4.2-4 8-6.3 11.2-2.5 3.5-5 7.1-5 10 0 2.8 2.6 6.5 5 10 2.3 3.3 4.9 7 6.3 11.2 1.4 4.3 1.5 9 1.6 13.2.1 4.4.2 8.5 1.7 10.6 1.6 2.1 5.5 3.5 9.7 4.9 3.9 1.3 8.3 2.9 11.9 5.5 3.6 2.6 6.4 6.3 8.8 9.6 2.7 3.6 5.2 6.9 7.8 7.8.5.2 1.1.2 1.8.2 2.4 0 5.4-.9 8.7-1.9 4-1.2 8.5-2.6 13.2-2.6s9.2 1.4 13.2 2.6c3.2 1 6.3 1.9 8.7 1.9.7 0 1.3-.1 1.8-.2 2.6-.8 5.1-4.2 7.8-7.8 2.4-3.3 5.2-6.9 8.8-9.6 3.7-2.7 8.1-4.2 11.9-5.5 4.2-1.4 8.1-2.8 9.7-4.9 1.5-2.1 1.6-6.2 1.7-10.6.1-4.1.2-8.8 1.6-13.1 1.4-4.2 4-7.9 6.3-11.2 2.5-3.5 5-7.1 5-10 0-2.9-2.6-6.5-5-10.1zm-1.7 19.7c-2.3 3.2-4.8 6.9-6.2 10.9-1.4 4.2-1.5 8.8-1.5 12.8-.1 4.3-.2 8.3-1.7 10.4-1.5 2.1-5.4 3.4-9.5 4.8-3.8 1.3-8.1 2.8-11.7 5.4-3.5 2.6-6.2 6.2-8.6 9.3-2.6 3.5-5.1 6.8-7.6 7.6-.5.2-1 .2-1.7.2-2.3 0-5.3-.9-8.5-1.9-3.9-1.2-8.3-2.5-12.9-2.5s-9 1.3-12.9 2.5c-3.2 1-6.2 1.9-8.5 1.9-.7 0-1.2-.1-1.7-.2-2.5-.8-5-4.1-7.6-7.6-2.4-3.2-5.1-6.8-8.6-9.4-3.6-2.6-7.9-4.1-11.7-5.4-4.1-1.4-7.9-2.7-9.5-4.8-1.5-2.1-1.6-6.1-1.6-10.4-.1-4-.2-8.6-1.5-12.8-1.3-4.1-3.9-7.7-6.1-10.9-2.4-3.4-4.9-7-4.9-9.7 0-2.8 2.5-6.3 4.9-9.7 2.3-3.2 4.8-6.9 6.2-10.9 1.4-4.2 1.5-8.8 1.5-12.8.1-4.3.2-8.3 1.6-10.4 1.5-2.1 5.4-3.4 9.5-4.8 3.8-1.3 8.1-2.8 11.7-5.4 3.5-2.6 6.2-6.2 8.6-9.4 2.6-3.5 5.1-6.8 7.6-7.6.5-.2 1-.2 1.7-.2 2.3 0 5.3.9 8.5 1.9 3.9 1.2 8.3 2.5 12.9 2.5s9-1.3 12.9-2.5c3.2-1 6.2-1.9 8.5-1.9.7 0 1.2.1 1.7.2 2.5.8 5 4.1 7.6 7.6 2.4 3.2 5.1 6.8 8.6 9.4 3.6 2.6 7.9 4.1 11.7 5.4 4.1 1.4 7.9 2.7 9.5 4.8 1.5 2.1 1.6 6.1 1.7 10.4.1 4 .2 8.6 1.5 12.8 1.3 4.1 3.9 7.7 6.2 10.9 2.4 3.4 4.9 7 4.9 9.7s-2.6 6.4-5 9.8z"/><path fill="#CCC" d="M155 70c-2.3-3.3-4.9-7-6.3-11.2-1.4-4.3-1.5-9-1.6-13.1-.1-4.4-.2-8.5-1.7-10.6-1.6-2.1-5.5-3.5-9.7-4.9-3.9-1.3-8.3-2.9-11.9-5.5-3.6-2.6-6.4-6.3-8.8-9.6-2.7-3.6-5.2-6.9-7.8-7.8-.5-.2-1.1-.2-1.8-.2-2.4 0-5.4.9-8.7 1.9-4 1.2-8.5 2.6-13.2 2.6S74.3 10.2 70.3 9c-3.2-1.1-6.3-2-8.7-2-.7 0-1.3.1-1.8.2-2.6.8-5.1 4.2-7.8 7.8-2.4 3.3-5.2 6.9-8.8 9.6-3.7 2.7-8.1 4.2-11.9 5.5-4.2 1.4-8.1 2.8-9.7 4.9-1.5 2.1-1.6 6.3-1.7 10.7-.1 4.1-.2 8.8-1.6 13.1-1.3 4.2-4 8-6.3 11.2-2.5 3.5-5 7.1-5 10 0 2.8 2.6 6.5 5 10 2.3 3.3 4.9 7 6.3 11.2 1.4 4.3 1.5 9 1.6 13.2.1 4.4.2 8.5 1.7 10.6 1.6 2.1 5.5 3.5 9.7 4.9 3.9 1.3 8.3 2.9 11.9 5.5 3.6 2.6 6.4 6.3 8.8 9.6 2.7 3.6 5.2 6.9 7.8 7.8.5.2 1.1.2 1.8.2 2.4 0 5.4-.9 8.7-1.9 4-1.2 8.5-2.6 13.2-2.6s9.2 1.4 13.2 2.6c3.2 1 6.3 1.9 8.7 1.9.7 0 1.3-.1 1.8-.2 2.6-.8 5.1-4.2 7.8-7.8 2.4-3.3 5.2-6.9 8.8-9.6 3.7-2.7 8.1-4.2 11.9-5.5 4.2-1.4 8.1-2.8 9.7-4.9 1.5-2.1 1.6-6.2 1.7-10.6.1-4.1.2-8.8 1.6-13.1 1.4-4.2 4-7.9 6.3-11.2 2.5-3.5 5-7.1 5-10 0-2.9-2.6-6.5-5-10.1zm-1.7 19.7c-2.3 3.2-4.8 6.9-6.2 10.9-1.4 4.2-1.5 8.8-1.5 12.8-.1 4.3-.2 8.3-1.7 10.4-1.5 2.1-5.4 3.4-9.5 4.8-3.8 1.3-8.1 2.8-11.7 5.4-3.5 2.6-6.2 6.2-8.6 9.3-2.6 3.5-5.1 6.8-7.6 7.6-.5.2-1 .2-1.7.2-2.3 0-5.3-.9-8.5-1.9-3.9-1.2-8.3-2.5-12.9-2.5s-9 1.3-12.9 2.5c-3.2 1-6.2 1.9-8.5 1.9-.7 0-1.2-.1-1.7-.2-2.5-.8-5-4.1-7.6-7.6-2.4-3.2-5.1-6.8-8.6-9.4-3.6-2.6-7.9-4.1-11.7-5.4-4.1-1.4-7.9-2.7-9.5-4.8-1.5-2.1-1.6-6.1-1.6-10.4-.1-4-.2-8.6-1.5-12.8-1.3-4.1-3.9-7.7-6.1-10.9-2.4-3.4-4.9-7-4.9-9.7 0-2.8 2.5-6.3 4.9-9.7 2.3-3.2 4.8-6.9 6.2-10.9 1.4-4.2 1.5-8.8 1.5-12.8.1-4.3.2-8.3 1.6-10.4 1.5-2.1 5.4-3.4 9.5-4.8 3.8-1.3 8.1-2.8 11.7-5.4 3.5-2.6 6.2-6.2 8.6-9.4 2.6-3.5 5.1-6.8 7.6-7.6.5-.2 1-.2 1.7-.2 2.3 0 5.3.9 8.5 1.9 3.9 1.2 8.3 2.5 12.9 2.5s9-1.3 12.9-2.5c3.2-1 6.2-1.9 8.5-1.9.7 0 1.2.1 1.7.2 2.5.8 5 4.1 7.6 7.6 2.4 3.2 5.1 6.8 8.6 9.4 3.6 2.6 7.9 4.1 11.7 5.4 4.1 1.4 7.9 2.7 9.5 4.8 1.5 2.1 1.6 6.1 1.7 10.4.1 4 .2 8.6 1.5 12.8 1.3 4.1 3.9 7.7 6.2 10.9 2.4 3.4 4.9 7 4.9 9.7s-2.6 6.4-5 9.8z"/><path fill="#A3A3A3" d="M72.7 38.4h22.2V42H72.7zm22.2-1.3H72.7V23.8l5.5 6.5 5.5-6.5 5.5 6.5 5.7-6.5z"/><linearGradient id="f" gradientUnits="userSpaceOnUse" x1="42.594" y1="41.422" x2="42.594" y2="37.85" gradientTransform="translate(40.963)"><stop offset="0" stop-color="#171717"/><stop offset="1" stop-color="#4e4e4e"/></linearGradient><path fill="url(#f)" d="M72.4 37.8h22.2v3.6H72.4z"/><linearGradient id="g" gradientUnits="userSpaceOnUse" x1="42.594" y1="36.567" x2="42.594" y2="23.3" gradientTransform="translate(40.963)"><stop offset="0" stop-color="#171717"/><stop offset="1" stop-color="#4e4e4e"/></linearGradient><path fill="url(#g)" d="M94.7 36.6H72.4V23.3l5.5 6.5 5.5-6.5 5.6 6.5 5.7-6.5z"/><path d="M94.7 38.4v-.6H72.4v3.6h.3v-3zm-16.5-8.1l5.5-6.5 5.5 6.5 5.5-6.2v-.8L89 29.8l-5.6-6.5-5.5 6.5-5.5-6.5v13.3h.3V23.8z" fill="#BABABA"/><path fill="#A3A3A3" d="M84.2 140.8l1.7-3.6 3.9-.5-2.8-2.8.7-3.8-3.5 1.8-3.5-1.8.7 3.8-2.8 2.8 3.9.5zm19.7-4.4V133l2.8-1.8-3.1-1.1-.9-3.3-2 2.7-3.4-.2 1.9 2.8-1.2 3.1 3.2-.9zm-39.4 0V133l-2.8-1.8 3.1-1.1.9-3.3 2 2.7 3.4-.2-1.9 2.8 1.2 3.1-3.2-.9z"/><linearGradient id="h" gradientUnits="userSpaceOnUse" x1="42.974" y1="1094.052" x2="42.974" y2="1083.351" gradientTransform="matrix(1 0 0 -1 40.963 1223.593)"><stop offset="0" stop-color="#999"/><stop offset="1" stop-color="#4e4e4e"/></linearGradient><path fill="url(#h)" d="M83.9 140.2l1.8-3.5 3.9-.5-2.8-2.8.6-3.9-3.5 1.9-3.4-1.9.6 3.9-2.8 2.8 3.9.5z"/><linearGradient id="i" gradientUnits="userSpaceOnUse" x1="376.319" y1="1129.96" x2="372.282" y2="1121.303" gradientTransform="scale(1 -1) rotate(24.999 3072.42 -117.417)"><stop offset="0" stop-color="#999"/><stop offset="1" stop-color="#4e4e4e"/></linearGradient><path fill="url(#i)" d="M103.6 135.8l.1-3.3 2.8-1.9-3.2-1.1-.9-3.2-2 2.7-3.4-.2 2 2.8-1.2 3.1 3.2-1z"/><linearGradient id="j" gradientUnits="userSpaceOnUse" x1="824.278" y1="921.08" x2="820.242" y2="912.423" gradientTransform="rotate(-154.999 357.1 607.719)"><stop offset="0" stop-color="#999"/><stop offset="1" stop-color="#4e4e4e"/></linearGradient><path fill="url(#j)" d="M64.3 135.8l-.1-3.3-2.8-1.9 3.2-1.1.9-3.2 2 2.7 3.3-.2-1.9 2.8 1.2 3.1-3.2-1z"/><path d="M82.5 137.2l1.4 3-1.4-3zm6.8-1h.3l-2.5-2.5-.1.2zm-8.6-6.1l3.5 1.8 3.1-1.6.1-.8-3.5 1.9-3.4-1.9.6 3.9-2.8 2.8.7.1 2.4-2.4zm21.9-3.2l-.2-.6-2 2.7-3.4-.2.4.5 3.3.2zm3.5 4l.4-.3-3.1-1 .2.5zm-7.2.8l-1.1 3 .5-.2.9-2.4zm-33.2-4.9l2 2.7 2.8-.1.3-.6-3.3.2-2-2.7-.9 3.2-3.2 1.1.6.4 2.8-.9zm-1.5 6l.1 3 .2-.1V133z" fill="#BABABA"/><path fill="#BABABA" d="M70.7 128.8h.1l-1.6 2.3v-.1z"/><g fill="#A3A3A3"><path d="M54.1 50.4c-.1 0-.2 0-.3-.1-.3-.2-.4-.6-.3-.9 3.2-6 8.1-10.8 14-14.1.3-.2.7-.1.9.3.2.3.1.7-.3.9-5.7 3.1-10.4 7.8-13.5 13.6-.1.2-.3.3-.5.3zm60.5 0c-.2 0-.5-.1-.6-.3-3.1-5.7-7.8-10.4-13.5-13.6-.3-.2-.4-.6-.3-.9.2-.3.6-.4.9-.3 5.9 3.3 10.8 8.1 14 14.1.2.3 0 .7-.3.9 0 .1-.1.1-.2.1z"/><path d="M49.9 50.4c-.1 0-.2 0-.3-.1-.3-.2-.5-.6-.3-.9 3.8-8 10.2-14.4 18.2-18.3.3-.1.7 0 .9.3.2.3 0 .7-.3.9-7.7 3.7-13.9 10-17.6 17.6-.1.4-.3.5-.6.5zm68.8 0c-.2 0-.5-.1-.6-.4-3.7-7.7-9.9-14-17.6-17.6-.3-.2-.5-.6-.3-.9.2-.3.6-.5.9-.3 7.9 3.8 14.4 10.3 18.2 18.3.2.3 0 .7-.3.9h-.3z"/><path d="M45.9 50.4h-.3c-.3-.1-.5-.5-.3-.9 4.3-10.1 12.2-18 22.2-22.3.3-.1.7 0 .9.3.1.3 0 .7-.3.9-9.8 4.2-17.4 11.9-21.6 21.6-.1.3-.3.4-.6.4zm76.8 0c-.3 0-.5-.1-.6-.4-4.1-9.7-12.1-17.7-21.8-21.8-.3-.1-.5-.5-.4-.9.1-.3.5-.5.9-.3 10 4.2 18.2 12.4 22.5 22.5.1.3 0 .7-.4.9h-.2z"/></g><linearGradient id="k" gradientUnits="userSpaceOnUse" x1="19.717" y1="49.889" x2="19.717" y2="34.751" gradientTransform="translate(40.963)"><stop offset="0" stop-color="#4e4e4e"/><stop offset="1" stop-color="#999"/></linearGradient><path fill="url(#k)" d="M53.8 49.9c-.1 0-.2 0-.3-.1-.3-.2-.4-.6-.3-.9 3.2-6 8.1-10.8 14-14.1.3-.2.7-.1.9.3.2.3.1.7-.3.9-5.7 3.1-10.4 7.8-13.5 13.6 0 .2-.3.3-.5.3z"/><linearGradient id="l" gradientUnits="userSpaceOnUse" x1="66.496" y1="49.879" x2="66.496" y2="34.752" gradientTransform="translate(40.963)"><stop offset="0" stop-color="#4e4e4e"/><stop offset="1" stop-color="#999"/></linearGradient><path fill="url(#l)" d="M114.3 49.9c-.2 0-.5-.1-.6-.3-3.1-5.7-7.8-10.4-13.5-13.6-.3-.2-.4-.6-.3-.9.2-.3.6-.4.9-.3 5.9 3.3 10.8 8.1 14 14.1.2.3.1.7-.3.9 0 .1-.1.1-.2.1z"/><linearGradient id="m" gradientUnits="userSpaceOnUse" x1="17.659" y1="49.889" x2="17.659" y2="30.624" gradientTransform="translate(40.963)"><stop offset="0" stop-color="#4e4e4e"/><stop offset="1" stop-color="#999"/></linearGradient><path fill="url(#m)" d="M49.7 49.9c-.1 0-.2 0-.3-.1-.3-.2-.5-.5-.3-.9 3.8-8 10.2-14.5 18.2-18.3.3-.2.7 0 .9.3.2.3 0 .7-.3.9-7.7 3.7-13.9 10-17.6 17.7-.1.3-.4.4-.6.4z"/><linearGradient id="n" gradientUnits="userSpaceOnUse" x1="68.552" y1="49.889" x2="68.552" y2="30.624" gradientTransform="translate(40.963)"><stop offset="0" stop-color="#4e4e4e"/><stop offset="1" stop-color="#999"/></linearGradient><path fill="url(#n)" d="M118.4 49.9c-.2 0-.5-.1-.6-.4-3.7-7.7-9.9-14-17.6-17.7-.3-.1-.5-.5-.3-.9.2-.3.6-.5.9-.3 8 3.9 14.5 10.4 18.2 18.4.2.3 0 .7-.3.9h-.3z"/><linearGradient id="o" gradientUnits="userSpaceOnUse" x1="15.643" y1="49.889" x2="15.643" y2="26.584" gradientTransform="translate(40.963)"><stop offset="0" stop-color="#4e4e4e"/><stop offset="1" stop-color="#999"/></linearGradient><path fill="url(#o)" d="M45.7 49.9c-.1 0-.2 0-.3-.1-.3-.1-.5-.5-.3-.9 4.3-10.1 12.2-18 22.2-22.3.3-.2.7 0 .9.3.1.3 0 .7-.3.9-9.8 4.2-17.5 11.9-21.6 21.7-.1.2-.4.4-.6.4z"/><linearGradient id="p" gradientUnits="userSpaceOnUse" x1="70.435" y1="49.889" x2="70.435" y2="26.463" gradientTransform="translate(40.963)"><stop offset="0" stop-color="#4e4e4e"/><stop offset="1" stop-color="#999"/></linearGradient><path fill="url(#p)" d="M122.5 49.9c-.3 0-.5-.1-.6-.4-4.1-9.7-12.1-17.6-21.8-21.8-.3-.1-.5-.5-.3-.9.1-.3.5-.5.9-.4 10 4.2 18.2 12.4 22.5 22.5.1.3 0 .7-.4.9-.1.1-.2.1-.3.1z"/><g fill="#BABABA"><path d="M53.5 49.4c3.2-6 8.1-10.8 14-14.1.2-.1.5-.1.7 0 0-.1 0-.2-.1-.3-.2-.3-.6-.4-.9-.3-5.9 3.3-10.8 8.1-14 14.1-.1.3-.1.6.2.8 0 0 0-.1.1-.2zm46.8-13.8c.2-.3.6-.4.9-.3 5.8 3.2 10.6 7.9 13.8 13.7v-.2c-3.2-6-8.1-10.8-14-14.1-.3-.2-.7-.1-.9.3-.2.3-.1.6.2.8-.1 0-.1-.1 0-.2z"/><path d="M49.4 49.5c3.8-8 10.2-14.4 18.2-18.3.2-.1.5-.1.7.1 0-.1 0-.2-.1-.3-.2-.3-.5-.5-.9-.3-8 3.8-14.4 10.3-18.2 18.3-.1.3 0 .6.2.8 0-.2 0-.2.1-.3zm50.9-18c.2-.3.6-.5.9-.3C109 35 115.3 41.3 119.1 49c-3.8-8-10.2-14.5-18.2-18.3-.3-.2-.7 0-.9.3-.1.3 0 .6.2.8 0-.1 0-.2.1-.3z"/><path d="M67.6 27.2c.2-.1.5-.1.6.1 0-.1 0-.2-.1-.3-.1-.3-.5-.5-.9-.3C57.2 31 49.3 38.9 45.1 49c-.1.3 0 .6.2.8 0-.1 0-.2.1-.2 4.2-10.2 12.1-18.1 22.2-22.4zm54.3 22.3c-.2-.5-.5-1.1-.8-1.7.3.6.5 1.1.8 1.7zM100.8 27c9.3 3.9 17 11.2 21.5 20.2-4.4-9.2-12.3-16.7-21.7-20.7-.3-.1-.7 0-.9.4-.1.3 0 .6.2.8v-.2c.2-.4.6-.6.9-.5z"/></g><linearGradient id="q" gradientUnits="userSpaceOnUse" x1="42.92" y1="71.28" x2="72.854" y2="71.28"><stop offset=".029" stop-color="#a7a7a7"/><stop offset=".152" stop-color="#d0d0d0"/><stop offset=".479" stop-color="#919191"/><stop offset=".749" stop-color="#d1d1d1"/><stop offset="1" stop-color="#c5c5c5"/></linearGradient><path fill="url(#q)" d="M44.2 84.4c.5-1.1 1.9-4.1 4.1-9 2.2-4.9 4.6-10.2 7.1-15.9.3-.6.4-1.1.4-1.6 0-.3-.1-.6-.3-.8-.2-.2-.5-.3-1.1-.3-1.1 0-1.9.4-2.7 1.1-.7.7-1.3 1.6-1.7 2.7a9.6 9.6 0 0 0-.6 3.3c0 .3 0 .7.1 1.2-.7 0-1.2-.3-1.6-1-.4-.7-.5-1.4-.5-2.2 0-1.1.4-2.2 1.2-3.2.8-1 1.8-1.9 3-2.5 1.2-.6 2.4-.9 3.5-.9.9 0 1.7.3 2.2.7.6.5 1 1.4 1.3 2.7.3 1.3.5 3.1.5 5.4 0 2.1-.2 5.3-.5 9.6-.2 2-.3 4-.4 5.9.9-3.4 2.6-7.4 5-11.8s4.5-7.9 6.2-10.4c.4-.6.8-1.1 1-1.3.2-.2.6-.3 1-.3s.8.1 1.3.3c-.7 1.6-1.2 3.4-1.8 5.5-.9 3.5-1.7 7.5-2.5 12-.7 4.5-1.1 7.9-1.1 10.3 0 .6 0 1.1.1 1.4.1.3.1.7.3 1l.2.8c-.9 0-1.6-.1-2-.4-.5-.3-.8-.7-.9-1.3-.2-.6-.3-1.5-.3-2.6 0-2.8.3-5.8 1-9s1.6-7.3 3-12.2c-1.2 1.5-2.4 3.6-3.9 6.4-1.4 2.8-2.7 5.7-4 8.6-1.2 2.9-2.1 5.3-2.7 7.1-.3.1-.5.2-.6.2-.7 0-1.1-.4-1.4-1.2-.3-.8-.4-2-.4-3.6 0-1.5.1-4.3.3-8.5.2-4.1.3-6.9.3-8.2 0-.7 0-1.5-.1-2.2-1.9 4.4-3.5 8.3-4.9 11.7-1.8 4.4-3.2 7.5-4.1 9.5-.9 2-1.7 3.5-2.4 4.5s-1.5 1.5-2.2 1.5l1.6-3z"/><linearGradient id="r" gradientUnits="userSpaceOnUse" x1="71.672" y1="77.917" x2="91.05" y2="77.917"><stop offset=".029" stop-color="#a7a7a7"/><stop offset=".152" stop-color="#d0d0d0"/><stop offset=".479" stop-color="#919191"/><stop offset=".749" stop-color="#d1d1d1"/><stop offset="1" stop-color="#c5c5c5"/></linearGradient><path fill="url(#r)" d="M72.5 84.8c-.5-.6-.8-1.4-.8-2.4 0-1.5.6-3.3 1.7-5.2 1.1-1.9 2.5-3.5 4.2-4.9 1.7-1.3 3.4-2 5-2 1 0 1.9.3 2.6.8.7.6 1 1.3 1 2.1 0 .6-.2 1-.5 1.3-.3.3-.8.4-1.4.4.1-.5.2-.9.2-1.4 0-.7-.2-1.2-.5-1.6-.3-.4-.8-.6-1.5-.6-1.2 0-2.4.6-3.6 1.9-1.3 1.3-2.3 2.8-3.2 4.6-.9 1.8-1.3 3.3-1.3 4.6 0 1 .4 1.5 1.1 1.5 1.1 0 2.3-.8 3.7-2.5 1.4-1.7 2.9-3.7 4.6-6.1.3.1.7.2 1 .3.4.2.5.4.5.6 0 .2-.1.5-.4 1-.3.5-.4.7-.5.8-.4.8-.8 1.4-1.1 2-.3.6-.4 1.1-.4 1.6 0 .4.1.8.3 1.2.2.4.6.5 1 .5.8 0 1.7-.5 2.9-1.6s2.3-2.6 3.4-4.6l.4.4c-.6 1.4-1.3 2.6-2.1 3.7-.9 1.1-1.8 1.9-2.8 2.5-1 .6-2 .9-2.9.9-.9 0-1.6-.3-2.1-.8s-.7-1.2-.7-1.9c0-.3 0-.7.1-1.1-1.2 1.6-2.2 2.7-3.2 3.5s-1.9 1.1-2.8 1.1c-.7.2-1.4-.1-1.9-.6z"/><linearGradient id="s" gradientUnits="userSpaceOnUse" x1="89.238" y1="70.157" x2="111.334" y2="70.157"><stop offset=".029" stop-color="#a7a7a7"/><stop offset=".152" stop-color="#d0d0d0"/><stop offset=".479" stop-color="#919191"/><stop offset=".749" stop-color="#d1d1d1"/><stop offset="1" stop-color="#c5c5c5"/></linearGradient><path fill="url(#s)" d="M90.1 84.1c-.6-.6-.9-1.4-.9-2.5 0-1.4.6-3.1 1.7-5.1 1.1-1.9 2.5-3.6 4.1-4.9 1.7-1.4 3.3-2 4.8-2 1.2 0 1.7.4 1.7 1.2 0 .1 0 .3-.1.6-.3-.4-.8-.6-1.5-.6-1.3 0-2.6.6-3.8 1.9-1.2 1.2-2.2 2.7-3 4.4-.8 1.7-1.2 3.1-1.2 4.1 0 .6.1 1 .4 1.4.2.3.6.5 1 .5.7 0 1.6-.5 2.6-1.4 1-.9 2.1-2.2 3.1-3.8 1.1-1.7 2-3.5 2.8-5.6 2-5.3 3.8-9.4 5.1-12.4s2.5-4.4 3.5-4.4c.2 0 .4.1.6.3.2.2.2.4.2.6 0 .4-.2 1.1-.6 2-.4 1-1.1 2.4-2 4.4-1.9 4-3.5 7.5-4.6 10.5-1.2 3-1.7 5.5-1.7 7.7 0 .9 0 1.5.1 1.8.1.3.3.5.8.5.6 0 1.2-.2 1.9-.7.7-.5 1.5-1.2 2.2-2 .7-.9 1.4-1.9 1.9-3.1l.5.4c-.5 1.3-1.2 2.5-2 3.6-.9 1.1-1.8 1.9-2.8 2.5-1 .6-1.9.9-2.8.9-.9 0-1.6-.3-2-.9-.4-.6-.6-1.3-.6-2.1 0-.9.2-2.3.7-4.2-1.3 2.2-2.7 4-4.2 5.3-1.4 1.3-2.7 2-3.9 2-.7-.1-1.4-.4-2-.9z"/><linearGradient id="t" gradientUnits="userSpaceOnUse" x1="107.946" y1="77.523" x2="122.873" y2="77.523"><stop offset=".029" stop-color="#a7a7a7"/><stop offset=".152" stop-color="#d0d0d0"/><stop offset=".479" stop-color="#919191"/><stop offset=".749" stop-color="#d1d1d1"/><stop offset="1" stop-color="#c5c5c5"/></linearGradient><path fill="url(#t)" d="M109.2 84.2c-.8-.9-1.2-1.9-1.2-3.3 0-1.5.5-3.2 1.5-5 1-1.8 2.3-3.3 3.9-4.5 1.6-1.2 3.1-1.8 4.6-1.8 1.6 0 2.4.8 2.4 2.4 0 1.3-.5 2.5-1.5 3.6s-2.2 2-3.7 2.7c-1.5.7-3 1.1-4.6 1.3-.1.4-.2.9-.2 1.4 0 .9.2 1.7.7 2.4.5.6 1.3.9 2.4.9 1.6 0 3.2-.7 4.8-2 1.6-1.3 3-3 4-5l.5.4c-1.1 2.3-2.5 4.2-4.4 5.6-1.9 1.4-3.8 2.1-5.8 2.1-1.4.1-2.6-.3-3.4-1.2zm5.1-7c1.2-.7 2.2-1.5 3.1-2.5.9-1 1.3-2 1.3-3 0-.3-.1-.5-.2-.7-.1-.1-.3-.2-.6-.2-.8 0-1.7.4-2.7 1.2-1 .8-1.8 1.9-2.6 3.1-.8 1.3-1.4 2.5-1.7 3.7 1-.3 2.2-.9 3.4-1.6z"/><linearGradient id="u" gradientUnits="userSpaceOnUse" x1="43.014" y1="102.484" x2="49.945" y2="102.484"><stop offset=".029" stop-color="#a7a7a7"/><stop offset=".152" stop-color="#d0d0d0"/><stop offset=".479" stop-color="#919191"/><stop offset=".749" stop-color="#d1d1d1"/><stop offset="1" stop-color="#c5c5c5"/></linearGradient><path fill="url(#u)" d="M43.5 108.8c-.3-.4-.5-.9-.5-1.5 0-.7.2-1.6.6-2.7.4-1.2.9-2.2 1.4-3.1.6-.9 1.1-1.3 1.7-1.3.2 0 .3.1.4.2.1.1.2.2.2.4s-.3.8-.8 1.7c-.6.9-1 1.8-1.3 2.5-.3.7-.5 1.4-.5 2.1 0 .6.1 1 .3 1.2.2.2.5.3.9.3 1.3 0 2.6-1.3 3.9-3.9l.2.3c-.5 1.4-1.2 2.5-2.1 3.3-.9.8-1.9 1.2-2.9 1.2-.7-.1-1.1-.3-1.5-.7zm3.8-11.2c-.2-.1-.3-.3-.3-.6s.2-.6.6-.9c.4-.3.8-.4 1.2-.4.6 0 .8.3.8.8 0 .3-.2.6-.5.9-.3.3-.7.4-1.1.4-.3 0-.6-.1-.7-.2z"/><linearGradient id="v" gradientUnits="userSpaceOnUse" x1="48.275" y1="105.254" x2="61.785" y2="105.254"><stop offset=".029" stop-color="#a7a7a7"/><stop offset=".152" stop-color="#d0d0d0"/><stop offset=".479" stop-color="#919191"/><stop offset=".749" stop-color="#d1d1d1"/><stop offset="1" stop-color="#c5c5c5"/></linearGradient><path fill="url(#v)" d="M56.1 108.8c-.3-.3-.5-.7-.5-1.2 0-.2 0-.5.1-.8.1-.3.2-.6.2-.9.1-.3.2-.6.3-1 .1-.3.1-.6.1-.9 0-.8-.3-1.2-1-1.2-.6 0-1.3.3-2 1s-1.3 1.4-1.9 2.3c-.5.8-1.2 1.8-1.9 3-.3 0-.5 0-.8-.1-.2-.1-.4-.2-.6-.4 0-.1.1-.4.3-.9.4-1.1.8-2.1 1-2.9.3-.9.4-1.7.4-2.4.1-.1.3-.3.5-.4.2-.1.4-.2.7-.2.5 0 .7.2.7.7 0 .3-.1.7-.2 1.3-.2.6-.3 1.3-.6 2 .8-1.2 1.7-2.3 2.6-3.2.9-.9 1.8-1.3 2.7-1.3.6 0 1.1.2 1.4.7.3.4.5 1 .5 1.6 0 .4 0 .7-.1 1.1-.1.3-.2.7-.4 1.2-.2.4-.3.7-.4 1-.1.3-.1.5-.1.8 0 .6.3 1 .8 1 .6 0 1.2-.4 1.8-1.1.6-.8 1.2-1.7 1.8-2.8l.3.3c-1.2 2.9-2.7 4.3-4.4 4.3-.6-.2-1-.3-1.3-.6z"/><linearGradient id="w" gradientUnits="userSpaceOnUse" x1="58.215" y1="51.948" x2="56.465" y2="83.006"><stop offset="0" stop-color="#4e4e4e"/><stop offset="1" stop-color="#171717"/></linearGradient><path fill="url(#w)" d="M43.4 84c.5-1.1 1.9-4.1 4.1-9 2.2-4.9 4.6-10.2 7.1-15.9.3-.6.4-1.1.4-1.6 0-.3-.1-.6-.3-.8-.2-.2-.5-.3-1.1-.3-1.1 0-1.9.4-2.7 1.1-.7.7-1.3 1.6-1.7 2.7s-.6 2.2-.6 3.3c0 .3 0 .7.1 1.2-.7 0-1.2-.3-1.6-1-.4-.7-.5-1.4-.5-2.2 0-1.1.4-2.2 1.2-3.2.8-1 1.8-1.9 3-2.5 1.2-.6 2.4-.9 3.5-.9.9 0 1.7.3 2.2.7.6.5 1 1.4 1.3 2.7.3 1.3.5 3.1.5 5.4 0 2.1-.2 5.3-.5 9.6-.2 2-.3 4-.4 5.9.9-3.4 2.6-7.4 5-11.8s4.5-7.9 6.2-10.4c.4-.6.8-1.1 1-1.3.2-.2.6-.3 1-.3s.8.1 1.3.3c-.7 1.6-1.2 3.4-1.8 5.5-.9 3.5-1.7 7.5-2.5 12-.7 4.5-1.1 7.9-1.1 10.3 0 .6 0 1.1.1 1.4.1.3.1.7.3 1l.2.8c-.9 0-1.6-.1-2-.4-.5-.3-.8-.7-.9-1.3-.2-.6-.3-1.5-.3-2.6 0-2.8.3-5.8 1-9s1.6-7.3 3-12.2c-1.2 1.5-2.4 3.6-3.9 6.4-1.4 2.8-2.7 5.7-4 8.6-1.2 2.9-2.1 5.3-2.7 7.1-.3.1-.5.2-.6.2-.7 0-1.1-.4-1.4-1.2-.3-.8-.4-2-.4-3.6 0-1.5.1-4.3.3-8.5.2-4.1.3-6.9.3-8.2 0-.7 0-1.5-.1-2.2-1.9 4.4-3.5 8.3-4.9 11.7-1.8 4.4-3.2 7.5-4.1 9.5-.9 2-1.7 3.5-2.4 4.5S42.5 87 41.8 87l1.6-3z"/><linearGradient id="x" gradientUnits="userSpaceOnUse" x1="82.08" y1="53.292" x2="80.33" y2="84.35"><stop offset="0" stop-color="#4e4e4e"/><stop offset="1" stop-color="#171717"/></linearGradient><path fill="url(#x)" d="M71.7 84.3c-.5-.6-.8-1.4-.8-2.4 0-1.5.6-3.3 1.7-5.2 1.1-1.9 2.5-3.5 4.2-4.9 1.7-1.3 3.4-2 5-2 1 0 1.9.3 2.6.8.7.6 1 1.3 1 2.1 0 .6-.2 1-.5 1.3-.3.3-.8.4-1.4.4.1-.5.2-.9.2-1.4 0-.7-.2-1.2-.5-1.6-.3-.4-.8-.6-1.5-.6-1.2 0-2.4.6-3.6 1.9-1.3 1.3-2.3 2.8-3.2 4.6-.9 1.8-1.3 3.3-1.3 4.6 0 1 .4 1.5 1.1 1.5 1.1 0 2.3-.8 3.7-2.5 1.4-1.7 2.9-3.7 4.6-6.1.3.1.7.2 1 .3.4.2.5.4.5.6 0 .2-.1.5-.4 1-.3.5-.4.7-.5.8-.4.8-.8 1.4-1.1 2-.3.6-.4 1.1-.4 1.6 0 .4.1.8.3 1.2.2.4.6.5 1 .5.8 0 1.7-.5 2.9-1.6s2.3-2.6 3.4-4.6l.4.4c-.6 1.4-1.3 2.6-2.1 3.7-.9 1.1-1.8 1.9-2.8 2.5-1 .6-2 .9-2.9.9-.9 0-1.6-.3-2.1-.8s-.7-1.2-.7-1.9c0-.3 0-.7.1-1.1-1.2 1.6-2.2 2.7-3.2 3.5-.9.7-1.9 1.1-2.8 1.1-.6.3-1.3 0-1.9-.6z"/><linearGradient id="y" gradientUnits="userSpaceOnUse" x1="100.324" y1="54.32" x2="98.574" y2="85.378"><stop offset="0" stop-color="#4e4e4e"/><stop offset="1" stop-color="#171717"/></linearGradient><path fill="url(#y)" d="M89.4 83.7c-.6-.6-.9-1.4-.9-2.5 0-1.4.6-3.1 1.7-5.1 1.1-1.9 2.5-3.6 4.1-4.9 1.7-1.4 3.3-2 4.8-2 1.2 0 1.7.4 1.7 1.2 0 .1 0 .3-.1.6-.3-.4-.8-.6-1.5-.6-1.3 0-2.6.6-3.8 1.9-1.2 1.2-2.2 2.7-3 4.4-.8 1.7-1.2 3.1-1.2 4.1 0 .6.1 1 .4 1.4.2.3.6.5 1 .5.7 0 1.6-.5 2.6-1.4 1-.9 2.1-2.2 3.1-3.8 1.1-1.7 2-3.5 2.8-5.6 2-5.3 3.8-9.4 5.1-12.4s2.5-4.4 3.5-4.4c.2 0 .4.1.6.3.2.2.2.4.2.6 0 .4-.2 1.1-.6 2-.4 1-1.1 2.4-2 4.4-1.9 4-3.5 7.5-4.6 10.5-1.2 3-1.7 5.5-1.7 7.7 0 .9 0 1.5.1 1.8.1.3.3.5.8.5.6 0 1.2-.2 1.9-.7.7-.5 1.5-1.2 2.2-2 .7-.9 1.4-1.9 1.9-3.1l.5.4c-.5 1.3-1.2 2.5-2 3.6-.9 1.1-1.8 1.9-2.8 2.5-1 .6-1.9.9-2.8.9-.9 0-1.6-.3-2-.9-.4-.6-.6-1.3-.6-2.1 0-.9.2-2.3.7-4.2-1.3 2.2-2.7 4-4.2 5.3-1.4 1.3-2.7 2-3.9 2-.7-.1-1.4-.4-2-.9z"/><linearGradient id="z" gradientUnits="userSpaceOnUse" x1="115.98" y1="55.202" x2="114.23" y2="86.26"><stop offset="0" stop-color="#4e4e4e"/><stop offset="1" stop-color="#171717"/></linearGradient><path fill="url(#z)" d="M108.4 83.8c-.8-.9-1.2-1.9-1.2-3.3 0-1.5.5-3.2 1.5-5 1-1.8 2.3-3.3 3.9-4.5 1.6-1.2 3.1-1.8 4.6-1.8 1.6 0 2.4.8 2.4 2.4 0 1.3-.5 2.5-1.5 3.6s-2.2 2-3.7 2.7c-1.5.7-3 1.1-4.6 1.3-.1.4-.2.9-.2 1.4 0 .9.2 1.7.7 2.4.5.6 1.3.9 2.4.9 1.6 0 3.2-.7 4.8-2 1.6-1.3 3-3 4-5l.5.4c-1.1 2.3-2.5 4.2-4.4 5.6-1.9 1.4-3.8 2.1-5.8 2.1-1.4.1-2.5-.4-3.4-1.2zm5.1-7c1.2-.7 2.2-1.5 3.1-2.5.9-1 1.3-2 1.3-3 0-.3-.1-.5-.2-.7-.1-.1-.3-.2-.6-.2-.8 0-1.7.4-2.7 1.2-1 .8-1.8 1.9-2.6 3.1-.8 1.3-1.4 2.5-1.7 3.7 1.1-.4 2.2-.9 3.4-1.6z"/><linearGradient id="A" gradientUnits="userSpaceOnUse" x1="48.752" y1="84.584" x2="46.224" y2="103.41"><stop offset="0" stop-color="#4e4e4e"/><stop offset="1" stop-color="#171717"/></linearGradient><path fill="url(#A)" d="M43 108.5c-.3-.4-.5-.9-.5-1.5 0-.7.2-1.6.6-2.7.4-1.2.9-2.2 1.4-3.1.6-.9 1.1-1.3 1.7-1.3.2 0 .3.1.4.2.1.1.2.2.2.4s-.3.8-.8 1.7c-.6.9-1 1.8-1.3 2.5-.3.7-.5 1.4-.5 2.1 0 .6.1 1 .3 1.2.2.2.5.3.9.3 1.3 0 2.6-1.3 3.9-3.9l.2.3c-.5 1.4-1.2 2.5-2.1 3.3-.9.8-1.9 1.2-2.9 1.2-.7-.2-1.2-.4-1.5-.7zm3.7-11.3c-.2-.1-.3-.3-.3-.6s.2-.6.6-.9c.4-.3.8-.4 1.2-.4.6 0 .8.3.8.8 0 .3-.2.6-.5.9-.3.3-.7.4-1.1.4-.3.1-.5 0-.7-.2z"/><linearGradient id="B" gradientUnits="userSpaceOnUse" x1="57.26" y1="85.727" x2="54.731" y2="104.553"><stop offset="0" stop-color="#4e4e4e"/><stop offset="1" stop-color="#171717"/></linearGradient><path fill="url(#B)" d="M55.5 108.5c-.3-.3-.5-.7-.5-1.2 0-.2 0-.5.1-.8.1-.3.2-.6.2-.9.1-.3.2-.6.3-1 .1-.3.1-.6.1-.9 0-.8-.3-1.2-1-1.2-.6 0-1.3.3-2 1s-1.3 1.4-1.9 2.3c-.5.8-1.2 1.8-1.9 3-.3 0-.5 0-.8-.1-.2-.1-.4-.2-.6-.4 0-.1.1-.4.3-.9.4-1.1.8-2.1 1-2.9.3-.9.4-1.7.4-2.4.1-.1.3-.3.5-.4.2-.1.4-.2.7-.2.5 0 .7.2.7.7 0 .3-.1.7-.2 1.3-.2.6-.3 1.3-.6 2 .8-1.2 1.7-2.3 2.6-3.2.9-.9 1.8-1.3 2.7-1.3.6 0 1.1.2 1.4.7.3.4.5 1 .5 1.6 0 .4 0 .7-.1 1.1-.1.3-.2.7-.4 1.2-.2.4-.3.7-.4 1-.1.3-.1.5-.1.8 0 .6.3 1 .8 1 .6 0 1.2-.4 1.8-1.1.6-.8 1.2-1.7 1.8-2.8l.3.3c-1.2 2.9-2.7 4.3-4.4 4.3-.5-.2-1-.4-1.3-.6z"/><linearGradient id="C" gradientUnits="userSpaceOnUse" x1="67.278" y1="101.092" x2="79.065" y2="101.092"><stop offset=".029" stop-color="#a7a7a7"/><stop offset=".152" stop-color="#d0d0d0"/><stop offset=".479" stop-color="#919191"/><stop offset=".749" stop-color="#d1d1d1"/><stop offset="1" stop-color="#c5c5c5"/></linearGradient><path fill="url(#C)" d="M69.4 109.9c-.7-.4-1.2-.9-1.6-1.5-.4-.6-.6-1.4-.6-2.1 0-.9.3-1.9.8-2.7.5-.9 1.3-1.6 2.2-2.2.9-.6 1.9-.9 3-1.1-.6-.5-1-1-1.3-1.7-.3-.6-.4-1.3-.4-2 0-.8.2-1.6.6-2.3.4-.7 1-1.3 1.7-1.8.7-.4 1.5-.7 2.4-.7.9 0 1.5.2 2 .7.5.4.7 1.1.7 1.9 0 .6-.1 1.1-.3 1.7-.2.5-.4 1-.7 1.3-.3.3-.6.5-.8.5-.2 0-.3-.1-.5-.2s-.3-.3-.4-.5c1.3-1.1 2-2.2 2-3.2 0-.5-.1-.9-.4-1.1-.3-.3-.7-.4-1.2-.4-1 0-1.9.4-2.4 1.3-.6.9-.9 2-.9 3.3 0 1.6.4 2.7 1.3 3.5-1 .2-1.9.6-2.7 1.2-.8.6-1.4 1.3-1.8 2.2-.4.8-.7 1.7-.7 2.5 0 .9.2 1.7.7 2.3.5.7 1.2 1 2.2 1 .8 0 1.6-.2 2.4-.7.8-.5 1.6-1.1 2.3-1.8.7-.8 1.2-1.6 1.7-2.5l.3.2c-.9 1.7-1.9 3-3.2 4-1.2 1-2.6 1.5-4.1 1.5-.8 0-1.6-.2-2.3-.6z"/><linearGradient id="D" gradientUnits="userSpaceOnUse" x1="78.251" y1="105.323" x2="89.178" y2="105.323"><stop offset=".029" stop-color="#a7a7a7"/><stop offset=".152" stop-color="#d0d0d0"/><stop offset=".479" stop-color="#919191"/><stop offset=".749" stop-color="#d1d1d1"/><stop offset="1" stop-color="#c5c5c5"/></linearGradient><path fill="url(#D)" d="M78.7 108.5c-.3-.5-.5-1-.5-1.7 0-.6.1-1.3.4-2.1.2-.8.5-1.6.9-2.2.3-.6.6-.9.8-.9.1 0 .2 0 .4.1s.3.2.5.3c-.3.5-.7 1.2-1 2.2-.4 1-.5 1.8-.5 2.5 0 .4.1.7.2 1 .1.3.3.5.7.5.5 0 1.1-.5 1.8-1.5.6-1 1.3-2.3 2.1-3.8l.4-.8c.7.1 1.1.3 1.1.6 0 0 0 .1-.1.3-.1.2-.1.3-.2.5-.4.8-.7 1.5-.9 2.2-.2.7-.4 1.3-.4 1.8 0 .6.3.9.8.9.3 0 .7-.2 1.2-.5s.9-.7 1.4-1.3c.5-.6.9-1.2 1.3-2l.3.2c-.3.8-.7 1.6-1.3 2.2-.5.6-1.1 1.1-1.7 1.5-.6.4-1.2.5-1.7.5-1.1 0-1.6-.6-1.6-1.7 0-.3.1-.7.2-1.2-.5.9-1 1.6-1.5 2.1s-1 .8-1.6.8c-.7.1-1.1-.1-1.5-.5z"/><linearGradient id="E" gradientUnits="userSpaceOnUse" x1="88.457" y1="103.986" x2="97.315" y2="103.986"><stop offset=".029" stop-color="#a7a7a7"/><stop offset=".152" stop-color="#d0d0d0"/><stop offset=".479" stop-color="#919191"/><stop offset=".749" stop-color="#d1d1d1"/><stop offset="1" stop-color="#c5c5c5"/></linearGradient><path fill="url(#E)" d="M91.2 108.6c-.3-.3-.5-.6-.5-1.1 0-.5.2-1.3.7-2.3.2-.5.4-.9.5-1.2.1-.3.2-.6.2-.8 0-.4-.1-.7-.3-.9l-.6-.6c-.2-.1-.4-.2-.4-.3-.3.9-.7 1.7-1.1 2.5-.4.8-.7 1.5-1 1.9l-.2-.4c.7-1.4 1.4-2.9 1.9-4.4-.2-.2-.2-.3-.2-.6s.1-.5.2-.8c.1-.2.3-.4.4-.6.2-.1.3-.2.4-.2.2 0 .3.2.3.6 0 .1 0 .2-.1.4s-.1.4-.1.4c0 .2.1.3.2.4.1.1.3.3.6.5.5.3.9.7 1.1 1 .3.3.4.8.4 1.3 0 .3-.1.7-.2 1-.1.3-.3.8-.5 1.3-.3.7-.5 1.3-.5 1.6 0 .5.2.7.7.7.5 0 1-.2 1.5-.6.5-.4 1-.8 1.5-1.4.4-.6.8-1.1 1-1.5l.3.2c-.5 1.1-1.2 2-2.1 2.8-.9.8-1.8 1.2-2.8 1.2-.6.3-1 .2-1.3-.1z"/><linearGradient id="F" gradientUnits="userSpaceOnUse" x1="96.292" y1="104.719" x2="105.731" y2="104.719"><stop offset=".029" stop-color="#a7a7a7"/><stop offset=".152" stop-color="#d0d0d0"/><stop offset=".479" stop-color="#919191"/><stop offset=".749" stop-color="#d1d1d1"/><stop offset="1" stop-color="#c5c5c5"/></linearGradient><path fill="url(#F)" d="M96.7 108.6c-.3-.4-.4-.9-.4-1.5s.1-1.3.4-2 .6-1.3 1-1.7c.4-.5.8-.7 1.3-.7.1 0 .3 0 .5.1-.2.2-.4.5-.7 1-.3.5-.5 1.1-.7 1.7-.2.6-.3 1.1-.3 1.5 0 .9.3 1.3.8 1.3.3 0 .7-.2 1.2-.5.4-.3.9-.8 1.3-1.3-.4-.4-.8-.8-1-1.4-.2-.6-.4-1.2-.4-1.8 0-.8.2-1.5.6-2.1.4-.6 1-.9 1.7-.9.6 0 1 .2 1.2.5.2.3.4.8.4 1.3 0 .6-.1 1.3-.4 2-.3.7-.7 1.5-1.1 2.2.3.2.6.2.9.2.4 0 .9-.1 1.4-.4.5-.3.8-.7 1.1-1.3l.3.2c-.3.7-.7 1.2-1.3 1.5-.5.3-1.1.5-1.7.5-.4 0-.8-.1-1.1-.2-.6.7-1.2 1.3-1.8 1.8-.6.4-1.2.7-1.8.7-.6-.1-1.1-.3-1.4-.7zm5.8-4.7c.2-.6.4-1.2.4-1.7 0-.4-.1-.8-.2-1-.1-.2-.3-.3-.5-.3s-.4.1-.7.3c-.2.2-.4.5-.6.9-.1.4-.2.8-.2 1.2 0 .5.1.9.2 1.4.1.4.3.8.6 1.1.4-.6.8-1.3 1-1.9z"/><linearGradient id="G" gradientUnits="userSpaceOnUse" x1="102.821" y1="107.358" x2="113.379" y2="107.358"><stop offset=".029" stop-color="#a7a7a7"/><stop offset=".152" stop-color="#d0d0d0"/><stop offset=".479" stop-color="#919191"/><stop offset=".749" stop-color="#d1d1d1"/><stop offset="1" stop-color="#c5c5c5"/></linearGradient><path fill="url(#G)" d="M103.2 114.8c-.1-.1-.2-.3-.3-.4-.1-.2-.1-.2-.1-.3.2-.7.5-1.6.8-2.5.3-1 .6-1.9.9-2.7.2-.8.5-1.9.7-3.3.3-1.4.5-3.2.8-5.4 0-.2.1-.3.1-.3.1-.1.2-.1.3-.1.4 0 .7.1.8.3.2.2.3.5.3.8 0 .4-.2 1.5-.5 3.1.5-.9 1.1-1.7 1.8-2.4s1.4-1 2.3-1c.7 0 1.2.2 1.7.7.4.5.7 1.1.7 1.9 0 .8-.2 1.7-.7 2.6-.5.9-1.1 1.7-2 2.3-.8.6-1.8.9-2.8.9-.4 0-.7 0-1-.1-.3-.1-.4-.2-.4-.3 0 0 .1-.1.2-.1h.4c.8 0 1.6-.3 2.3-.8.7-.5 1.3-1.2 1.8-2 .4-.8.7-1.6.7-2.4 0-.5-.1-1-.3-1.3-.2-.3-.6-.5-1-.5-.5 0-1 .2-1.5.6-.5.4-1 .9-1.4 1.5-.4.6-.7 1.1-.9 1.6-.6 2.4-1.1 4.6-1.7 6.4-.5 1.8-.9 2.8-1.2 3.1-.1.1-.2.1-.3.1-.3.1-.4.1-.5 0z"/><linearGradient id="H" gradientUnits="userSpaceOnUse" x1="113.775" y1="104.765" x2="122.586" y2="104.765"><stop offset=".029" stop-color="#a7a7a7"/><stop offset=".152" stop-color="#d0d0d0"/><stop offset=".479" stop-color="#919191"/><stop offset=".749" stop-color="#d1d1d1"/><stop offset="1" stop-color="#c5c5c5"/></linearGradient><path fill="url(#H)" d="M114.5 108.7c-.5-.5-.7-1.2-.7-1.9 0-.9.3-1.9.9-3 .6-1.1 1.4-1.9 2.3-2.7.9-.7 1.8-1.1 2.7-1.1 1 0 1.4.5 1.4 1.4 0 .8-.3 1.5-.9 2.1-.6.7-1.3 1.2-2.2 1.6-.9.4-1.8.7-2.7.8-.1.3-.1.5-.1.8 0 .6.1 1 .4 1.4.3.4.8.6 1.4.6.9 0 1.9-.4 2.9-1.2 1-.8 1.7-1.8 2.3-2.9l.3.2c-.6 1.4-1.5 2.5-2.6 3.3-1.1.8-2.2 1.3-3.4 1.3-.8.1-1.5-.2-2-.7zm3-4.1c.7-.4 1.3-.9 1.8-1.5s.8-1.2.8-1.8c0-.2 0-.3-.1-.4-.1-.1-.2-.1-.4-.1-.5 0-1 .2-1.6.7-.6.5-1.1 1.1-1.6 1.8s-.8 1.5-1 2.2c.7-.2 1.4-.5 2.1-.9z"/><linearGradient id="I" gradientUnits="userSpaceOnUse" x1="72.438" y1="95.214" x2="73.812" y2="110.186"><stop offset="0" stop-color="#4e4e4e"/><stop offset="1" stop-color="#171717"/></linearGradient><path fill="url(#I)" d="M69.2 109.5c-.7-.4-1.2-.9-1.6-1.5-.4-.6-.6-1.4-.6-2.1 0-.9.3-1.9.8-2.7.5-.9 1.3-1.6 2.2-2.2.9-.6 1.9-.9 3-1.1-.6-.5-1-1-1.3-1.7-.3-.6-.4-1.3-.4-2 0-.8.2-1.6.6-2.3.4-.7 1-1.3 1.7-1.8.7-.4 1.5-.7 2.4-.7.9 0 1.5.2 2 .7.5.4.7 1.1.7 1.9 0 .6-.1 1.1-.3 1.7-.2.5-.4 1-.7 1.3-.3.3-.6.5-.8.5-.2 0-.3-.1-.5-.2s-.3-.3-.4-.5c1.3-1.1 2-2.2 2-3.2 0-.5-.1-.9-.4-1.1-.3-.3-.7-.4-1.2-.4-1 0-1.9.4-2.4 1.3-.6.9-.9 2-.9 3.3 0 1.6.4 2.7 1.3 3.5-1 .2-1.9.6-2.7 1.2-.8.6-1.4 1.3-1.8 2.2-.4.8-.7 1.7-.7 2.5 0 .9.2 1.7.7 2.3s1.2 1 2.2 1c.8 0 1.6-.2 2.4-.7.8-.5 1.6-1.1 2.3-1.8.7-.8 1.2-1.6 1.7-2.5l.3.2c-.9 1.7-1.9 3-3.2 4-1.2 1-2.6 1.5-4.1 1.5-.8 0-1.6-.2-2.3-.6z"/><linearGradient id="J" gradientUnits="userSpaceOnUse" x1="82.424" y1="94.297" x2="83.797" y2="109.27"><stop offset="0" stop-color="#4e4e4e"/><stop offset="1" stop-color="#171717"/></linearGradient><path fill="url(#J)" d="M78.5 108.1c-.3-.5-.5-1-.5-1.7 0-.6.1-1.3.4-2.1.2-.8.5-1.6.9-2.2.3-.6.6-.9.8-.9.1 0 .2 0 .4.1s.3.2.5.3c-.3.5-.7 1.2-1 2.2-.4 1-.5 1.8-.5 2.5 0 .4.1.7.2 1 .1.3.3.5.7.5.5 0 1.1-.5 1.8-1.5.6-1 1.3-2.3 2.1-3.8l.4-.8c.7.1 1.1.3 1.1.6 0 0 0 .1-.1.3-.1.2-.1.3-.2.5-.4.8-.7 1.5-.9 2.2-.2.7-.4 1.3-.4 1.8 0 .6.3.9.8.9.3 0 .7-.2 1.2-.5s.9-.7 1.4-1.3c.5-.6.9-1.2 1.3-2l.3.2c-.3.8-.7 1.6-1.3 2.2-.5.6-1.1 1.1-1.7 1.5-.6.4-1.2.5-1.7.5-1.1 0-1.6-.6-1.6-1.7 0-.3.1-.7.2-1.2-.5.9-1 1.6-1.5 2.1s-1 .8-1.6.8c-.8.2-1.2-.1-1.5-.5z"/><linearGradient id="K" gradientUnits="userSpaceOnUse" x1="91.582" y1="93.457" x2="92.955" y2="108.429"><stop offset="0" stop-color="#4e4e4e"/><stop offset="1" stop-color="#171717"/></linearGradient><path fill="url(#K)" d="M91 108.3c-.3-.3-.5-.6-.5-1.1 0-.5.2-1.3.7-2.3.2-.5.4-.9.5-1.2.1-.3.2-.6.2-.8 0-.4-.1-.7-.3-.9l-.6-.6c-.2-.1-.4-.2-.4-.3-.3.9-.7 1.7-1.1 2.5-.4.8-.7 1.5-1 1.9l-.2-.4c.7-1.4 1.4-2.9 1.9-4.4-.2-.2-.2-.3-.2-.6s.1-.5.2-.8c.1-.2.3-.4.4-.6.2-.1.3-.2.4-.2.2 0 .3.2.3.6 0 .1 0 .2-.1.4s-.1.4-.1.4c0 .2.1.3.2.4.1.1.3.3.6.5.5.3.9.7 1.1 1 .3.3.4.8.4 1.3 0 .3-.1.7-.2 1-.1.3-.3.8-.5 1.3-.3.7-.5 1.3-.5 1.6 0 .5.2.7.7.7.5 0 1-.2 1.5-.6s1-.8 1.5-1.4c.4-.6.8-1.1 1-1.5l.3.2c-.5 1.1-1.2 2-2.1 2.8-.9.8-1.8 1.2-2.8 1.2-.6.3-1 .1-1.3-.1z"/><linearGradient id="L" gradientUnits="userSpaceOnUse" x1="99.559" y1="92.725" x2="100.933" y2="107.698"><stop offset="0" stop-color="#4e4e4e"/><stop offset="1" stop-color="#171717"/></linearGradient><path fill="url(#L)" d="M96.5 108.2c-.3-.4-.4-.9-.4-1.5s.1-1.3.4-2 .6-1.3 1-1.7c.4-.5.8-.7 1.3-.7.1 0 .3 0 .5.1-.2.2-.4.5-.7 1s-.5 1.1-.7 1.7c-.2.6-.3 1.1-.3 1.5 0 .9.3 1.3.8 1.3.3 0 .7-.2 1.2-.5.4-.3.9-.8 1.3-1.3-.4-.4-.8-.8-1-1.4-.2-.6-.4-1.2-.4-1.8 0-.8.2-1.5.6-2.1.4-.6 1-.9 1.7-.9.6 0 1 .2 1.2.5.2.3.4.8.4 1.3 0 .6-.1 1.3-.4 2-.3.7-.7 1.5-1.1 2.2.3.2.6.2.9.2.4 0 .9-.1 1.4-.4.5-.3.8-.7 1.1-1.3l.3.2c-.3.7-.7 1.2-1.3 1.5-.5.3-1.1.5-1.7.5-.4 0-.8-.1-1.1-.2-.6.7-1.2 1.3-1.8 1.8s-1.2.7-1.8.7c-.7-.1-1.1-.3-1.4-.7zm5.8-4.6c.2-.6.4-1.2.4-1.7 0-.4-.1-.8-.2-1-.1-.2-.3-.3-.5-.3s-.4.1-.7.3c-.2.2-.4.5-.6.9-.1.4-.2.8-.2 1.2 0 .5.1.9.2 1.4.1.4.3.8.6 1.1.4-.7.7-1.3 1-1.9z"/><linearGradient id="M" gradientUnits="userSpaceOnUse" x1="106.366" y1="92.101" x2="107.739" y2="107.073"><stop offset="0" stop-color="#4e4e4e"/><stop offset="1" stop-color="#171717"/></linearGradient><path fill="url(#M)" d="M102.9 114.4c-.1-.1-.2-.3-.3-.4-.1-.2-.1-.2-.1-.3.2-.7.5-1.6.8-2.5.3-1 .6-1.9.9-2.7.2-.8.5-1.9.7-3.3.3-1.4.5-3.2.8-5.4 0-.2.1-.3.1-.3.1-.1.2-.1.3-.1.4 0 .7.1.8.3.2.2.3.5.3.8 0 .4-.2 1.5-.5 3.1.5-.9 1.1-1.7 1.8-2.4s1.4-1 2.3-1c.7 0 1.2.2 1.7.7.4.5.7 1.1.7 1.9 0 .8-.2 1.7-.7 2.6-.5.9-1.1 1.7-2 2.3-.8.6-1.8.9-2.8.9-.4 0-.7 0-1-.1-.3-.1-.4-.2-.4-.3 0 0 .1-.1.2-.1h.4c.8 0 1.6-.3 2.3-.8.7-.5 1.3-1.2 1.8-2 .4-.8.7-1.6.7-2.4 0-.5-.1-1-.3-1.3-.2-.3-.6-.5-1-.5-.5 0-1 .2-1.5.6-.5.4-1 .9-1.4 1.5-.4.6-.7 1.1-.9 1.6-.6 2.4-1.1 4.6-1.7 6.4-.5 1.8-.9 2.8-1.2 3.1-.1.1-.2.1-.3.1-.2.2-.4.1-.5 0z"/><linearGradient id="N" gradientUnits="userSpaceOnUse" x1="116.603" y1="91.162" x2="117.977" y2="106.134"><stop offset="0" stop-color="#4e4e4e"/><stop offset="1" stop-color="#171717"/></linearGradient><path fill="url(#N)" d="M114.2 108.3c-.5-.5-.7-1.2-.7-1.9 0-.9.3-1.9.9-3 .6-1.1 1.4-1.9 2.3-2.7.9-.7 1.8-1.1 2.7-1.1 1 0 1.4.5 1.4 1.4 0 .8-.3 1.5-.9 2.1-.6.7-1.3 1.2-2.2 1.6s-1.8.7-2.7.8c-.1.3-.1.5-.1.8 0 .6.1 1 .4 1.4.3.4.8.6 1.4.6.9 0 1.9-.4 2.9-1.2 1-.8 1.7-1.8 2.3-2.9l.3.2c-.6 1.4-1.5 2.5-2.6 3.3-1.1.8-2.2 1.3-3.4 1.3-.8.1-1.5-.2-2-.7zm3.1-4.1c.7-.4 1.3-.9 1.8-1.5s.8-1.2.8-1.8c0-.2 0-.3-.1-.4-.1-.1-.2-.1-.4-.1-.5 0-1 .2-1.6.7-.6.5-1.1 1.1-1.6 1.8s-.8 1.5-1 2.2c.7-.1 1.3-.5 2.1-.9z"/></svg>