<svg xmlns="http://www.w3.org/2000/svg" xmlns:xlink="http://www.w3.org/1999/xlink" width="167" height="160"><defs><path id="a" d="M0 0h167v160H0z"/></defs><clipPath id="b"><use xlink:href="#a" overflow="visible"/></clipPath><g clip-path="url(#b)"><defs><path id="c" d="M0 0h167v160H0z"/></defs><clipPath id="d"><use xlink:href="#c" overflow="visible"/></clipPath><g clip-path="url(#d)"><defs><path id="e" d="M0 0h167v160H0z"/></defs><clipPath id="f"><use xlink:href="#e" overflow="visible"/></clipPath><g clip-path="url(#f)"><defs><path id="g" d="M0 0h167v160H0z"/></defs><clipPath id="h"><use xlink:href="#g" overflow="visible"/></clipPath><path clip-path="url(#h)" fill="#D4D4D4" d="M155.3 56.7c-2.6-8 .6-19.1-4.3-25.7-4.9-6.7-16.4-7.1-23.2-12-6.7-4.9-10.6-15.7-18.6-18.3-7.7-2.5-17.2 3.9-25.8 3.9-8.6 0-18.1-6.4-25.8-3.9C49.6 3.3 45.7 14.2 39 19c-6.7 4.9-18.3 5.3-23.2 12-4.9 6.7-1.7 17.7-4.3 25.7C9.2 64.4 0 71.4 0 80c0 8.6 9.2 15.6 11.7 23.3 2.6 8-.6 19.1 4.3 25.7 4.9 6.7 16.4 7.1 23.2 12 6.7 4.9 10.5 15.7 18.6 18.3 7.7 2.5 17.2-3.9 25.8-3.9 8.6 0 18.1 6.4 25.8 3.9 8-2.6 11.9-13.5 18.6-18.3 6.7-4.9 18.3-5.3 23.2-12 4.9-6.7 1.7-17.7 4.3-25.7C157.8 95.6 167 88.6 167 80c0-8.6-9.2-15.6-11.7-23.3"/></g></g></g><g clip-path="url(#b)"><defs><path id="i" d="M105.3 0c-6.9 0-14.7 4.5-21.8 4.5C76.4 4.5 68.6 0 61.7 0h-.2c-1.3 0-2.6.2-3.8.6-8 2.6-11.9 13.5-18.6 18.3-6.7 4.9-18.3 5.3-23.2 12-4.9 6.7-1.7 17.7-4.3 25.7C9.2 64.4 0 71.4 0 80s9.2 15.6 11.7 23.3c2.6 8-.6 19.1 4.3 25.7 4.9 6.7 16.4 7.1 23.2 12 6.7 4.9 10.5 15.7 18.6 18.3 7.7 2.5 17.2-3.9 25.8-3.9 8.6 0 18.1 6.4 25.8 3.9 8-2.6 11.9-13.5 18.6-18.3 6.7-4.9 18.3-5.3 23.2-12 4.9-6.7 1.7-17.7 4.3-25.7C157.8 95.6 167 88.6 167 80s-9.2-15.6-11.7-23.3c-2.6-8 .6-19.1-4.3-25.7-4.9-6.7-16.4-7.1-23.2-12-6.7-4.9-10.6-15.7-18.6-18.3-1.2-.4-2.5-.6-3.8-.6h-.1z"/></defs><clipPath id="j"><use xlink:href="#i" overflow="visible"/></clipPath><linearGradient id="k" gradientUnits="userSpaceOnUse" y1="160.033" x2="1" y2="160.033" gradientTransform="scale(-175.3122 175.3122) rotate(53.817 157.225 79.28)"><stop offset="0" stop-color="#a7a7a7"/><stop offset=".029" stop-color="#a7a7a7"/><stop offset=".152" stop-color="#d0d0d0"/><stop offset=".479" stop-color="#919191"/><stop offset=".749" stop-color="#d1d1d1"/><stop offset="1" stop-color="#c5c5c5"/></linearGradient><path clip-path="url(#j)" fill="url(#k)" d="M244.2 56.4L108.8 241.5l-186-136L58.2-79.6z"/></g><g clip-path="url(#b)"><defs><path id="l" d="M96.4 10.6c3.2-1 6.2-1.9 8.5-1.9.7 0 1.2.1 1.7.2 2.5.8 5 4.1 7.6 7.6 2.4 3.2 5.1 6.8 8.6 9.4 3.6 2.6 7.9 4.1 11.7 5.4 4.1 1.4 7.9 2.7 9.5 4.8 1.5 2.1 1.6 6.1 1.7 10.4.1 4 .2 8.6 1.5 12.8 1.3 4.1 3.9 7.7 6.2 10.9 2.4 3.4 4.9 7 4.9 9.7s-2.5 6.3-4.9 9.7c-2.3 3.2-4.8 6.9-6.2 10.9-1.4 4.2-1.5 8.8-1.5 12.8-.1 4.3-.2 8.3-1.7 10.4-1.5 2.1-5.4 3.4-9.5 4.8-3.8 1.3-8.1 2.8-11.7 5.4-3.5 2.6-6.2 6.2-8.6 9.3-2.6 3.5-5.1 6.8-7.6 7.6-.5.2-1 .2-1.7.2-2.3 0-5.3-.9-8.5-1.9-3.9-1.2-8.3-2.5-12.9-2.5s-9 1.3-12.9 2.5c-3.2 1-6.2 1.9-8.5 1.9-.7 0-1.2-.1-1.7-.2-2.5-.8-5-4.1-7.6-7.6-2.4-3.2-5.1-6.8-8.6-9.4-3.6-2.6-7.9-4.1-11.7-5.4-4.1-1.4-7.9-2.7-9.5-4.8-1.5-2.1-1.6-6.1-1.6-10.4-.1-4-.2-8.6-1.5-12.8-1.3-4.1-3.9-7.7-6.1-10.9-2.4-3.4-4.9-7-4.9-9.7 0-2.8 2.5-6.3 4.9-9.7 2.3-3.2 4.8-6.9 6.2-10.9 1.4-4.2 1.5-8.8 1.5-12.8.1-4.3.2-8.3 1.6-10.4 1.5-2.1 5.4-3.4 9.5-4.8 3.8-1.3 8.1-2.8 11.7-5.4 3.5-2.6 6.2-6.2 8.6-9.4 2.6-3.5 5.1-6.8 7.6-7.6.5-.2 1-.2 1.7-.2 2.3 0 5.3.9 8.5 1.9C74.6 11.7 79 13 83.6 13c4.5.1 8.9-1.2 12.8-2.4m.3-1.7c-4 1.2-8.5 2.6-13.2 2.6s-9.2-1.4-13.2-2.6C67.1 7.9 64 7 61.6 7c-.7 0-1.3.1-1.8.2-2.6.8-5.1 4.2-7.8 7.8-2.4 3.3-5.2 6.9-8.8 9.6-3.7 2.7-8.1 4.2-11.9 5.5-4.2 1.4-8.1 2.8-9.7 4.9-1.5 2.1-1.6 6.3-1.7 10.7-.1 4.1-.2 8.8-1.6 13.1-1.3 4.2-4 8-6.3 11.2-2.5 3.5-5 7.1-5 10 0 2.8 2.6 6.5 5 10 2.3 3.3 4.9 7 6.3 11.2 1.4 4.3 1.5 9 1.6 13.2.1 4.4.2 8.5 1.7 10.6 1.6 2.1 5.5 3.5 9.7 4.9 3.9 1.3 8.3 2.9 11.9 5.5 3.6 2.6 6.4 6.3 8.8 9.6 2.7 3.6 5.2 6.9 7.8 7.8.5.2 1.1.2 1.8.2 2.4 0 5.4-.9 8.7-1.9 4-1.2 8.5-2.6 13.2-2.6s9.2 1.4 13.2 2.6c3.2 1 6.3 1.9 8.7 1.9.7 0 1.3-.1 1.8-.2 2.6-.8 5.1-4.2 7.8-7.8 2.4-3.3 5.2-6.9 8.8-9.6 3.7-2.7 8.1-4.2 11.9-5.5 4.2-1.4 8.1-2.8 9.7-4.9 1.5-2.1 1.6-6.2 1.7-10.6.1-4.1.2-8.8 1.6-13.1 1.4-4.2 4-7.9 6.3-11.2 2.5-3.5 5-7.1 5-10s-2.6-6.5-5-10c-2.3-3.3-4.9-7-6.3-11.2-1.4-4.3-1.5-9-1.6-13.1-.1-4.4-.2-8.5-1.7-10.6-1.6-2.2-5.5-3.5-9.7-4.9-3.9-1.3-8.3-2.9-11.9-5.5-3.6-2.6-6.4-6.3-8.8-9.6-2.7-3.6-5.2-6.9-7.8-7.8-.5-.2-1.1-.2-1.8-.2-2.4-.2-5.4.7-8.7 1.7"/></defs><clipPath id="m"><use xlink:href="#l" overflow="visible"/></clipPath><linearGradient id="n" gradientUnits="userSpaceOnUse" y1="160.03" x2="1" y2="160.03" gradientTransform="matrix(153 0 0 -153 7 24564.606)"><stop offset="0" stop-color="#a7a7a7"/><stop offset=".029" stop-color="#a7a7a7"/><stop offset=".152" stop-color="#d0d0d0"/><stop offset=".479" stop-color="#919191"/><stop offset=".749" stop-color="#d1d1d1"/><stop offset="1" stop-color="#c5c5c5"/></linearGradient><path clip-path="url(#m)" fill="url(#n)" d="M7 7h153v146H7z"/></g><g clip-path="url(#b)"><defs><path id="o" d="M0 0h167v160H0z"/></defs><clipPath id="p"><use xlink:href="#o" overflow="visible"/></clipPath><g clip-path="url(#p)"><defs><path id="q" d="M7 7h153v146H7z"/></defs><clipPath id="r"><use xlink:href="#q" overflow="visible"/></clipPath><path clip-path="url(#r)" fill="#CCC" d="M155 70c-2.3-3.3-4.9-7-6.3-11.2-1.4-4.3-1.5-9-1.6-13.1-.1-4.4-.2-8.5-1.7-10.6-1.6-2.1-5.5-3.5-9.7-4.9-3.9-1.3-8.3-2.9-11.9-5.5-3.6-2.6-6.4-6.3-8.8-9.6-2.7-3.6-5.2-6.9-7.8-7.8-.5-.2-1.1-.2-1.8-.2-2.4 0-5.4.9-8.7 1.9-4 1.2-8.5 2.6-13.2 2.6-4.7 0-9.2-1.4-13.2-2.6-3.2-1.1-6.3-2-8.7-2-.7 0-1.3.1-1.8.2-2.6.8-5.1 4.2-7.8 7.8-2.4 3.3-5.2 6.9-8.8 9.6-3.7 2.7-8.1 4.2-11.9 5.5-4.2 1.4-8.1 2.8-9.7 4.9-1.5 2.1-1.6 6.3-1.7 10.7-.1 4.1-.2 8.8-1.6 13.1-1.3 4.2-4 8-6.3 11.2-2.5 3.5-5 7.1-5 10 0 2.8 2.6 6.5 5 10 2.3 3.3 4.9 7 6.3 11.2 1.4 4.3 1.5 9 1.6 13.2.1 4.4.2 8.5 1.7 10.6 1.6 2.1 5.5 3.5 9.7 4.9 3.9 1.3 8.3 2.9 11.9 5.5 3.6 2.6 6.4 6.3 8.8 9.6 2.7 3.6 5.2 6.9 7.8 7.8.5.2 1.1.2 1.8.2 2.4 0 5.4-.9 8.7-1.9 4-1.2 8.5-2.6 13.2-2.6 4.7 0 9.2 1.4 13.2 2.6 3.2 1 6.3 1.9 8.7 1.9.7 0 1.3-.1 1.8-.2 2.6-.8 5.1-4.2 7.8-7.8 2.4-3.3 5.2-6.9 8.8-9.6 3.7-2.7 8.1-4.2 11.9-5.5 4.2-1.4 8.1-2.8 9.7-4.9 1.5-2.1 1.6-6.2 1.7-10.6.1-4.1.2-8.8 1.6-13.1 1.4-4.2 4-7.9 6.3-11.2 2.5-3.5 5-7.1 5-10 0-2.9-2.6-6.5-5-10.1m-1.7 19.7c-2.3 3.2-4.8 6.9-6.2 10.9-1.4 4.2-1.5 8.8-1.5 12.8-.1 4.3-.2 8.3-1.7 10.4-1.5 2.1-5.4 3.4-9.5 4.8-3.8 1.3-8.1 2.8-11.7 5.4-3.5 2.6-6.2 6.2-8.6 9.3-2.6 3.5-5.1 6.8-7.6 7.6-.5.2-1 .2-1.7.2-2.3 0-5.3-.9-8.5-1.9-3.9-1.2-8.3-2.5-12.9-2.5s-9 1.3-12.9 2.5c-3.2 1-6.2 1.9-8.5 1.9-.7 0-1.2-.1-1.7-.2-2.5-.8-5-4.1-7.6-7.6-2.4-3.2-5.1-6.8-8.6-9.4-3.6-2.6-7.9-4.1-11.7-5.4-4.1-1.4-7.9-2.7-9.5-4.8-1.5-2-1.6-6.1-1.6-10.4-.1-4-.2-8.6-1.5-12.8-1.3-4.1-3.9-7.7-6.1-10.9-2.4-3.4-4.9-7-4.9-9.7 0-2.8 2.5-6.3 4.9-9.7 2.3-3.2 4.8-6.9 6.2-10.9 1.4-4.2 1.5-8.8 1.5-12.8.1-4.3.2-8.3 1.6-10.4 1.5-2.1 5.4-3.4 9.5-4.8 3.8-1.3 8.1-2.8 11.7-5.4 3.5-2.6 6.2-6.2 8.6-9.4 2.6-3.5 5.1-6.8 7.6-7.6.5-.2 1-.2 1.7-.2 2.3 0 5.3.9 8.5 1.9 3.9 1.2 8.3 2.5 12.9 2.5s9-1.3 12.9-2.5c3.2-1 6.2-1.9 8.5-1.9.7 0 1.2.1 1.7.2 2.5.8 5 4.1 7.6 7.6 2.4 3.2 5.1 6.8 8.6 9.4 3.6 2.6 7.9 4.1 11.7 5.4 4.1 1.4 7.9 2.7 9.5 4.8 1.5 2.1 1.6 6.1 1.7 10.4.1 4 .2 8.6 1.5 12.8 1.3 4.1 3.9 7.7 6.2 10.9 2.4 3.4 4.9 7 4.9 9.7s-2.6 6.4-5 9.8"/></g></g><g clip-path="url(#b)"><defs><path id="s" d="M96.4 10.6c-3.9 1.2-8.3 2.5-12.9 2.5s-9-1.3-12.9-2.5c-3.2-1-6.2-1.9-8.5-1.9-.7 0-1.2.1-1.7.2-2.5.8-5 4.1-7.6 7.6-2.4 3.2-5.1 6.8-8.6 9.4-3.6 2.6-7.9 4.1-11.7 5.4-4.1 1.4-7.9 2.7-9.5 4.8-1.5 2.1-1.6 6.1-1.6 10.4-.1 4-.2 8.6-1.5 12.8-1.3 4.1-3.9 7.7-6.2 10.9-2.4 3.4-4.9 7-4.9 9.7 0 2.8 2.5 6.3 4.9 9.7 2.3 3.2 4.8 6.8 6.1 10.9 1.4 4.2 1.5 8.8 1.5 12.8.1 4.3.2 8.3 1.6 10.4 1.5 2.1 5.4 3.4 9.5 4.8 3.8 1.3 8.1 2.8 11.7 5.4 3.5 2.6 6.2 6.2 8.6 9.4 2.6 3.5 5.1 6.8 7.6 7.6.5.2 1 .2 1.7.2 2.3 0 5.3-.9 8.5-1.9 3.9-1.2 8.3-2.5 12.9-2.5s9 1.3 12.9 2.5c3.2 1 6.2 1.9 8.5 1.9.7 0 1.2-.1 1.7-.2 2.5-.8 5-4.1 7.6-7.6 2.4-3.2 5.1-6.8 8.6-9.3 3.6-2.6 7.9-4.1 11.7-5.4 4.1-1.4 7.9-2.7 9.5-4.8 1.5-2.1 1.6-6.1 1.7-10.4.1-4 .2-8.6 1.5-12.8 1.3-4.1 3.9-7.7 6.2-10.9 2.4-3.4 4.9-7 4.9-9.7s-2.5-6.3-4.9-9.7c-2.3-3.2-4.8-6.8-6.2-10.9-1.4-4.2-1.5-8.8-1.5-12.8-.1-4.3-.2-8.3-1.7-10.4-1.5-2.1-5.4-3.4-9.5-4.8-3.8-1.3-8.1-2.8-11.7-5.4-3.5-2.6-6.2-6.2-8.6-9.4-2.6-3.5-5.1-6.8-7.6-7.6-.5-.2-1.1-.2-1.7-.2-2.2-.1-5.2.8-8.4 1.8"/></defs><clipPath id="t"><use xlink:href="#s" overflow="visible"/></clipPath><linearGradient id="u" gradientUnits="userSpaceOnUse" y1="160.03" x2="1" y2="160.03" gradientTransform="scale(159.9275 -159.9275) rotate(-60 -138.512 79.746)"><stop offset="0" stop-color="#b1b1b1"/><stop offset=".24" stop-color="#e1e1e1"/><stop offset=".363" stop-color="#bdbdbd"/><stop offset=".49" stop-color="#9d9d9d"/><stop offset=".561" stop-color="#919191"/><stop offset=".633" stop-color="#999"/><stop offset=".744" stop-color="#afafaf"/><stop offset=".871" stop-color="#d0d0d0"/><stop offset=".971" stop-color="#a7a7a7"/><stop offset="1" stop-color="#a7a7a7"/></linearGradient><path clip-path="url(#t)" fill="url(#u)" d="M120.8-55.9l99.1 171.6L46.2 216-52.9 44.4z"/></g><g clip-path="url(#b)"><defs><path id="v" d="M96.7 8.9c3.3-1 6.3-1.9 8.7-1.9.7 0 1.3.1 1.8.2 2.6.8 5.1 4.2 7.8 7.8 2.4 3.3 5.2 7 8.8 9.6 3.7 2.7 8.1 4.2 11.9 5.5 4.2 1.4 8.1 2.8 9.7 4.9 1.5 2.1 1.6 6.2 1.7 10.6.1 4.1.2 8.8 1.6 13.1 1.4 4.2 4 7.9 6.3 11.2 2.5 3.5 5 7.1 5 10s-2.6 6.5-5 10c-2.3 3.3-4.9 7-6.3 11.2-1.4 4.3-1.5 9-1.6 13.1-.1 4.4-.2 8.5-1.7 10.6-1.6 2.1-5.5 3.5-9.7 4.9-3.9 1.3-8.3 2.9-11.9 5.5-3.6 2.6-6.4 6.3-8.8 9.6-2.7 3.6-5.2 6.9-7.8 7.8-.5.2-1.1.2-1.8.2-2.4 0-5.4-.9-8.7-1.9-4-1.2-8.5-2.6-13.2-2.6s-9.2 1.4-13.2 2.6c-3.3 1-6.3 1.9-8.7 1.9-.7 0-1.3-.1-1.8-.2-2.6-.8-5.1-4.2-7.8-7.8-2.4-3.3-5.2-7-8.8-9.6-3.7-2.7-8.1-4.2-11.9-5.5-4.2-1.4-8.1-2.8-9.7-4.9-1.5-2.1-1.6-6.2-1.7-10.6-.1-4.1-.2-8.8-1.6-13.2-1.3-4-3.9-7.7-6.3-11-2.5-3.5-5-7.1-5-10 0-2.8 2.6-6.5 5-10 2.3-3.3 4.9-7 6.3-11.2 1.4-4.3 1.5-9 1.6-13.1.1-4.4.2-8.6 1.7-10.7 1.6-2.2 5.5-3.5 9.7-4.9 3.9-1.3 8.3-2.9 11.9-5.5 3.6-2.6 6.4-6.3 8.8-9.6 2.7-3.6 5.2-6.9 7.8-7.8.5-.1 1.1-.2 1.8-.2 2.4 0 5.4.9 8.7 1.9 4 1.2 8.5 2.6 13.2 2.6s9.2-1.4 13.2-2.6M58.3 2.5c-4.1 1.3-7.1 5.3-10.2 9.5-2.3 3.1-4.8 6.3-7.8 8.5-3.1 2.2-6.9 3.5-10.6 4.8-4.9 1.7-9.6 3.3-12.1 6.7-2.5 3.4-2.6 8.3-2.7 13.5-.1 4-.2 8.1-1.3 11.7-1.1 3.5-3.4 6.7-5.6 9.9-3 4.2-6 8.5-6 12.9s3 8.7 5.9 12.9c2.2 3.1 4.5 6.4 5.6 9.9 1.2 3.6 1.3 7.7 1.3 11.7.1 5.2.2 10.1 2.6 13.5 2.5 3.4 7.2 5 12.1 6.7 3.7 1.3 7.6 2.6 10.6 4.8 3 2.2 5.4 5.4 7.8 8.5 3.2 4.2 6.1 8.2 10.2 9.5 1 .3 2.1.5 3.3.5 3.1 0 6.5-1 10.2-2.1 3.8-1.2 7.8-2.4 11.7-2.4 3.9 0 7.9 1.2 11.7 2.4 3.6 1.1 7 2.1 10.1 2.1 1.2 0 2.3-.2 3.3-.5 4.1-1.3 7.1-5.3 10.2-9.5 2.3-3.1 4.8-6.3 7.8-8.5 3.1-2.2 6.9-3.6 10.6-4.8 4.9-1.7 9.6-3.3 12.1-6.7 2.5-3.4 2.5-8.3 2.7-13.5.1-4 .1-8.1 1.3-11.7 1.1-3.5 3.4-6.7 5.6-9.9 2.9-4.1 5.9-8.4 5.9-12.8s-3-8.7-5.9-12.9c-2.2-3.1-4.5-6.4-5.6-9.9-1.2-3.6-1.3-7.7-1.3-11.7-.1-5.2-.2-10.1-2.7-13.5-2.5-3.4-7.2-5-12.1-6.7-3.7-1.3-7.6-2.6-10.6-4.8-3-2.2-5.4-5.4-7.8-8.5-3.2-4.2-6.1-8.2-10.2-9.5-1-.3-2.1-.5-3.3-.5-3.1 0-6.5 1-10.2 2.1-3.8 1.2-7.8 2.4-11.7 2.4-3.9 0-7.9-1.2-11.7-2.4C68.1 3 64.7 2 61.6 2c-1.2 0-2.3.2-3.3.5"/></defs><clipPath id="w"><use xlink:href="#v" overflow="visible"/></clipPath><linearGradient id="x" gradientUnits="userSpaceOnUse" y1="160.03" x2="1" y2="160.03" gradientTransform="scale(162.66 -162.66) rotate(32 280.41 79.792)"><stop offset="0" stop-color="#b1b1b1"/><stop offset=".24" stop-color="#fff"/><stop offset=".341" stop-color="#d6d6d6"/><stop offset=".438" stop-color="#b5b5b5"/><stop offset=".491" stop-color="#a9a9a9"/><stop offset=".69" stop-color="#919191"/><stop offset=".755" stop-color="#959595"/><stop offset=".822" stop-color="#a2a2a2"/><stop offset=".891" stop-color="#b7b7b7"/><stop offset=".96" stop-color="#d4d4d4"/><stop offset="1" stop-color="#e8e8e8"/></linearGradient><path clip-path="url(#w)" fill="url(#x)" d="M-68.1 45.8L119.2-71.3l115.9 185.5L47.8 231.3z"/></g><g clip-path="url(#b)"><defs><path id="y" d="M0 0h167v160H0z"/></defs><clipPath id="z"><use xlink:href="#y" overflow="visible"/></clipPath><g clip-path="url(#z)"><defs><path id="A" d="M7.2 7.4h153v146H7.2z"/></defs><clipPath id="B"><use xlink:href="#A" overflow="visible"/></clipPath><path clip-path="url(#B)" fill="#BABABA" d="M155.2 70.4c-2.3-3.3-4.9-7-6.3-11.2-1.4-4.3-1.5-9-1.6-13.1-.1-4.4-.2-8.5-1.7-10.6-1.6-2.1-5.5-3.5-9.7-4.9-3.9-1.3-8.3-2.9-11.9-5.5-3.6-2.6-6.4-6.3-8.8-9.6-2.7-3.6-5.2-6.9-7.8-7.8-.5-.2-1.1-.2-1.8-.2-2.4 0-5.4.9-8.7 1.9-4 1.2-8.5 2.6-13.2 2.6-4.7 0-9.2-1.4-13.2-2.6-3.3-1-6.3-1.9-8.7-1.9-.7 0-1.3.1-1.8.2-2.6.8-5.1 4.2-7.8 7.8-2.4 3.3-5.2 6.9-8.8 9.6-3.7 2.7-8.1 4.2-11.9 5.5-4.2 1.4-8.1 2.8-9.7 4.9-1.5 2.1-1.6 6.3-1.7 10.7-.1 4.1-.2 8.8-1.6 13.1-1.4 4.2-4 7.9-6.3 11.2-2.5 3.5-5 7.1-5 10 0 2.8 2.6 6.5 5 10 2.3 3.3 4.9 7 6.3 11.2 1.4 4.3 1.5 9 1.6 13.2.1 4.4.2 8.5 1.7 10.6 1.6 2.1 5.5 3.5 9.7 4.9 3.9 1.3 8.3 2.9 11.9 5.5 3.6 2.6 6.4 6.3 8.8 9.6 2.7 3.6 5.2 6.9 7.8 7.8.5.2 1.1.2 1.8.2 2.4 0 5.4-.9 8.7-1.9 4-1.2 8.5-2.6 13.2-2.6 4.7 0 9.2 1.4 13.2 2.6 3.2 1 6.3 1.9 8.7 1.9.7 0 1.3-.1 1.8-.2 2.6-.8 5.1-4.2 7.8-7.8 2.4-3.3 5.2-6.9 8.8-9.6 3.7-2.7 8.1-4.2 11.9-5.5 4.2-1.4 8.1-2.8 9.7-4.9 1.5-2.1 1.6-6.2 1.7-10.6.1-4.1.2-8.8 1.6-13.1 1.4-4.2 4-7.9 6.3-11.2 2.5-3.5 5-7.1 5-10 0-3-2.6-6.6-5-10.2m-1.7 19.7c-2.3 3.2-4.8 6.9-6.2 10.9-1.4 4.2-1.5 8.8-1.5 12.8-.1 4.3-.2 8.3-1.6 10.4-1.5 2.1-5.4 3.4-9.5 4.8-3.8 1.3-8.1 2.8-11.7 5.4-3.5 2.6-6.2 6.2-8.6 9.3-2.6 3.5-5.1 6.8-7.6 7.6-.5.2-1 .2-1.7.2-2.3 0-5.3-.9-8.5-1.9-3.9-1.2-8.3-2.5-12.9-2.5s-9 1.3-12.9 2.5c-3.2 1-6.2 1.9-8.5 1.9-.7 0-1.2-.1-1.7-.2-2.5-.8-5-4.1-7.6-7.6-2.4-3.2-5.1-6.8-8.6-9.4-3.6-2.6-7.9-4.1-11.7-5.4-4.1-1.4-7.9-2.7-9.5-4.8-1.5-2.1-1.6-6.1-1.7-10.4-.1-4-.2-8.6-1.5-12.8-1.3-4.1-3.9-7.7-6.1-10.9-2.4-3.4-4.9-7-4.9-9.7 0-2.8 2.5-6.3 4.9-9.7 2.3-3.2 4.8-6.9 6.2-10.9 1.4-4.2 1.5-8.8 1.5-12.8.1-4.3.2-8.3 1.7-10.4 1.5-2.1 5.4-3.4 9.5-4.8 3.8-1.3 8.1-2.8 11.7-5.4 3.5-2.6 6.2-6.2 8.6-9.4 2.6-3.5 5.1-6.8 7.6-7.6.5-.2 1-.2 1.7-.2 2.3 0 5.3.9 8.5 1.9 3.9 1.2 8.3 2.5 12.9 2.5s9-1.3 12.9-2.5c3.2-1 6.2-1.9 8.5-1.9.7 0 1.2.1 1.7.2 2.5.8 5 4.1 7.6 7.6 2.4 3.2 5.1 6.8 8.6 9.4 3.6 2.6 7.9 4.1 11.7 5.4 4.1 1.4 7.9 2.7 9.5 4.8 1.5 2.1 1.6 6.1 1.6 10.4.1 4 .2 8.6 1.5 12.8 1.3 4.1 3.9 7.7 6.1 10.9 2.4 3.4 4.9 7 4.9 9.7 0 2.9-2.5 6.4-4.9 9.8"/></g><g clip-path="url(#z)"><defs><path id="C" d="M7.2 7.4h153v146H7.2z"/></defs><clipPath id="D"><use xlink:href="#C" overflow="visible"/></clipPath><path clip-path="url(#D)" fill="#BABABA" d="M155.2 70.4c-2.3-3.3-4.9-7-6.3-11.2-1.4-4.3-1.5-9-1.6-13.1-.1-4.4-.2-8.5-1.7-10.6-1.6-2.1-5.5-3.5-9.7-4.9-3.9-1.3-8.3-2.9-11.9-5.5-3.6-2.6-6.4-6.3-8.8-9.6-2.7-3.6-5.2-6.9-7.8-7.8-.5-.2-1.1-.2-1.8-.2-2.4 0-5.4.9-8.7 1.9-4 1.2-8.5 2.6-13.2 2.6-4.7 0-9.2-1.4-13.2-2.6-3.3-1-6.3-1.9-8.7-1.9-.7 0-1.3.1-1.8.2-2.6.8-5.1 4.2-7.8 7.8-2.4 3.3-5.2 6.9-8.8 9.6-3.7 2.7-8.1 4.2-11.9 5.5-4.2 1.4-8.1 2.8-9.7 4.9-1.5 2.1-1.6 6.3-1.7 10.7-.1 4.1-.2 8.8-1.6 13.1-1.4 4.2-4 7.9-6.3 11.2-2.5 3.5-5 7.1-5 10 0 2.8 2.6 6.5 5 10 2.3 3.3 4.9 7 6.3 11.2 1.4 4.3 1.5 9 1.6 13.2.1 4.4.2 8.5 1.7 10.6 1.6 2.1 5.5 3.5 9.7 4.9 3.9 1.3 8.3 2.9 11.9 5.5 3.6 2.6 6.4 6.3 8.8 9.6 2.7 3.6 5.2 6.9 7.8 7.8.5.2 1.1.2 1.8.2 2.4 0 5.4-.9 8.7-1.9 4-1.2 8.5-2.6 13.2-2.6 4.7 0 9.2 1.4 13.2 2.6 3.2 1 6.3 1.9 8.7 1.9.7 0 1.3-.1 1.8-.2 2.6-.8 5.1-4.2 7.8-7.8 2.4-3.3 5.2-6.9 8.8-9.6 3.7-2.7 8.1-4.2 11.9-5.5 4.2-1.4 8.1-2.8 9.7-4.9 1.5-2.1 1.6-6.2 1.7-10.6.1-4.1.2-8.8 1.6-13.1 1.4-4.2 4-7.9 6.3-11.2 2.5-3.5 5-7.1 5-10 0-3-2.6-6.6-5-10.2m-1.7 19.7c-2.3 3.2-4.8 6.9-6.2 10.9-1.4 4.2-1.5 8.8-1.5 12.8-.1 4.3-.2 8.3-1.6 10.4-1.5 2.1-5.4 3.4-9.5 4.8-3.8 1.3-8.1 2.8-11.7 5.4-3.5 2.6-6.2 6.2-8.6 9.3-2.6 3.5-5.1 6.8-7.6 7.6-.5.2-1 .2-1.7.2-2.3 0-5.3-.9-8.5-1.9-3.9-1.2-8.3-2.5-12.9-2.5s-9 1.3-12.9 2.5c-3.2 1-6.2 1.9-8.5 1.9-.7 0-1.2-.1-1.7-.2-2.5-.8-5-4.1-7.6-7.6-2.4-3.2-5.1-6.8-8.6-9.4-3.6-2.6-7.9-4.1-11.7-5.4-4.1-1.4-7.9-2.7-9.5-4.8-1.5-2.1-1.6-6.1-1.7-10.4-.1-4-.2-8.6-1.5-12.8-1.3-4.1-3.9-7.7-6.1-10.9-2.4-3.4-4.9-7-4.9-9.7 0-2.8 2.5-6.3 4.9-9.7 2.3-3.2 4.8-6.9 6.2-10.9 1.4-4.2 1.5-8.8 1.5-12.8.1-4.3.2-8.3 1.7-10.4 1.5-2.1 5.4-3.4 9.5-4.8 3.8-1.3 8.1-2.8 11.7-5.4 3.5-2.6 6.2-6.2 8.6-9.4 2.6-3.5 5.1-6.8 7.6-7.6.5-.2 1-.2 1.7-.2 2.3 0 5.3.9 8.5 1.9 3.9 1.2 8.3 2.5 12.9 2.5s9-1.3 12.9-2.5c3.2-1 6.2-1.9 8.5-1.9.7 0 1.2.1 1.7.2 2.5.8 5 4.1 7.6 7.6 2.4 3.2 5.1 6.8 8.6 9.4 3.6 2.6 7.9 4.1 11.7 5.4 4.1 1.4 7.9 2.7 9.5 4.8 1.5 2.1 1.6 6.1 1.6 10.4.1 4 .2 8.6 1.5 12.8 1.3 4.1 3.9 7.7 6.1 10.9 2.4 3.4 4.9 7 4.9 9.7 0 2.9-2.5 6.4-4.9 9.8"/></g></g><g clip-path="url(#b)"><defs><path id="E" d="M96.4 10.6c3.2-1 6.2-1.9 8.5-1.9.7 0 1.2.1 1.7.2 2.5.8 5 4.1 7.6 7.6 2.4 3.2 5.1 6.8 8.6 9.4 3.6 2.6 7.9 4.1 11.7 5.4 4.1 1.4 7.9 2.7 9.5 4.8 1.5 2.1 1.6 6.1 1.7 10.4.1 4 .2 8.6 1.5 12.8 1.3 4.1 3.9 7.7 6.2 10.9 2.4 3.4 4.9 7 4.9 9.7s-2.5 6.3-4.9 9.7c-2.3 3.2-4.8 6.9-6.2 10.9-1.4 4.2-1.5 8.8-1.5 12.8-.1 4.3-.2 8.3-1.7 10.4-1.5 2.1-5.4 3.4-9.5 4.8-3.8 1.3-8.1 2.8-11.7 5.4-3.5 2.6-6.2 6.2-8.6 9.3-2.6 3.5-5.1 6.8-7.6 7.6-.5.2-1 .2-1.7.2-2.3 0-5.3-.9-8.5-1.9-3.9-1.2-8.3-2.5-12.9-2.5s-9 1.3-12.9 2.5c-3.2 1-6.2 1.9-8.5 1.9-.7 0-1.2-.1-1.7-.2-2.5-.8-5-4.1-7.6-7.6-2.4-3.2-5.1-6.8-8.6-9.4-3.6-2.6-7.9-4.1-11.7-5.4-4.1-1.4-7.9-2.7-9.5-4.8-1.5-2.1-1.6-6.1-1.6-10.4-.1-4-.2-8.6-1.5-12.8-1.3-4.1-3.9-7.7-6.1-10.9-2.4-3.4-4.9-7-4.9-9.7 0-2.8 2.5-6.3 4.9-9.7 2.3-3.2 4.8-6.9 6.2-10.9 1.4-4.2 1.5-8.8 1.5-12.8.1-4.3.2-8.3 1.6-10.4 1.5-2.1 5.4-3.4 9.5-4.8 3.8-1.3 8.1-2.8 11.7-5.4 3.5-2.6 6.2-6.2 8.6-9.4 2.6-3.5 5.1-6.8 7.6-7.6.5-.2 1-.2 1.7-.2 2.3 0 5.3.9 8.5 1.9C74.6 11.7 79 13 83.6 13c4.5.1 8.9-1.2 12.8-2.4m.3-1.7c-4 1.2-8.5 2.6-13.2 2.6s-9.2-1.4-13.2-2.6C67.1 7.9 64 7 61.6 7c-.7 0-1.3.1-1.8.2-2.6.8-5.1 4.2-7.8 7.8-2.4 3.3-5.2 6.9-8.8 9.6-3.7 2.7-8.1 4.2-11.9 5.5-4.2 1.4-8.1 2.8-9.7 4.9-1.5 2.1-1.6 6.3-1.7 10.7-.1 4.1-.2 8.8-1.6 13.1-1.3 4.2-4 8-6.3 11.2-2.5 3.5-5 7.1-5 10 0 2.8 2.6 6.5 5 10 2.3 3.3 4.9 7 6.3 11.2 1.4 4.3 1.5 9 1.6 13.2.1 4.4.2 8.5 1.7 10.6 1.6 2.1 5.5 3.5 9.7 4.9 3.9 1.3 8.3 2.9 11.9 5.5 3.6 2.6 6.4 6.3 8.8 9.6 2.7 3.6 5.2 6.9 7.8 7.8.5.2 1.1.2 1.8.2 2.4 0 5.4-.9 8.7-1.9 4-1.2 8.5-2.6 13.2-2.6s9.2 1.4 13.2 2.6c3.2 1 6.3 1.9 8.7 1.9.7 0 1.3-.1 1.8-.2 2.6-.8 5.1-4.2 7.8-7.8 2.4-3.3 5.2-6.9 8.8-9.6 3.7-2.7 8.1-4.2 11.9-5.5 4.2-1.4 8.1-2.8 9.7-4.9 1.5-2.1 1.6-6.2 1.7-10.6.1-4.1.2-8.8 1.6-13.1 1.4-4.2 4-7.9 6.3-11.2 2.5-3.5 5-7.1 5-10s-2.6-6.5-5-10c-2.3-3.3-4.9-7-6.3-11.2-1.4-4.3-1.5-9-1.6-13.1-.1-4.4-.2-8.5-1.7-10.6-1.6-2.2-5.5-3.5-9.7-4.9-3.9-1.3-8.3-2.9-11.9-5.5-3.6-2.6-6.4-6.3-8.8-9.6-2.7-3.6-5.2-6.9-7.8-7.8-.5-.2-1.1-.2-1.8-.2-2.4-.2-5.4.7-8.7 1.7"/></defs><clipPath id="F"><use xlink:href="#E" overflow="visible"/></clipPath><linearGradient id="G" gradientUnits="userSpaceOnUse" y1="160.03" x2="1" y2="160.03" gradientTransform="matrix(153 0 0 -153 7 24564.606)"><stop offset="0" stop-color="#a7a7a7"/><stop offset=".029" stop-color="#a7a7a7"/><stop offset=".152" stop-color="#d0d0d0"/><stop offset=".479" stop-color="#919191"/><stop offset=".749" stop-color="#d1d1d1"/><stop offset="1" stop-color="#c5c5c5"/></linearGradient><path clip-path="url(#F)" fill="url(#G)" d="M7 7h153v146H7z"/></g><g clip-path="url(#b)"><defs><path id="H" d="M0 0h167v160H0z"/></defs><clipPath id="I"><use xlink:href="#H" overflow="visible"/></clipPath><g clip-path="url(#I)"><defs><path id="J" d="M7 7h153v146H7z"/></defs><clipPath id="K"><use xlink:href="#J" overflow="visible"/></clipPath><path clip-path="url(#K)" fill="#CCC" d="M155 70c-2.3-3.3-4.9-7-6.3-11.2-1.4-4.3-1.5-9-1.6-13.1-.1-4.4-.2-8.5-1.7-10.6-1.6-2.1-5.5-3.5-9.7-4.9-3.9-1.3-8.3-2.9-11.9-5.5-3.6-2.6-6.4-6.3-8.8-9.6-2.7-3.6-5.2-6.9-7.8-7.8-.5-.2-1.1-.2-1.8-.2-2.4 0-5.4.9-8.7 1.9-4 1.2-8.5 2.6-13.2 2.6-4.7 0-9.2-1.4-13.2-2.6-3.2-1.1-6.3-2-8.7-2-.7 0-1.3.1-1.8.2-2.6.8-5.1 4.2-7.8 7.8-2.4 3.3-5.2 6.9-8.8 9.6-3.7 2.7-8.1 4.2-11.9 5.5-4.2 1.4-8.1 2.8-9.7 4.9-1.5 2.1-1.6 6.3-1.7 10.7-.1 4.1-.2 8.8-1.6 13.1-1.3 4.2-4 8-6.3 11.2-2.5 3.5-5 7.1-5 10 0 2.8 2.6 6.5 5 10 2.3 3.3 4.9 7 6.3 11.2 1.4 4.3 1.5 9 1.6 13.2.1 4.4.2 8.5 1.7 10.6 1.6 2.1 5.5 3.5 9.7 4.9 3.9 1.3 8.3 2.9 11.9 5.5 3.6 2.6 6.4 6.3 8.8 9.6 2.7 3.6 5.2 6.9 7.8 7.8.5.2 1.1.2 1.8.2 2.4 0 5.4-.9 8.7-1.9 4-1.2 8.5-2.6 13.2-2.6 4.7 0 9.2 1.4 13.2 2.6 3.2 1 6.3 1.9 8.7 1.9.7 0 1.3-.1 1.8-.2 2.6-.8 5.1-4.2 7.8-7.8 2.4-3.3 5.2-6.9 8.8-9.6 3.7-2.7 8.1-4.2 11.9-5.5 4.2-1.4 8.1-2.8 9.7-4.9 1.5-2.1 1.6-6.2 1.7-10.6.1-4.1.2-8.8 1.6-13.1 1.4-4.2 4-7.9 6.3-11.2 2.5-3.5 5-7.1 5-10 0-2.9-2.6-6.5-5-10.1m-1.7 19.7c-2.3 3.2-4.8 6.9-6.2 10.9-1.4 4.2-1.5 8.8-1.5 12.8-.1 4.3-.2 8.3-1.7 10.4-1.5 2.1-5.4 3.4-9.5 4.8-3.8 1.3-8.1 2.8-11.7 5.4-3.5 2.6-6.2 6.2-8.6 9.3-2.6 3.5-5.1 6.8-7.6 7.6-.5.2-1 .2-1.7.2-2.3 0-5.3-.9-8.5-1.9-3.9-1.2-8.3-2.5-12.9-2.5s-9 1.3-12.9 2.5c-3.2 1-6.2 1.9-8.5 1.9-.7 0-1.2-.1-1.7-.2-2.5-.8-5-4.1-7.6-7.6-2.4-3.2-5.1-6.8-8.6-9.4-3.6-2.6-7.9-4.1-11.7-5.4-4.1-1.4-7.9-2.7-9.5-4.8-1.5-2-1.6-6.1-1.6-10.4-.1-4-.2-8.6-1.5-12.8-1.3-4.1-3.9-7.7-6.1-10.9-2.4-3.4-4.9-7-4.9-9.7 0-2.8 2.5-6.3 4.9-9.7 2.3-3.2 4.8-6.9 6.2-10.9 1.4-4.2 1.5-8.8 1.5-12.8.1-4.3.2-8.3 1.6-10.4 1.5-2.1 5.4-3.4 9.5-4.8 3.8-1.3 8.1-2.8 11.7-5.4 3.5-2.6 6.2-6.2 8.6-9.4 2.6-3.5 5.1-6.8 7.6-7.6.5-.2 1-.2 1.7-.2 2.3 0 5.3.9 8.5 1.9 3.9 1.2 8.3 2.5 12.9 2.5s9-1.3 12.9-2.5c3.2-1 6.2-1.9 8.5-1.9.7 0 1.2.1 1.7.2 2.5.8 5 4.1 7.6 7.6 2.4 3.2 5.1 6.8 8.6 9.4 3.6 2.6 7.9 4.1 11.7 5.4 4.1 1.4 7.9 2.7 9.5 4.8 1.5 2.1 1.6 6.1 1.7 10.4.1 4 .2 8.6 1.5 12.8 1.3 4.1 3.9 7.7 6.2 10.9 2.4 3.4 4.9 7 4.9 9.7s-2.6 6.4-5 9.8"/></g><g clip-path="url(#I)"><defs><path id="L" d="M72.7 38.4h22.2V42H72.7z"/></defs><clipPath id="M"><use xlink:href="#L" overflow="visible"/></clipPath><path clip-path="url(#M)" fill="#A3A3A3" d="M72.7 38.4h22.2V42H72.7z"/></g><g clip-path="url(#I)"><defs><path id="N" d="M72.7 23.8h22.2v13.3H72.7z"/></defs><clipPath id="O"><use xlink:href="#N" overflow="visible"/></clipPath><path clip-path="url(#O)" fill="#A3A3A3" d="M94.9 37.1H72.7V23.8l5.5 6.5 5.5-6.5 5.5 6.5 5.7-6.5z"/></g></g><g clip-path="url(#b)"><defs><path id="P" d="M72.4 37.8h22.2v3.6H72.4z"/></defs><clipPath id="Q"><use xlink:href="#P" overflow="visible"/></clipPath><linearGradient id="R" gradientUnits="userSpaceOnUse" y1="160.03" x2="1" y2="160.03" gradientTransform="matrix(0 -3.5726 -3.5726 0 655.286 41.423)"><stop offset="0" stop-color="#171717"/><stop offset="1" stop-color="#4e4e4e"/></linearGradient><path clip-path="url(#Q)" fill="url(#R)" d="M72.4 37.8h22.2v3.6H72.4z"/></g><g clip-path="url(#b)"><defs><path id="S" d="M89 29.8l-5.6-6.5-5.5 6.5-5.5-6.5v13.3h22.3V23.3z"/></defs><clipPath id="T"><use xlink:href="#S" overflow="visible"/></clipPath><linearGradient id="U" gradientUnits="userSpaceOnUse" y1="160.03" x2="1" y2="160.03" gradientTransform="matrix(0 -13.2667 -13.2667 0 2206.635 36.567)"><stop offset="0" stop-color="#171717"/><stop offset="1" stop-color="#4e4e4e"/></linearGradient><path clip-path="url(#T)" fill="url(#U)" d="M72.4 23.3h22.2v13.3H72.4z"/></g><g clip-path="url(#b)"><defs><path id="V" d="M0 0h167v160H0z"/></defs><clipPath id="W"><use xlink:href="#V" overflow="visible"/></clipPath><g clip-path="url(#W)"><defs><path id="X" d="M72.4 23.3h22.2v18.1H72.4z"/></defs><clipPath id="Y"><use xlink:href="#X" overflow="visible"/></clipPath><path clip-path="url(#Y)" fill="#BABABA" d="M94.7 38.4v-.6H72.4v3.6h.3v-3zm-16.5-8.1l5.5-6.5 5.5 6.5 5.5-6.2v-.8L89 29.8l-5.6-6.5-5.5 6.5-5.5-6.5v13.3h.3V23.8z"/></g><g clip-path="url(#W)"><defs><path id="Z" d="M78.6 130.1h11.3v10.7H78.6z"/></defs><clipPath id="aa"><use xlink:href="#Z" overflow="visible"/></clipPath><path clip-path="url(#aa)" fill="#A3A3A3" d="M84.2 140.8l1.7-3.6 3.9-.5-2.8-2.8.7-3.8-3.5 1.8-3.5-1.8.7 3.8-2.8 2.8 3.9.5z"/></g><g clip-path="url(#W)"><defs><path id="ab" d="M97.3 126.8h9.4v9.5h-9.4z"/></defs><clipPath id="ac"><use xlink:href="#ab" overflow="visible"/></clipPath><path clip-path="url(#ac)" fill="#A3A3A3" d="M103.9 136.4V133l2.8-1.8-3.1-1.1-.9-3.3-2 2.7-3.4-.2 1.9 2.8-1.2 3.1 3.2-.9z"/></g><g clip-path="url(#W)"><defs><path id="ad" d="M61.7 126.8h9.4v9.5h-9.4z"/></defs><clipPath id="ae"><use xlink:href="#ad" overflow="visible"/></clipPath><path clip-path="url(#ae)" fill="#A3A3A3" d="M64.5 136.4V133l-2.8-1.8 3.1-1.1.9-3.3 2 2.7 3.4-.2-1.9 2.8 1.2 3.1-3.2-.9z"/></g></g><g clip-path="url(#b)"><defs><path id="af" d="M83.9 131.4l-3.4-1.9.6 3.9-2.8 2.8 3.9.5 1.7 3.5 1.8-3.5 3.9-.5-2.8-2.8.6-3.9z"/></defs><clipPath id="ag"><use xlink:href="#af" overflow="visible"/></clipPath><linearGradient id="ah" gradientUnits="userSpaceOnUse" y1="160.03" x2="1" y2="160.03" gradientTransform="rotate(90 833.471 963.012) scale(10.7014)"><stop offset="0" stop-color="#999"/><stop offset="1" stop-color="#4e4e4e"/></linearGradient><path clip-path="url(#ag)" fill="url(#ah)" d="M78.3 129.5h11.2v10.7H78.3z"/></g><g clip-path="url(#b)"><defs><path id="ai" d="M100.4 129l-3.4-.2 2 2.8-1.2 3.1 3.2-1 2.6 2.1.1-3.3 2.8-1.9-3.2-1.1-.9-3.2z"/></defs><clipPath id="aj"><use xlink:href="#ai" overflow="visible"/></clipPath><linearGradient id="ak" gradientUnits="userSpaceOnUse" y1="160.03" x2="1" y2="160.03" gradientTransform="rotate(90.001 751.97 878.269) scale(9.5513)"><stop offset="0" stop-color="#999"/><stop offset="1" stop-color="#4e4e4e"/></linearGradient><path clip-path="url(#aj)" fill="url(#ak)" d="M97 126.3h9.4v9.6H97z"/></g><g clip-path="url(#b)"><defs><path id="al" d="M64.6 129.5l-3.2 1.1 2.8 1.9.1 3.3 2.6-2.1 3.2 1-1.2-3.1 1.9-2.8-3.3.2-2-2.7z"/></defs><clipPath id="am"><use xlink:href="#al" overflow="visible"/></clipPath><linearGradient id="an" gradientUnits="userSpaceOnUse" y1="160.03" x2="1" y2="160.03" gradientTransform="scale(9.5513 -9.5513) rotate(-89.999 -83.166 69.942)"><stop offset="0" stop-color="#999"/><stop offset="1" stop-color="#4e4e4e"/></linearGradient><path clip-path="url(#am)" fill="url(#an)" d="M61.4 126.3h9.4v9.6h-9.4z"/></g><g clip-path="url(#b)"><defs><path id="ao" d="M0 0h167v160H0z"/></defs><clipPath id="ap"><use xlink:href="#ao" overflow="visible"/></clipPath><g clip-path="url(#ap)"><defs><path id="aq" d="M61.4 126.3h45.1v14H61.4z"/></defs><clipPath id="ar"><use xlink:href="#aq" overflow="visible"/></clipPath><path clip-path="url(#ar)" fill="#BABABA" d="M82.5 137.2l1.4 3-1.4-3zm6.8-1h.3l-2.5-2.5-.1.2zm-8.6-6.1l3.5 1.8 3.1-1.6.1-.8-3.5 1.9-3.4-1.9.6 3.9-2.8 2.8.7.1 2.4-2.4zm21.9-3.2l-.2-.6-2 2.7-3.4-.2.4.5 3.3.2zm3.5 4l.4-.3-3.1-1 .2.5zm-7.2.8l-1.1 3 .5-.2.9-2.4zm-33.2-4.9l2 2.7 2.8-.1.3-.6-3.3.2-2-2.7-.9 3.2-3.2 1.1.6.4 2.8-.9zm-1.5 6l.1 3 .2-.1V133z"/></g><g clip-path="url(#ap)"><defs><path id="as" d="M69.2 128.8h1.7v2.3h-1.7z"/></defs><clipPath id="at"><use xlink:href="#as" overflow="visible"/></clipPath><path clip-path="url(#at)" fill="#BABABA" d="M70.7 128.8h.1l-1.6 2.3v-.1z"/></g><g clip-path="url(#ap)"><defs><path id="au" d="M45.3 27h78.1v23.4H45.3z"/></defs><clipPath id="av"><use xlink:href="#au" overflow="visible"/></clipPath><path clip-path="url(#av)" fill="#A3A3A3" d="M54.1 50.4c-.1 0-.2 0-.3-.1-.3-.2-.4-.6-.3-.9 3.2-6 8.1-10.8 14-14.1.3-.2.7-.1.9.3.2.3.1.7-.3.9-5.7 3.1-10.4 7.8-13.5 13.6-.1.2-.3.3-.5.3m60.5 0c-.2 0-.5-.1-.6-.3-3.1-5.7-7.8-10.4-13.5-13.6-.3-.2-.4-.6-.3-.9.2-.3.6-.4.9-.3 5.9 3.3 10.8 8.1 14 14.1.2.3 0 .7-.3.9 0 .1-.1.1-.2.1"/><path clip-path="url(#av)" fill="#A3A3A3" d="M50 50.4c-.1 0-.2 0-.3-.1-.3-.2-.5-.5-.3-.9 3.8-8 10.2-14.4 18.2-18.3.3-.2.7 0 .9.3.2.3 0 .7-.3.9-7.7 3.7-13.9 10-17.6 17.6-.2.4-.4.5-.6.5m68.7 0c-.2 0-.5-.1-.6-.4-3.7-7.7-9.9-14-17.6-17.6-.3-.2-.5-.6-.3-.9.2-.3.6-.5.9-.3 7.9 3.8 14.4 10.3 18.2 18.3.2.3 0 .7-.3.9h-.3"/><path clip-path="url(#av)" fill="#A3A3A3" d="M45.9 50.4h-.3c-.3-.1-.5-.5-.3-.9 4.3-10.1 12.2-18 22.2-22.3.3-.1.7 0 .9.3.1.3 0 .7-.3.9-9.8 4.2-17.4 11.9-21.6 21.6-.1.3-.3.4-.6.4m76.8 0c-.3 0-.5-.1-.6-.4-4.1-9.7-12.1-17.7-21.8-21.8-.3-.1-.5-.5-.4-.9.1-.3.5-.5.9-.3 10 4.2 18.2 12.4 22.5 22.5.1.3 0 .7-.3.9h-.3"/></g></g><g clip-path="url(#b)"><defs><path id="aw" d="M67.2 34.8c-5.9 3.3-10.8 8.1-14 14.1-.2.3-.1.7.3.9.1 0 .2.1.3.1.2 0 .5-.1.6-.3 3.1-5.7 7.8-10.4 13.5-13.6.3-.2.4-.6.3-.9-.1-.2-.3-.3-.6-.3h-.4"/></defs><clipPath id="ax"><use xlink:href="#aw" overflow="visible"/></clipPath><linearGradient id="ay" gradientUnits="userSpaceOnUse" y1="160.03" x2="1" y2="160.03" gradientTransform="matrix(0 -15.1372 -15.1372 0 2483.091 49.889)"><stop offset="0" stop-color="#4e4e4e"/><stop offset="1" stop-color="#999"/></linearGradient><path clip-path="url(#ax)" fill="url(#ay)" d="M53.1 34.8h15.2v15.1H53.1z"/></g><g clip-path="url(#b)"><defs><path id="az" d="M100 35.1c-.2.3-.1.7.3.9 5.7 3.1 10.4 7.8 13.5 13.6.1.2.3.3.6.3.1 0 .2 0 .3-.1.3-.2.4-.6.3-.9-3.2-6-8.1-10.8-14-14.1-.1-.1-.2-.1-.3-.1-.3.1-.6.2-.7.4"/></defs><clipPath id="aA"><use xlink:href="#az" overflow="visible"/></clipPath><linearGradient id="aB" gradientUnits="userSpaceOnUse" y1="160.03" x2="1" y2="160.03" gradientTransform="matrix(0 -15.1268 -15.1268 0 2528.207 49.879)"><stop offset="0" stop-color="#4e4e4e"/><stop offset="1" stop-color="#999"/></linearGradient><path clip-path="url(#aA)" fill="url(#aB)" d="M99.8 34.8H115v15.1H99.8z"/></g><g clip-path="url(#b)"><defs><path id="aC" d="M67.3 30.7C59.3 34.5 52.9 41 49.1 49c-.2.3 0 .7.3.9.1 0 .2.1.3.1.2 0 .5-.1.6-.4 3.7-7.7 9.9-14 17.6-17.7.3-.1.5-.5.3-.9-.1-.2-.3-.4-.6-.4-.1 0-.2 0-.3.1"/></defs><clipPath id="aD"><use xlink:href="#aC" overflow="visible"/></clipPath><linearGradient id="aE" gradientUnits="userSpaceOnUse" y1="160.03" x2="1" y2="160.03" gradientTransform="matrix(0 -19.2648 -19.2648 0 3141.574 49.889)"><stop offset="0" stop-color="#4e4e4e"/><stop offset="1" stop-color="#999"/></linearGradient><path clip-path="url(#aD)" fill="url(#aE)" d="M48.9 30.6h19.4v19.3H48.9z"/></g><g clip-path="url(#b)"><defs><path id="aF" d="M100 31c-.2.3 0 .7.3.9 7.7 3.7 13.9 10 17.6 17.7.1.2.3.4.6.4.1 0 .2 0 .3-.1.3-.1.5-.5.3-.9-3.8-8-10.2-14.5-18.2-18.3-.1 0-.2-.1-.3-.1-.3 0-.5.2-.6.4"/></defs><clipPath id="aG"><use xlink:href="#aF" overflow="visible"/></clipPath><linearGradient id="aH" gradientUnits="userSpaceOnUse" y1="160.03" x2="1" y2="160.03" gradientTransform="matrix(0 -19.2648 -19.2648 0 3192.466 49.889)"><stop offset="0" stop-color="#4e4e4e"/><stop offset="1" stop-color="#999"/></linearGradient><path clip-path="url(#aG)" fill="url(#aH)" d="M99.8 30.6h19.4v19.3H99.8z"/></g><g clip-path="url(#b)"><defs><path id="aI" d="M67.3 26.6C57.2 31 49.3 38.9 45.1 49c-.1.3 0 .7.3.8.1 0 .2.1.3.1.3 0 .5-.1.6-.4 4.2-9.8 11.8-17.5 21.6-21.7.3-.1.5-.5.3-.9-.1-.2-.3-.4-.6-.4-.1.1-.2.1-.3.1"/></defs><clipPath id="aJ"><use xlink:href="#aI" overflow="visible"/></clipPath><linearGradient id="aK" gradientUnits="userSpaceOnUse" y1="160.03" x2="1" y2="160.03" gradientTransform="matrix(0 -23.3048 -23.3048 0 3786.074 49.889)"><stop offset="0" stop-color="#4e4e4e"/><stop offset="1" stop-color="#999"/></linearGradient><path clip-path="url(#aJ)" fill="url(#aK)" d="M44.9 26.6h23.4v23.3H44.9z"/></g><g clip-path="url(#b)"><defs><path id="aL" d="M99.7 26.9c-.1.3 0 .7.3.8 9.7 4.1 17.7 12 21.8 21.8.1.3.3.4.6.4.1 0 .2 0 .2-.1.3-.1.5-.5.4-.8-4.3-10-12.5-18.2-22.5-22.5h-.2c-.2 0-.5.1-.6.4"/></defs><clipPath id="aM"><use xlink:href="#aL" overflow="visible"/></clipPath><linearGradient id="aN" gradientUnits="userSpaceOnUse" y1="160.03" x2="1" y2="160.03" gradientTransform="matrix(0 -23.4259 -23.4259 0 3860.248 49.889)"><stop offset="0" stop-color="#4e4e4e"/><stop offset="1" stop-color="#999"/></linearGradient><path clip-path="url(#aM)" fill="url(#aN)" d="M99.6 26.5h23.7v23.4H99.6z"/></g><g clip-path="url(#b)"><defs><path id="aO" d="M0 0h167v160H0z"/></defs><clipPath id="aP"><use xlink:href="#aO" overflow="visible"/></clipPath><g clip-path="url(#aP)"><defs><path id="aQ" d="M45 26.5h77.3v23.3H45z"/></defs><clipPath id="aR"><use xlink:href="#aQ" overflow="visible"/></clipPath><path clip-path="url(#aR)" fill="#BABABA" d="M53.5 49.4c3.2-6 8.1-10.8 14-14.1.2-.1.5-.1.7 0 0-.1 0-.2-.1-.3-.2-.3-.6-.4-.9-.3-5.9 3.3-10.8 8.1-14 14.1-.1.3-.1.6.2.8 0 0 0-.1.1-.2m46.8-13.8c.2-.3.6-.4.9-.3 5.8 3.2 10.6 7.9 13.8 13.7v-.2c-3.2-6-8.1-10.8-14-14.1-.3-.2-.7-.1-.9.3-.2.3-.1.6.2.8-.1 0-.1-.1 0-.2"/><path clip-path="url(#aR)" fill="#BABABA" d="M49.4 49.5c3.8-8 10.2-14.4 18.2-18.3.2-.1.5-.1.7.1 0-.1 0-.2-.1-.3-.2-.3-.5-.5-.9-.3-8 3.8-14.4 10.3-18.2 18.3-.1.3 0 .6.2.8 0-.2 0-.2.1-.3m50.9-18c.2-.3.6-.5.9-.3 7.8 3.7 14.1 10.1 17.9 17.8-3.8-8-10.2-14.5-18.2-18.3-.3-.2-.7 0-.9.3-.1.3 0 .6.2.8 0-.1 0-.2.1-.3"/><path clip-path="url(#aR)" fill="#BABABA" d="M67.6 27.2c.2-.1.5 0 .6.1 0-.1 0-.2-.1-.3-.1-.3-.5-.5-.9-.3C57.2 31 49.3 38.9 45.1 49c-.1.3 0 .6.2.8 0-.1 0-.2.1-.2 4.2-10.2 12.1-18.1 22.2-22.4m54.3 22.3c-.2-.5-.5-1.1-.8-1.7.3.6.5 1.1.8 1.7M100.8 27c9.3 3.9 17 11.2 21.5 20.2-4.4-9.2-12.3-16.7-21.7-20.7-.3-.1-.7 0-.9.4-.1.3 0 .6.2.8v-.2c.2-.4.6-.6.9-.5"/></g></g><g clip-path="url(#b)"><defs><path id="aS" d="M59.4 55.7c-1.8 1.1-3.2 2.6-4.2 4.3-1 1.7-1.5 3.4-1.5 4.9 0 1.1.3 2.2.9 3 .6.9 1.3 1.6 2.1 2.2s1.9 1.3 3.3 2.2c1.4.8 2.5 1.5 3.3 2.1.8.6 1.5 1.3 2.1 2.1.5.8.8 1.8.8 2.9 0 1.3-.4 2.3-1.1 3.2-.7.9-1.7 1.6-2.8 2-1.2.5-2.4.7-3.7.7-2 0-3.6-.5-4.7-1.6s-1.6-2.5-1.6-4.1c0-1 .2-1.9.6-2.9.4-1 .9-1.8 1.7-2.6-1.4 0-2.6.4-3.6 1.3-1.1.9-1.6 2.3-1.6 4.2 0 1.6.4 2.9 1.2 4 .8 1.1 1.8 1.9 3.1 2.5 1.3.5 2.7.8 4.3.8 1.7 0 3.4-.3 5.1-1 1.6-.7 3-1.7 4-3 1.1-1.3 1.6-2.9 1.6-4.7 0-1.4-.3-2.6-1-3.6-.6-1-1.4-1.9-2.3-2.5-.9-.7-2.1-1.4-3.6-2.3-1.2-.7-2.2-1.3-2.9-1.8-.7-.5-1.3-1.1-1.8-1.8s-.7-1.5-.7-2.3c0-1.2.4-2.5 1.2-3.9.8-1.4 1.9-2.6 3.3-3.6s2.9-1.5 4.5-1.5c.8 0 1.4.2 1.8.5.3.3.5.7.5 1.3 0 .5-.1 1.1-.3 1.8-.2.7-.5 1.5-.9 2.6-.4 1-.7 1.8-.9 2.5-.2.7-.3 1.2-.3 1.8 0 1 .5 1.6 1.4 1.8.8-1.3 1.5-2.7 2.2-4.4.7-1.7 1-3.2 1-4.6 0-1.3-.3-2.3-1-3-.9-.8-2-1.2-3.5-1.2-2.2 0-4.2.6-6 1.7"/></defs><clipPath id="aT"><use xlink:href="#aS" overflow="visible"/></clipPath><linearGradient id="aU" gradientUnits="userSpaceOnUse" y1="160.032" x2="1" y2="160.032" gradientTransform="scale(-26.743 26.743) rotate(87.811 80.976 79.84)"><stop offset="0" stop-color="#a7a7a7"/><stop offset=".029" stop-color="#a7a7a7"/><stop offset=".152" stop-color="#d0d0d0"/><stop offset=".479" stop-color="#919191"/><stop offset=".749" stop-color="#d1d1d1"/><stop offset="1" stop-color="#c5c5c5"/></linearGradient><path clip-path="url(#aT)" fill="url(#aU)" d="M71 54l-1.3 33.9L48 87l1.3-33.8z"/></g><g clip-path="url(#b)"><defs><path id="aV" d="M76.6 71.5c-1.8 1.4-3.2 3.1-4.4 5.1-1.2 2-1.7 3.8-1.7 5.4 0 1.1.3 1.9.8 2.5.6.6 1.3.9 2.2.9 1 0 1.9-.4 2.9-1.1 1-.8 2.1-2 3.3-3.6-.1.4-.1.8-.1 1.2 0 .8.3 1.5.8 2 .5.6 1.2.8 2.2.8 1 0 2-.3 3-.9 1-.6 2-1.5 2.9-2.6.9-1.1 1.6-2.4 2.2-3.9l-.4-.4c-1.2 2-2.4 3.6-3.6 4.8-1.2 1.1-2.2 1.7-3 1.7-.5 0-.8-.2-1-.6-.2-.4-.3-.8-.3-1.3s.1-1.1.4-1.7c.3-.6.6-1.3 1.1-2.1.1-.1.2-.4.5-.8.3-.5.4-.8.4-1 0-.3-.2-.5-.6-.7-.4-.2-.7-.3-1.1-.3-1.7 2.5-3.3 4.6-4.8 6.3-1.5 1.7-2.8 2.6-3.9 2.6-.7 0-1.1-.5-1.1-1.6 0-1.3.4-2.9 1.3-4.8s2-3.5 3.3-4.8c1.3-1.3 2.6-2 3.8-2 .7 0 1.2.2 1.5.6.3.4.5 1 .5 1.7 0 .5-.1.9-.2 1.4.6 0 1.1-.1 1.5-.4.4-.3.5-.7.5-1.4 0-.9-.4-1.6-1.1-2.2-.7-.6-1.6-.9-2.7-.9-1.6.1-3.3.8-5.1 2.1"/></defs><clipPath id="aW"><use xlink:href="#aV" overflow="visible"/></clipPath><linearGradient id="aX" gradientUnits="userSpaceOnUse" y1="160.027" x2="1" y2="160.027" gradientTransform="scale(-26.743 26.743) rotate(87.811 80.56 79.44)"><stop offset="0" stop-color="#a7a7a7"/><stop offset=".029" stop-color="#a7a7a7"/><stop offset=".152" stop-color="#d0d0d0"/><stop offset=".479" stop-color="#919191"/><stop offset=".749" stop-color="#d1d1d1"/><stop offset="1" stop-color="#c5c5c5"/></linearGradient><path clip-path="url(#aW)" fill="url(#aX)" d="M91.2 69.5l-.6 16.7-20.8-.8.7-16.7z"/></g><g clip-path="url(#b)"><defs><path id="aY" d="M89.4 92.5c-.1-.3-.2-.8-.2-1.5 0-1.4.3-3.4 1-6.1.7-2.7 1.5-5.6 2.6-8.7.5 1 .9 1.9 1.1 2.5.2.7.3 1.4.3 2.3 0 1.4-.2 3-.7 4.9-.5 1.9-1.1 3.5-1.7 4.9-.8 1.5-1.4 2.2-1.9 2.2-.2 0-.4-.1-.5-.5m10.3-32.2c1.4-2.4 2.7-3.5 3.7-3.5.4 0 .6.2.6.6 0 .6-.4 1.5-1.1 2.8-.7 1.3-1.8 2.8-3.1 4.5-1.3 1.7-2.8 3.3-4.5 4.8 1.5-3.8 2.9-6.8 4.4-9.2m-2.8 1c-2.7 4.9-5.1 10.4-7.2 16.5-2 6.2-3.1 10.7-3.1 13.6 0 1.3.2 2.3.7 2.8.5.5 1 .8 1.6.8 1 0 2-.7 3-2.2 1-1.4 1.8-3.3 2.4-5.5.6-2.2.9-4.5.9-6.7.5.4 1 .7 1.5 1 .5.2 1 .4 1.5.4.9 0 1.9-.4 2.9-1.2s1.8-2 2.5-3.5l-.6-.4c-.8 1.4-1.6 2.4-2.2 3.1-.6.6-1.4.9-2.3.9-.8 0-1.5-.3-1.9-.8-.5-.5-.8-1.2-1-2.1-.2-.8-.4-2-.7-3.6-.1-.3-.2-.6-.3-.8-.2-.3-.4-.4-.7-.5.3-.9.6-1.6.8-2.1 1.8-1.2 3.5-2.8 5.2-4.6s3.1-3.7 4.1-5.6c1.1-1.9 1.6-3.6 1.6-5.1 0-.6-.1-1-.3-1.3-.2-.3-.6-.5-1.1-.5-2.1.1-4.6 2.5-7.3 7.4"/></defs><clipPath id="aZ"><use xlink:href="#aY" overflow="visible"/></clipPath><linearGradient id="ba" gradientUnits="userSpaceOnUse" y1="160.031" x2="1" y2="160.031" gradientTransform="scale(-26.743 26.743) rotate(87.811 80.262 79.154)"><stop offset="0" stop-color="#a7a7a7"/><stop offset=".029" stop-color="#a7a7a7"/><stop offset=".152" stop-color="#d0d0d0"/><stop offset=".479" stop-color="#919191"/><stop offset=".749" stop-color="#d1d1d1"/><stop offset="1" stop-color="#c5c5c5"/></linearGradient><path clip-path="url(#aZ)" fill="url(#ba)" d="M107.1 54.1l-1.6 41.6-20.5-.8 1.6-41.6z"/></g><g clip-path="url(#b)"><defs><path id="bb" d="M106.4 74.5c.8-1.3 1.7-2.4 2.7-3.2 1-.8 1.9-1.3 2.8-1.3.3 0 .6.1.7.2.1.2.2.4.2.7 0 1.1-.4 2.1-1.3 3.1s-2 1.9-3.2 2.6c-1.3.7-2.5 1.3-3.6 1.7.3-1.2.9-2.5 1.7-3.8m.9-3.8c-1.6 1.3-3 2.8-4 4.7-1.1 1.9-1.6 3.6-1.6 5.2 0 1.4.4 2.5 1.3 3.4.9.9 2.1 1.3 3.7 1.3 2.1 0 4-.7 6-2.2 1.9-1.5 3.5-3.4 4.6-5.9l-.5-.4c-1.1 2-2.4 3.8-4.1 5.2-1.7 1.4-3.4 2.1-5 2.1-1.2 0-2-.3-2.5-1s-.7-1.5-.7-2.5c0-.5.1-1 .2-1.5 1.6-.2 3.2-.6 4.8-1.4 1.6-.7 2.9-1.7 3.9-2.8 1-1.2 1.5-2.4 1.5-3.8 0-1.7-.8-2.5-2.5-2.5-1.9.2-3.5.8-5.1 2.1"/></defs><clipPath id="bc"><use xlink:href="#bb" overflow="visible"/></clipPath><linearGradient id="bd" gradientUnits="userSpaceOnUse" y1="160.027" x2="1" y2="160.027" gradientTransform="scale(-26.743 26.743) rotate(87.811 80 78.902)"><stop offset="0" stop-color="#a7a7a7"/><stop offset=".029" stop-color="#a7a7a7"/><stop offset=".152" stop-color="#d0d0d0"/><stop offset=".479" stop-color="#919191"/><stop offset=".749" stop-color="#d1d1d1"/><stop offset="1" stop-color="#c5c5c5"/></linearGradient><path clip-path="url(#bc)" fill="url(#bd)" d="M117.8 68.8l-.7 17.1-16.1-.6.6-17.1z"/></g><g clip-path="url(#b)"><defs><path id="be" d="M57.3 98c1.2 0 2.2.3 3 .9.8.6 1.2 1.5 1.2 2.6s-.4 2-1.1 2.8c-.7.8-1.7 1.4-2.8 1.8-1.1.4-2.3.7-3.5.7 1.2-3.9 2.3-6.9 3.2-8.8m-5.3.8c0 .1.1.2.3.4.2.2.3.2.4.2 0 0 .2-.1.5-.2.9-.5 1.8-.9 2.7-1-1.1 2.4-2 4.7-2.8 6.9-.8 2.1-1.7 5-2.9 8.6-.2.6-.3 1-.3 1.3 0 .3.2.6.5.8.3.2.7.3 1.1.3.2-.6.6-1.9 1.1-3.9.8-3 1.3-4.7 1.4-4.9h.2c.9 0 2-.1 3.4-.4 1.3-.3 2.6-.8 3.7-1.6s1.7-1.9 1.7-3.3c0-.9-.3-1.7-.9-2.4-.6-.7-1.3-1.2-2.2-1.5-.9-.3-1.8-.5-2.8-.5-1.4 0-3.1.4-5.1 1.2"/></defs><clipPath id="bf"><use xlink:href="#be" overflow="visible"/></clipPath><linearGradient id="bg" gradientUnits="userSpaceOnUse" y1="160.025" x2="1" y2="160.025" gradientTransform="scale(-16.5325 16.5325) rotate(87.049 79.433 81.129)"><stop offset="0" stop-color="#a7a7a7"/><stop offset=".029" stop-color="#a7a7a7"/><stop offset=".152" stop-color="#d0d0d0"/><stop offset=".479" stop-color="#919191"/><stop offset=".749" stop-color="#d1d1d1"/><stop offset="1" stop-color="#c5c5c5"/></linearGradient><path clip-path="url(#bf)" fill="url(#bg)" d="M64 97.6l-1 19.2-14-.7 1-19.2z"/></g><g clip-path="url(#b)"><defs><path id="bh" d="M63.4 104.9c-.2.1-.3.3-.4.6-.1.2-.2.5-.2.8 0 .2.1.4.2.6-.5 1.5-1.1 2.9-1.9 4.4l.2.4c.3-.4.6-1.1 1-1.9.4-.8.7-1.7 1.1-2.5.1 0 .2.1.4.3.2.1.4.3.6.6.2.2.3.5.3.9 0 .3-.1.5-.2.8-.1.3-.3.7-.4 1.2-.4 1-.7 1.7-.7 2.3 0 .4.1.8.4 1.1.3.3.7.4 1.2.4.9 0 1.8-.4 2.7-1.2.9-.8 1.6-1.7 2.1-2.8l-.3-.2c-.2.5-.5 1-1 1.5-.4.5-.9 1-1.5 1.4-.5.4-1 .6-1.5.6s-.7-.2-.7-.7c0-.3.2-.9.5-1.6.2-.5.4-1 .5-1.3.1-.3.2-.7.2-1 0-.5-.1-.9-.4-1.3-.3-.3-.6-.7-1.1-1-.3-.2-.5-.4-.6-.5-.1-.1-.2-.3-.2-.4 0-.1.1-.2.1-.4.1-.2.1-.4.1-.4 0-.4-.1-.6-.3-.6.1-.3 0-.2-.2-.1"/></defs><clipPath id="bi"><use xlink:href="#bh" overflow="visible"/></clipPath><linearGradient id="bj" gradientUnits="userSpaceOnUse" y1="160.026" x2="1" y2="160.026" gradientTransform="scale(-16.5325 16.5325) rotate(87.049 79.14 80.85)"><stop offset="0" stop-color="#a7a7a7"/><stop offset=".029" stop-color="#a7a7a7"/><stop offset=".152" stop-color="#d0d0d0"/><stop offset=".479" stop-color="#919191"/><stop offset=".749" stop-color="#d1d1d1"/><stop offset="1" stop-color="#c5c5c5"/></linearGradient><path clip-path="url(#bi)" fill="url(#bj)" d="M70.5 104.7l-.5 10.5-9.3-.5.6-10.4z"/></g><g clip-path="url(#b)"><defs><path id="bk" d="M73.6 110.4c-.1-.4-.2-.9-.2-1.4 0-.4.1-.8.2-1.2.1-.4.3-.6.6-.9.2-.2.4-.3.7-.3.2 0 .4.1.5.3.1.2.2.5.2 1s-.1 1.1-.4 1.7c-.2.6-.6 1.2-1 1.8-.3-.2-.5-.6-.6-1m-.6-3.5c-.4.6-.6 1.3-.6 2 0 .6.1 1.2.4 1.8.2.6.6 1 1 1.4-.4.6-.9 1-1.3 1.3-.4.3-.8.5-1.2.5-.6 0-.8-.4-.8-1.3 0-.4.1-.8.3-1.4.2-.6.4-1.1.7-1.7.3-.5.5-.9.7-1-.2-.1-.3-.1-.5-.1-.4 0-.8.2-1.2.7-.4.5-.8 1-1 1.7-.3.7-.4 1.3-.4 2 0 .6.1 1.1.4 1.5.3.4.8.6 1.4.6.6 0 1.1-.2 1.8-.7s1.2-1 1.8-1.7c.3.2.7.2 1.1.2.6 0 1.1-.2 1.7-.5.5-.3.9-.8 1.2-1.5l-.3-.2c-.2.6-.6 1-1.1 1.3-.5.3-.9.4-1.4.4-.3 0-.6-.1-.9-.2.5-.7.8-1.4 1.1-2.1.3-.7.4-1.4.4-2 0-.6-.1-1-.4-1.3-.2-.3-.6-.5-1.2-.5-.7-.1-1.3.2-1.7.8"/></defs><clipPath id="bl"><use xlink:href="#bk" overflow="visible"/></clipPath><linearGradient id="bm" gradientUnits="userSpaceOnUse" y1="160.026" x2="1" y2="160.026" gradientTransform="scale(-16.5325 16.5325) rotate(87.049 78.882 80.605)"><stop offset="0" stop-color="#a7a7a7"/><stop offset=".029" stop-color="#a7a7a7"/><stop offset=".152" stop-color="#d0d0d0"/><stop offset=".479" stop-color="#919191"/><stop offset=".749" stop-color="#d1d1d1"/><stop offset="1" stop-color="#c5c5c5"/></linearGradient><path clip-path="url(#bl)" fill="url(#bm)" d="M78.8 106l-.5 9.3-9.8-.5.5-9.3z"/></g><g clip-path="url(#b)"><defs><path id="bn" d="M87.6 100.1c-.8 1.7-1.8 4.1-3 7.2-.5 1.2-1 2.3-1.6 3.3-.6 1-1.2 1.7-1.8 2.2-.6.5-1.1.8-1.5.8-.3 0-.5-.1-.6-.3-.1-.2-.2-.5-.2-.8 0-.6.2-1.4.7-2.4.5-1 1-1.8 1.8-2.6.7-.7 1.5-1.1 2.2-1.1.4 0 .7.1.9.3v-.3c0-.5-.3-.7-1-.7-.9 0-1.8.4-2.8 1.2-1 .8-1.8 1.8-2.4 2.9-.6 1.1-1 2.1-1 3 0 .6.2 1.1.5 1.4.4.3.8.5 1.2.5.7 0 1.4-.4 2.3-1.2.8-.8 1.6-1.8 2.4-3.1-.3 1.1-.4 1.9-.4 2.5 0 .5.1.9.4 1.2.2.3.6.5 1.1.5.5 0 1.1-.2 1.6-.5.6-.4 1.1-.9 1.6-1.5s.9-1.3 1.2-2.1l-.3-.2c-.3.7-.7 1.3-1.1 1.8-.4.5-.9.9-1.3 1.2-.4.3-.8.4-1.1.4-.2 0-.4-.1-.4-.3-.1-.2-.1-.5-.1-1 0-1.3.3-2.8 1-4.5.7-1.7 1.6-3.8 2.7-6.1.6-1.2 1-2 1.2-2.6.2-.6.4-1 .4-1.2 0-.2 0-.3-.1-.4-.1-.1-.2-.1-.3-.1-.7.1-1.4.9-2.2 2.6"/></defs><clipPath id="bo"><use xlink:href="#bn" overflow="visible"/></clipPath><linearGradient id="bp" gradientUnits="userSpaceOnUse" y1="160.032" x2="1" y2="160.032" gradientTransform="scale(-16.5325 16.5325) rotate(87.049 78.573 80.312)"><stop offset="0" stop-color="#a7a7a7"/><stop offset=".029" stop-color="#a7a7a7"/><stop offset=".152" stop-color="#d0d0d0"/><stop offset=".479" stop-color="#919191"/><stop offset=".749" stop-color="#d1d1d1"/><stop offset="1" stop-color="#c5c5c5"/></linearGradient><path clip-path="url(#bo)" fill="url(#bp)" d="M91 97.6l-.9 17.9-13.7-.7.9-17.9z"/></g><g clip-path="url(#b)"><defs><path id="bq" d="M89.7 108.2c-.3.6-.6 1.3-.8 2.2-.2.8-.4 1.5-.4 2.1 0 .6.2 1.2.5 1.6.3.5.7.7 1.2.7s1.1-.3 1.5-.8c.5-.5 1-1.2 1.5-2.1-.1.5-.2.8-.2 1.1 0 1.1.5 1.7 1.6 1.7.5 0 1.1-.2 1.7-.5s1.2-.9 1.7-1.5.9-1.4 1.3-2.2l-.3-.2c-.4.8-.8 1.4-1.2 2-.5.6-.9 1-1.4 1.3-.5.3-.9.4-1.2.4-.5 0-.8-.3-.8-.9 0-.5.1-1.1.4-1.7.2-.7.5-1.4.9-2.2.1-.1.1-.3.2-.5s.1-.3.1-.3c0-.3-.4-.5-1.1-.6l-.4.8c-.7 1.5-1.4 2.8-2.1 3.8-.6 1-1.2 1.5-1.8 1.5-.3 0-.5-.2-.7-.5-.1-.3-.2-.7-.2-1 0-.7.2-1.5.5-2.4.4-.9.7-1.7 1-2.2-.1-.1-.3-.2-.4-.3-.2-.1-.3-.1-.4-.1-.1-.1-.4.2-.7.8"/></defs><clipPath id="br"><use xlink:href="#bq" overflow="visible"/></clipPath><linearGradient id="bs" gradientUnits="userSpaceOnUse" y1="160.029" x2="1" y2="160.029" gradientTransform="scale(-16.5325 16.5325) rotate(87.049 78.24 79.994)"><stop offset="0" stop-color="#a7a7a7"/><stop offset=".029" stop-color="#a7a7a7"/><stop offset=".152" stop-color="#d0d0d0"/><stop offset=".479" stop-color="#919191"/><stop offset=".749" stop-color="#d1d1d1"/><stop offset="1" stop-color="#c5c5c5"/></linearGradient><path clip-path="url(#br)" fill="url(#bs)" d="M99.7 107.3l-.4 8.1-11.2-.6.4-8.1z"/></g><g clip-path="url(#b)"><defs><path id="bt" d="M101.1 107.2c-.8.6-1.4 1.4-1.9 2.3-.5 1-.8 1.9-.8 2.9s.2 1.7.7 2.2c.5.5 1.1.8 1.9.8.7 0 1.5-.2 2.2-.6.7-.4 1.4-1 2-1.7.6-.7 1.1-1.6 1.4-2.5l-.3-.2c-.5 1.2-1.2 2.2-2.1 3-.9.8-1.8 1.2-2.8 1.2-.6 0-1-.2-1.3-.5-.3-.4-.4-.8-.4-1.4 0-.7.2-1.5.6-2.4.4-.9.9-1.6 1.5-2.3.6-.6 1.1-.9 1.7-.9.2 0 .3 0 .4.1.1.1.1.2.1.4 0 .4-.1.7-.3 1.1-.2.4-.4.6-.6.7.2.2.4.3.7.3.4 0 .6-.2.8-.5s.3-.7.3-1.2-.1-.9-.4-1.2c-.3-.3-.7-.5-1.3-.5-.5 0-1.3.3-2.1.9"/></defs><clipPath id="bu"><use xlink:href="#bt" overflow="visible"/></clipPath><linearGradient id="bv" gradientUnits="userSpaceOnUse" y1="160.028" x2="1" y2="160.028" gradientTransform="scale(-16.5325 16.5325) rotate(87.049 77.963 79.732)"><stop offset="0" stop-color="#a7a7a7"/><stop offset=".029" stop-color="#a7a7a7"/><stop offset=".152" stop-color="#d0d0d0"/><stop offset=".479" stop-color="#919191"/><stop offset=".749" stop-color="#d1d1d1"/><stop offset="1" stop-color="#c5c5c5"/></linearGradient><path clip-path="url(#bu)" fill="url(#bv)" d="M107.2 106.4l-.5 9.4-8.7-.4.5-9.5z"/></g><g clip-path="url(#b)"><defs><path id="bw" d="M109.6 102.3c-.8 1.3-1.5 2.8-2.2 4.5-.1 0-.5 0-1-.1v.4c.2.1.5.1.8.2-.4 1.1-.7 2.1-1 3.1-.2 1-.4 1.8-.4 2.4 0 1.5.7 2.3 2 2.3 1.1 0 2.1-.4 3-1.3 1-.9 1.7-1.9 2.3-3.3l-.3-.2c-.6 1.2-1.3 2.2-2 2.9s-1.5 1-2.3 1c-.5 0-.8-.1-1-.4-.2-.3-.3-.8-.3-1.4 0-1.4.4-3.1 1.3-5h.3c1 0 2.4-.1 4-.3v-.4c-.9.1-2 .1-3.3.1h-.9c.3-.7.7-1.4 1.1-2.1.4-.7.6-1.1.7-1.3.5-.8.8-1.4 1-1.8.2-.4.3-.7.3-.9 0-.2-.1-.3-.1-.4-.1-.1-.2-.1-.3-.1-.3.2-.9.8-1.7 2.1"/></defs><clipPath id="bx"><use xlink:href="#bw" overflow="visible"/></clipPath><linearGradient id="by" gradientUnits="userSpaceOnUse" y1="160.018" x2="1" y2="160.018" gradientTransform="scale(-16.5325 16.5325) rotate(87.049 77.74 79.52)"><stop offset="0" stop-color="#a7a7a7"/><stop offset=".029" stop-color="#a7a7a7"/><stop offset=".152" stop-color="#d0d0d0"/><stop offset=".479" stop-color="#919191"/><stop offset=".749" stop-color="#d1d1d1"/><stop offset="1" stop-color="#c5c5c5"/></linearGradient><path clip-path="url(#bx)" fill="url(#by)" d="M114 100.4l-.7 15.2-8.2-.5.8-15.1z"/></g><g clip-path="url(#b)"><defs><path id="bz" d="M58.5 55.3c-1.8 1.1-3.2 2.6-4.2 4.3-1 1.7-1.5 3.4-1.5 4.9 0 1.1.3 2.2.9 3 .6.9 1.3 1.6 2.1 2.2.8.6 1.9 1.3 3.3 2.2 1.4.8 2.5 1.5 3.3 2.1.8.6 1.5 1.3 2.1 2.1.5.8.8 1.8.8 2.9 0 1.3-.4 2.3-1.1 3.2-.7.9-1.7 1.6-2.8 2.1-1.2.5-2.4.7-3.7.7-2 0-3.6-.5-4.7-1.6s-1.6-2.5-1.6-4.1c0-1 .2-1.9.6-2.9.4-1 .9-1.8 1.7-2.6-1.4 0-2.6.4-3.6 1.3-1.1.9-1.6 2.3-1.6 4.2 0 1.6.4 2.9 1.2 4 .8 1.1 1.8 1.9 3.1 2.5 1.3.5 2.7.8 4.3.8 1.7 0 3.4-.3 5.1-1 1.6-.7 3-1.7 4-3 1.1-1.3 1.6-2.9 1.6-4.7 0-1.4-.3-2.6-1-3.6-.6-1-1.4-1.9-2.3-2.5-.9-.7-2.1-1.4-3.6-2.3-1.2-.7-2.2-1.3-2.9-1.8-.7-.5-1.3-1.1-1.8-1.8s-.7-1.5-.7-2.3c0-1.2.4-2.5 1.2-3.9.8-1.4 1.9-2.6 3.3-3.6s2.9-1.5 4.5-1.5c.8 0 1.4.2 1.8.5.3.3.5.7.5 1.3 0 .5-.1 1.1-.3 1.8-.2.7-.5 1.5-.9 2.6-.4 1-.7 1.8-.9 2.5-.2.7-.3 1.2-.3 1.8 0 1 .5 1.6 1.4 1.8.8-1.3 1.5-2.7 2.2-4.4.7-1.7 1-3.2 1-4.6 0-1.3-.3-2.3-1-3s-1.8-1.1-3.3-1.1c-2.4-.2-4.4.4-6.2 1.5"/></defs><clipPath id="bA"><use xlink:href="#bz" overflow="visible"/></clipPath><linearGradient id="bB" gradientUnits="userSpaceOnUse" y1="160.032" x2="1" y2="160.032" gradientTransform="scale(-26.743 26.743) rotate(87.811 81 79.85)"><stop offset="0" stop-color="#4e4e4e"/><stop offset="1" stop-color="#171717"/></linearGradient><path clip-path="url(#bA)" fill="url(#bB)" d="M70.1 53.6l-1.3 33.9-21.6-.9 1.3-33.8z"/></g><g clip-path="url(#b)"><defs><path id="bC" d="M75.8 71.1c-1.8 1.4-3.2 3.1-4.4 5.1-1.2 2-1.7 3.8-1.7 5.4 0 1.1.3 1.9.8 2.5.6.6 1.3.9 2.2.9 1 0 1.9-.4 2.9-1.1 1-.8 2.1-2 3.3-3.6-.1.4-.1.8-.1 1.2 0 .8.3 1.5.8 2 .5.6 1.2.8 2.2.8 1 0 2-.3 3-.9 1-.6 2-1.5 2.9-2.6.9-1.1 1.6-2.4 2.2-3.9l-.4-.4c-1.2 2.1-2.4 3.6-3.6 4.8-1.2 1.1-2.2 1.7-3 1.7-.5 0-.8-.2-1-.6-.2-.4-.3-.8-.3-1.3s.1-1.1.4-1.7c.3-.6.6-1.3 1.1-2.1.1-.1.2-.4.5-.8.3-.5.4-.8.4-1 0-.3-.2-.5-.6-.7-.4-.2-.7-.3-1.1-.3-1.7 2.5-3.3 4.6-4.8 6.3-1.5 1.7-2.8 2.6-3.9 2.6-.7 0-1.1-.5-1.1-1.6 0-1.3.4-2.9 1.3-4.8s2-3.5 3.3-4.8c1.3-1.3 2.6-2 3.8-2 .7 0 1.2.2 1.5.6.3.4.5 1 .5 1.7 0 .5-.1.9-.2 1.4.6 0 1.1-.1 1.5-.4.4-.3.5-.7.5-1.4 0-.9-.4-1.6-1.1-2.2-.7-.6-1.6-.9-2.6-.9-1.7 0-3.5.7-5.2 2.1"/></defs><clipPath id="bD"><use xlink:href="#bC" overflow="visible"/></clipPath><linearGradient id="bE" gradientUnits="userSpaceOnUse" y1="160.027" x2="1" y2="160.027" gradientTransform="scale(-26.743 26.743) rotate(87.811 80.583 79.449)"><stop offset="0" stop-color="#4e4e4e"/><stop offset="1" stop-color="#171717"/></linearGradient><path clip-path="url(#bD)" fill="url(#bE)" d="M90.4 69.1l-.6 16.7L69 85l.6-16.7z"/></g><g clip-path="url(#b)"><defs><path id="bF" d="M88.5 92.1c-.1-.3-.2-.8-.2-1.5 0-1.4.3-3.4 1-6.1.7-2.7 1.5-5.6 2.6-8.7.5 1 .9 1.9 1.1 2.5.2.7.3 1.4.3 2.3 0 1.4-.2 3-.7 4.9-.5 1.9-1.1 3.5-1.7 4.9-.7 1.4-1.3 2.1-1.7 2.1-.4.1-.6-.1-.7-.4m10.3-32.2c1.4-2.4 2.7-3.5 3.7-3.5.4 0 .6.2.6.6 0 .6-.4 1.5-1.1 2.9-.7 1.3-1.8 2.8-3.1 4.5-1.3 1.7-2.8 3.3-4.5 4.8 1.5-3.9 3-7 4.4-9.3m-2.8 1c-2.7 4.9-5.1 10.4-7.2 16.5-2 6.2-3.1 10.7-3.1 13.6 0 1.3.2 2.3.7 2.8.5.5 1 .8 1.6.8 1 0 2-.7 3-2.2 1-1.4 1.8-3.3 2.4-5.5.6-2.2.9-4.5.9-6.7.5.4 1 .7 1.5 1 .5.2 1 .4 1.5.4.9 0 1.9-.4 2.9-1.2 1-.8 1.8-2 2.5-3.5l-.6-.4c-.8 1.4-1.6 2.4-2.2 3.1-.6.6-1.4.9-2.3.9-.8 0-1.5-.3-1.9-.8-.5-.5-.8-1.2-1-2-.2-.8-.4-2-.7-3.6-.1-.3-.2-.6-.3-.8-.2-.3-.4-.4-.7-.5.3-.9.6-1.6.8-2 1.8-1.2 3.5-2.8 5.2-4.6 1.7-1.8 3.1-3.7 4.1-5.6 1.1-1.9 1.6-3.6 1.6-5.1 0-.6-.1-1-.3-1.3-.2-.3-.6-.5-1.1-.5-2.1-.1-4.5 2.3-7.3 7.2"/></defs><clipPath id="bG"><use xlink:href="#bF" overflow="visible"/></clipPath><linearGradient id="bH" gradientUnits="userSpaceOnUse" y1="160.031" x2="1" y2="160.031" gradientTransform="scale(-26.743 26.743) rotate(87.811 80.286 79.163)"><stop offset="0" stop-color="#4e4e4e"/><stop offset="1" stop-color="#171717"/></linearGradient><path clip-path="url(#bG)" fill="url(#bH)" d="M106.3 53.6l-1.6 41.7-20.5-.8 1.6-41.6z"/></g><g clip-path="url(#b)"><defs><path id="bI" d="M105.5 74.1c.8-1.3 1.7-2.4 2.7-3.2 1-.8 1.9-1.3 2.8-1.3.3 0 .6.1.7.2.1.2.2.4.2.7 0 1.1-.4 2.1-1.3 3.1s-2 1.9-3.2 2.6c-1.3.7-2.5 1.3-3.6 1.7.3-1.2.9-2.5 1.7-3.8m.9-3.8c-1.6 1.3-3 2.8-4 4.7-1.1 1.9-1.6 3.6-1.6 5.2 0 1.4.4 2.5 1.3 3.4.9.9 2.1 1.3 3.7 1.3 2 0 4-.7 6-2.2 1.9-1.5 3.5-3.4 4.5-5.9l-.5-.4c-1.1 2.1-2.4 3.8-4.1 5.2-1.7 1.4-3.4 2.1-5 2.1-1.2 0-2-.3-2.5-1s-.7-1.5-.7-2.5c0-.5.1-1 .2-1.5 1.6-.2 3.2-.6 4.8-1.4 1.6-.7 2.9-1.7 3.9-2.8 1-1.2 1.5-2.4 1.5-3.8 0-1.7-.8-2.5-2.5-2.5-1.8.1-3.4.8-5 2.1"/></defs><clipPath id="bJ"><use xlink:href="#bI" overflow="visible"/></clipPath><linearGradient id="bK" gradientUnits="userSpaceOnUse" y1="160.028" x2="1" y2="160.028" gradientTransform="scale(-26.743 26.743) rotate(87.811 80.024 78.91)"><stop offset="0" stop-color="#4e4e4e"/><stop offset="1" stop-color="#171717"/></linearGradient><path clip-path="url(#bJ)" fill="url(#bK)" d="M116.9 68.4l-.6 17.1-16.2-.6.7-17.1z"/></g><g clip-path="url(#b)"><defs><path id="bL" d="M56.5 97.6c1.2 0 2.2.3 3 .9.8.6 1.2 1.5 1.2 2.6s-.4 2-1.1 2.8c-.7.8-1.7 1.4-2.8 1.8-1.1.4-2.3.7-3.5.7 1.2-3.9 2.2-6.9 3.2-8.8m-5.3.8c0 .1.1.2.3.4.2.2.3.2.4.2 0 0 .2-.1.5-.2.9-.5 1.8-.9 2.7-1-1.1 2.4-2 4.7-2.8 6.9-.8 2.1-1.7 5-2.9 8.6-.2.6-.3 1-.3 1.3 0 .3.2.6.5.8.3.2.7.3 1.1.3.2-.6.6-1.9 1.1-3.9.8-3 1.3-4.7 1.4-4.9h.2c.9 0 2-.1 3.4-.4 1.3-.3 2.6-.8 3.7-1.6s1.7-1.9 1.7-3.3c0-.9-.3-1.7-.9-2.4-.6-.7-1.3-1.2-2.2-1.5-.9-.3-1.8-.5-2.8-.5-1.5-.1-3.2.4-5.1 1.2"/></defs><clipPath id="bM"><use xlink:href="#bL" overflow="visible"/></clipPath><linearGradient id="bN" gradientUnits="userSpaceOnUse" y1="160.025" x2="1" y2="160.025" gradientTransform="scale(-16.5325 16.5325) rotate(87.049 79.472 81.143)"><stop offset="0" stop-color="#4e4e4e"/><stop offset="1" stop-color="#171717"/></linearGradient><path clip-path="url(#bM)" fill="url(#bN)" d="M63.1 97.2l-1 19.2-13.9-.7.9-19.2z"/></g><g clip-path="url(#b)"><defs><path id="bO" d="M62.6 104.5c-.2.1-.3.3-.4.6-.1.2-.2.5-.2.8 0 .2.1.4.2.6-.5 1.5-1.1 2.9-1.9 4.4l.2.4c.3-.4.6-1.1 1-1.9.4-.8.7-1.7 1.1-2.5.1 0 .2.1.4.3.2.1.4.3.6.6.2.2.3.5.3.9 0 .3 0 .5-.1.8-.1.3-.2.7-.4 1.2-.4 1-.7 1.7-.7 2.3 0 .4.1.8.4 1.1.3.3.7.4 1.2.4.9 0 1.8-.4 2.7-1.2.9-.8 1.6-1.7 2.1-2.8l-.3-.2c-.2.5-.5 1-1 1.5-.4.5-.9 1-1.5 1.4-.5.4-1 .6-1.5.6s-.7-.2-.7-.7c0-.3.2-.9.5-1.6.2-.5.4-1 .5-1.3.1-.3.2-.7.2-1 0-.5-.1-.9-.4-1.3-.3-.3-.6-.7-1.1-1-.3-.2-.5-.4-.6-.5-.1-.1-.2-.3-.2-.4 0-.1.1-.2.1-.4.1-.2.1-.4.1-.4 0-.4-.1-.6-.3-.6 0-.3-.1-.2-.3-.1"/></defs><clipPath id="bP"><use xlink:href="#bO" overflow="visible"/></clipPath><linearGradient id="bQ" gradientUnits="userSpaceOnUse" y1="160.026" x2="1" y2="160.026" gradientTransform="scale(-16.5325 16.5325) rotate(87.049 79.178 80.864)"><stop offset="0" stop-color="#4e4e4e"/><stop offset="1" stop-color="#171717"/></linearGradient><path clip-path="url(#bP)" fill="url(#bQ)" d="M69.7 104.3l-.6 10.5-9.2-.5.5-10.5z"/></g><g clip-path="url(#b)"><defs><path id="bR" d="M72.7 109.9c-.1-.4-.2-.9-.2-1.4 0-.4.1-.8.2-1.2.1-.4.3-.6.6-.9.2-.2.4-.3.7-.3.2 0 .4.1.5.3.1.2.2.5.2 1s-.1 1.1-.4 1.7c-.2.6-.6 1.2-1 1.8-.2-.1-.4-.5-.6-1m-.5-3.4c-.4.6-.6 1.2-.6 2 0 .6.1 1.2.4 1.8.2.6.6 1 1 1.4-.4.6-.9 1-1.3 1.3-.4.3-.8.5-1.2.5-.6 0-.8-.4-.8-1.3 0-.4.1-.8.3-1.4.2-.6.4-1.1.7-1.7.3-.5.5-.9.7-1-.2-.1-.3-.1-.5-.1-.4 0-.8.2-1.2.7-.4.5-.8 1-1 1.7-.3.7-.4 1.4-.4 2 0 .6.1 1.1.4 1.5.3.4.8.6 1.4.6.6 0 1.1-.2 1.8-.7s1.2-1 1.8-1.7c.3.2.7.2 1.1.2.6 0 1.1-.2 1.7-.5.5-.3.9-.8 1.2-1.5l-.3-.2c-.2.6-.6 1-1.1 1.3-.5.3-.9.4-1.4.4-.3 0-.6-.1-.9-.2.5-.7.8-1.4 1.1-2.1.3-.7.4-1.4.4-2 0-.6-.1-1-.4-1.3-.2-.3-.6-.5-1.2-.5-.8-.1-1.3.2-1.7.8"/></defs><clipPath id="bS"><use xlink:href="#bR" overflow="visible"/></clipPath><linearGradient id="bT" gradientUnits="userSpaceOnUse" y1="160.026" x2="1" y2="160.026" gradientTransform="scale(-16.5325 16.5325) rotate(87.049 78.921 80.62)"><stop offset="0" stop-color="#4e4e4e"/><stop offset="1" stop-color="#171717"/></linearGradient><path clip-path="url(#bS)" fill="url(#bT)" d="M77.9 105.6l-.5 9.3-9.7-.5.5-9.3z"/></g><g clip-path="url(#b)"><defs><path id="bU" d="M86.8 99.7c-.8 1.7-1.8 4.1-3 7.2-.5 1.2-1 2.3-1.6 3.3-.6 1-1.2 1.7-1.8 2.2-.6.5-1.1.8-1.5.8-.3 0-.5-.1-.6-.3-.1-.2-.2-.5-.2-.8 0-.6.2-1.4.7-2.4.5-1 1-1.8 1.8-2.6.7-.7 1.5-1.1 2.2-1.1.4 0 .7.1.9.3v-.3c0-.5-.3-.7-1-.7-.9 0-1.8.4-2.8 1.2-1 .8-1.8 1.8-2.4 2.9-.6 1.1-1 2.1-1 3 0 .6.2 1.1.5 1.4.4.3.8.5 1.2.5.7 0 1.4-.4 2.3-1.2.8-.8 1.6-1.8 2.4-3.1-.3 1.1-.4 1.9-.4 2.5 0 .5.1.9.4 1.2.2.3.6.5 1.1.5.5 0 1.1-.2 1.6-.5.6-.4 1.1-.9 1.6-1.5s.9-1.3 1.2-2.1l-.3-.2c-.3.7-.7 1.3-1.1 1.8-.4.5-.9.9-1.3 1.2-.4.3-.8.4-1.1.4-.2 0-.4-.1-.4-.3-.1-.2-.1-.5-.1-1 0-1.3.3-2.8 1-4.5.7-1.7 1.6-3.8 2.7-6.1.6-1.2 1-2 1.2-2.6.2-.6.4-1 .4-1.2 0-.2 0-.3-.1-.4-.1-.1-.2-.1-.3-.1-.7 0-1.4.9-2.2 2.6"/></defs><clipPath id="bV"><use xlink:href="#bU" overflow="visible"/></clipPath><linearGradient id="bW" gradientUnits="userSpaceOnUse" y1="160.032" x2="1" y2="160.032" gradientTransform="scale(-16.5325 16.5325) rotate(87.049 78.612 80.326)"><stop offset="0" stop-color="#4e4e4e"/><stop offset="1" stop-color="#171717"/></linearGradient><path clip-path="url(#bV)" fill="url(#bW)" d="M90.2 97.2l-.9 17.9-13.8-.8.9-17.8z"/></g><g clip-path="url(#b)"><defs><path id="bX" d="M88.8 107.8c-.3.6-.6 1.3-.8 2.2-.2.8-.4 1.5-.4 2.1 0 .6.2 1.2.5 1.6.3.5.7.7 1.2.7s1.1-.3 1.5-.8c.5-.5 1-1.2 1.5-2.1-.1.5-.2.8-.2 1.2 0 1.1.5 1.7 1.6 1.7.5 0 1.1-.2 1.7-.5s1.2-.9 1.7-1.5.9-1.4 1.3-2.2l-.3-.2c-.4.8-.8 1.4-1.2 2-.5.6-.9 1-1.4 1.3-.5.3-.9.4-1.2.4-.5 0-.8-.3-.8-.9 0-.5.1-1.1.4-1.7.2-.7.5-1.4.9-2.2.1-.1.1-.3.2-.5s.1-.3.1-.3c0-.3-.4-.5-1.1-.6l-.4.8c-.7 1.5-1.4 2.8-2.1 3.8-.6 1-1.2 1.5-1.8 1.5-.3 0-.5-.2-.7-.5-.1-.3-.2-.7-.2-1 0-.7.2-1.5.5-2.5.4-.9.7-1.7 1-2.2-.1-.1-.3-.2-.4-.3-.2-.1-.3-.1-.4-.1-.1-.1-.3.2-.7.8"/></defs><clipPath id="bY"><use xlink:href="#bX" overflow="visible"/></clipPath><linearGradient id="bZ" gradientUnits="userSpaceOnUse" y1="160.029" x2="1" y2="160.029" gradientTransform="scale(-16.5325 16.5325) rotate(87.049 78.278 80.009)"><stop offset="0" stop-color="#4e4e4e"/><stop offset="1" stop-color="#171717"/></linearGradient><path clip-path="url(#bY)" fill="url(#bZ)" d="M98.8 106.9l-.4 8.1-11.2-.6.5-8.1z"/></g><g clip-path="url(#b)"><defs><path id="ca" d="M100.3 106.8c-.8.6-1.4 1.4-1.9 2.3-.5 1-.8 1.9-.8 2.9s.2 1.7.7 2.2c.5.5 1.1.8 1.9.8.7 0 1.5-.2 2.2-.6.7-.4 1.4-1 2-1.7.6-.7 1.1-1.6 1.4-2.5l-.3-.2c-.5 1.2-1.2 2.2-2.1 3-.9.8-1.8 1.2-2.8 1.2-.6 0-1-.2-1.3-.5s-.4-.8-.4-1.4c0-.7.2-1.5.6-2.4.4-.9.9-1.6 1.5-2.3.6-.6 1.1-.9 1.7-.9.2 0 .3 0 .4.1.1.1.1.2.1.4 0 .4-.1.7-.3 1.1-.2.4-.4.6-.6.7.2.2.4.3.7.3.4 0 .6-.2.8-.5.2-.3.3-.7.3-1.2s-.1-.9-.4-1.2c-.3-.3-.7-.5-1.3-.5-.5 0-1.3.3-2.1.9"/></defs><clipPath id="cb"><use xlink:href="#ca" overflow="visible"/></clipPath><linearGradient id="cc" gradientUnits="userSpaceOnUse" y1="160.028" x2="1" y2="160.028" gradientTransform="scale(-16.5325 16.5325) rotate(87.049 78.001 79.746)"><stop offset="0" stop-color="#4e4e4e"/><stop offset="1" stop-color="#171717"/></linearGradient><path clip-path="url(#cb)" fill="url(#cc)" d="M106.3 106l-.4 9.4-8.8-.4.5-9.5z"/></g><g clip-path="url(#b)"><defs><path id="cd" d="M108.7 101.9c-.8 1.3-1.5 2.8-2.2 4.5-.1 0-.5 0-1-.1v.4c.2.1.5.1.8.2-.4 1.1-.7 2.1-1 3.1-.2 1-.4 1.8-.4 2.4 0 1.5.7 2.3 2 2.3 1.1 0 2.1-.4 3-1.3 1-.8 1.7-1.9 2.3-3.3l-.3-.2c-.6 1.2-1.3 2.2-2 2.9-.8.7-1.5 1-2.3 1-.5 0-.8-.1-1-.4-.2-.3-.3-.8-.3-1.4 0-1.4.4-3.1 1.3-5h.3c1 0 2.4-.1 4-.3v-.4c-.9.1-2 .1-3.3.1h-.6c.3-.7.7-1.4 1.1-2.1.4-.7.6-1.1.7-1.3.5-.8.8-1.4 1-1.8.2-.4.3-.7.3-.9 0-.2-.1-.3-.2-.4-.1-.1-.2-.1-.3-.1-.5.2-1.1.8-1.9 2.1"/></defs><clipPath id="ce"><use xlink:href="#cd" overflow="visible"/></clipPath><linearGradient id="cf" gradientUnits="userSpaceOnUse" y1="160.018" x2="1" y2="160.018" gradientTransform="scale(-16.5325 16.5325) rotate(87.049 77.778 79.535)"><stop offset="0" stop-color="#4e4e4e"/><stop offset="1" stop-color="#171717"/></linearGradient><path clip-path="url(#ce)" fill="url(#cf)" d="M113.2 100l-.8 15.1-8.1-.4.8-15.1z"/></g></svg>