<svg xmlns="http://www.w3.org/2000/svg" xmlns:xlink="http://www.w3.org/1999/xlink" width="546" height="294.7"><path fill="#DE741C" d="M329.9 112.9s-1.3 14.5-59.1 53.5c0 0-7.7 3.2 4.8 2.3 12.5-.8 36.7-13.7 52.4-28.4 15.7-14.7 17.3-28.3 8.4-33.5-8.9-5.2-15.6-.3-15.6-.3l2.4 6.8s5.3-3.1 6.7-.4"/><path fill="#FFF" d="M187.2 43.7c0 8.3-3.4 18.4-10.1 30.2-6.7 11.8-15.4 23.2-25.9 34.1-10.5 11-23.3 20.3-38.3 28.1-15 7.8-29.7 11.7-44.1 11.9-.8 0-2.2-.4-4.1-1.1-1.9-.8-3.4-1.7-4.7-2.8-3.1-2.9-4.6-7.2-4.6-12.9 1-5.1 3.1-9.3 6.4-12.5 1.1-1.1 1.7-1.8 1.7-2.1h-.2c-.3 0-1 .3-2.1 1l-37.7 28.1c-2.5 2.8-4.9 4.2-7.3 4.2-.7 0-1.5-.2-2.3-.6l-5-4.8c-.4-.3-.6-1-.6-2.2 0-1.2.7-3.1 2.1-5.7 1.4-2.6 4.2-7.1 8.5-13.4 4.3-6.3 10.5-14.7 18.6-25.3 8.1-10.5 18.7-22.2 31.6-35.1 13-12.8 26.7-24.7 41.3-35.5 2.9-2.8 5.7-4.2 8.3-4.2.7 0 1.9.5 3.5 1.5 2.2 1.1 3.3 2.2 3.3 3.3 0 1.1-.3 1.9-1 2.5l-14.6 14.1C75.8 79.7 54.1 103.7 45 116.3c-1.1 1.2-1.7 2.1-1.7 2.6s.2.7.5.7.7-.2 1.1-.6c11-7.3 23-14.1 36.2-20.2 1-.6 1.8-.8 2.6-.8s1.4.3 1.8.8l4 4.8c.6.8.8 1.6.8 2.4 0 .8-.3 1.4-.8 1.8l-2.3 2.5c-8.2 8-12.4 13.2-12.7 15.4.1.7.5 1 1 1 8.2 0 20.3-4.9 36.2-14.8 15.9-9.8 30.5-21.5 43.7-35.1 13.2-13.5 19.8-24.7 19.8-33.6 0-3-1.6-6.2-4.7-9.4s-6.4-5.8-9.9-7.7c-8.6-4.6-19.3-6.9-32-6.9-12.8 0-25 1.4-36.6 4.3-11.7 2.8-22 6.3-30.9 10.5-8.9 4.2-17.1 8.6-24.3 13.2-7 4.8-12.6 9-16.5 12.8-3.9 3.8-5.8 6.6-5.8 8.4 0 .4.2.6.6.6 4.3 0 12.4-3 24.4-8.9 12-6 19.9-10.8 23.8-14.6 3.5-2.5 5.7-3.7 6.7-3.7.6 0 .8.5.8 1.6 0 1-.9 2.9-2.7 5.5-1.8 2.6-4.4 5.8-7.9 9.5-3.4 3.6-7.2 7.2-11.4 10.8-4.2 3.5-8.9 6.6-14.4 9.1C29 80.7 24.3 82 20.1 82S11.6 80.1 7 76.5C2.4 72.8.1 68.2.1 62.7c0-11 7-21.4 21-31.4S51.4 13.6 69.9 8.2C88.4 2.7 104.2 0 117.3 0c13 0 23.7 1.2 32 3.7s14.7 5.5 19.2 8.9c4.5 3.5 8.3 7.4 11.3 11.9 4.5 6.7 6.9 13.1 7.4 19.2m-1.7 69.3c-1.1 1.9-1.7 3.7-1.7 5.2s.8 2.3 2.5 2.3c1 0 2.6-.4 5-1.2 25.9-13.6 51.3-29.6 76.2-48.1 1.2 1 1.9 2.2 1.9 3.5 0 1.4-.7 2.7-2.1 4-1.4 1.2-3.4 3.1-5.9 5.4-2.6 2.4-7.5 6.6-14.7 12.7-7.2 6.1-13.9 11.7-20.2 16.6-16.4 13.2-28.4 20.9-36.2 23.3-2.5.7-5.2 1-8.1 1-10.7 0-16-5.7-16-17.1 0-4.4 2.4-10.8 7.3-19 4.9-8.3 9.8-15.5 15-21.8 5.1-6.3 8.5-9.8 10.2-10.5 2.5-1.5 5.2-2.3 8.1-2.3 2.9 0 5.7.6 8.3 1.7.8.4 1.2 1 1.2 1.7s-.7 1.7-2 3.1c-1.3 1.4-3.3 3.5-6 6.4s-6.7 7.9-12.1 15.1c-5.3 7.1-8.9 13.1-10.7 18m49.9-82c1.4 0 2.3.3 2.7.8 1.9 2.4 2.9 4.3 2.9 5.7s-.4 2.7-1.2 3.7c-.8 1-1.8 2.2-3 3.5-1.2 1.3-3.5 3.1-7.1 5.4-3.5 2.3-7 3.4-10.3 3.4-2.5-.4-3.7-1.9-3.7-4.6 0-4.2 2.5-8.2 7.5-12.2 5-3.7 9-5.7 12.2-5.7"/><path fill="#FFF" d="M245 137.7c-10.7 0-16-6.5-16-19.6 0-8.2 3.6-16.9 10.7-26.1 7.1-9.2 15.6-16.8 25.3-22.7 9.7-5.9 18.3-8.8 25.8-8.8 3.3 0 6.4 1.3 9.3 4 2.8 2.6 4.3 5.2 4.3 7.7 0 4.6-3.3 9.7-9.8 15.5-6.5 5.8-13.4 10.4-20.5 13.9s-11.9 5.3-14.1 5.3c-2.3 0-4-1-5.1-3.1-.6-.4-1.3-.6-2.3-.6-1 0-2.6 1.8-4.8 5.5-2.2 3.7-3.3 6.7-3.3 8.9 0 2.3.8 3.7 2.5 4.3 10.5 0 22-3.1 34.3-9.3 12.3-6.2 29.4-17 51.2-32.6 1.5-1.1 3.8-2.8 7-5 3.1-2.2 5-3.5 5.5-4 1.2 1 1.9 2.2 1.9 3.5 0 1.4-.6 2.6-1.9 3.7-6.9 6.9-15.9 14.7-26.9 23.3-11 8.6-23.7 16.7-38 24.4-14.4 8-26.1 11.8-35.1 11.8m44.3-66.5c-3.6 0-9.7 3.7-18.3 11.1-8.6 7.4-12.9 12-12.9 13.6 0 .3.2.4.6.4 3 0 9.1-3.4 18.2-10.2 9.1-6.8 13.6-11.4 13.6-13.9.1-.7-.3-1-1.2-1"/><path fill="#FFF" d="M396.1 37.9l10.6-.2c13.7 0 23.7 1.9 30 5.8 3 1 4.6 2.2 4.6 3.7 0 1.1-1.4 1.9-4.1 2.3-2.7.4-12.1 1.5-28.1 3.2-16 1.7-27 2.7-33 3-2.6.1-8.7 4.7-18.2 13.7s-18.6 18.9-27.2 29.8c-8.6 10.8-12.9 18.4-12.9 22.7 0 .7.3 1.3 1 1.8s1.6.7 2.6.7 2.7-.4 4.9-1.2c26.4-15.5 51.9-32.5 76.8-51 1.2 1 1.9 2.2 1.9 3.5 0 1.4-.7 2.7-2.1 4.1-1.4 1.3-3.4 3.2-6.1 5.7-2.7 2.5-7.7 7-15.1 13.5-7.4 6.5-14.3 12.3-20.8 17.5-17.5 14.1-29.7 22.3-36.6 24.6-2.5.7-5.4 1-8.8 1-3.4 0-6.5-1.7-9.4-5.2-2.8-3.5-4.3-8.2-4.3-14.1 0-6 3.8-14.6 11.5-25.8 7.7-11.2 18.2-22.7 31.5-34.5 1.2-1 1.9-1.9 1.9-2.7 0-.8-1.5-1.2-4.4-1.2l-13.1.4c-18.4 0-28-2.1-28.5-6.2-4.3-.8-6.5-2.1-6.5-3.7 0-.6.3-.9.8-.9.6-.1 1-.1 1.5-.2.4-.1 1.1-.2 2.1-.3 1-.1 8.6-1.2 23-3.3 14.4-2.1 30.7-3.8 49-5.2L385 19.8c.8-1.7 3.7-2.5 8.7-2.5 5 0 7.5 1 7.5 3.1 0 .7-.6 1.9-1.7 3.7l-5.2 7.3c-.7 2.2-1.1 3.9-1.2 5 0 1 1 1.5 3 1.5m-76.5 184.3c-1.1 1.9-1.7 3.7-1.7 5.2s.8 2.3 2.5 2.3c1 0 2.6-.4 5-1.2 25.9-13.6 51.3-29.6 76.2-48.1 1.2 1 1.9 2.2 1.9 3.5 0 1.4-.7 2.7-2.1 4-1.4 1.2-3.4 3.1-5.9 5.4-2.6 2.4-7.5 6.6-14.7 12.7-7.2 6.1-13.9 11.7-20.2 16.6-16.4 13.2-28.4 20.9-36.2 23.3-2.5.7-5.2 1-8.1 1-10.7 0-16-5.7-16-17.1 0-4.4 2.4-10.8 7.3-19 4.9-8.3 9.8-15.5 15-21.8 5.1-6.3 8.5-9.8 10.2-10.5 2.5-1.5 5.2-2.3 8.1-2.3 2.9 0 5.7.6 8.3 1.7.8.4 1.2 1 1.2 1.7s-.7 1.7-2 3.1c-1.3 1.4-3.3 3.5-6 6.4-2.7 2.9-6.7 7.9-12.1 15.1-5.3 7.1-8.9 13.1-10.7 18m43.2-83c1.4-.2 2.3-.1 2.8.4 2.3 2 3.5 3.8 3.8 5.2.2 1.4 0 2.7-.7 3.9-.7 1.2-1.5 2.5-2.4 4-1 1.5-3 3.6-6.2 6.4-3.1 2.8-6.4 4.5-9.6 5-2.5 0-4-1.3-4.4-3.9-.6-4.1 1.2-8.5 5.5-13.2s8-7.3 11.2-7.8"/><path fill="#FFF" d="M451.7 147.3l13.4-.5c13.7 0 23.7 1.9 30 5.8 3.1 1 4.6 2.2 4.6 3.7 0 1.1-1.4 1.9-4.1 2.3-2.7.4-12.1 1.5-28.1 3.2-16 1.7-27 2.7-33 3-2.6.1-8.7 4.7-18.2 13.7s-18.6 18.9-27.2 29.8c-8.6 10.8-12.9 18.4-12.9 22.7 0 .7.3 1.3 1 1.8s1.6.7 2.6.7 2.7-.4 4.9-1.2c26.4-15.5 51.9-32.5 76.8-51 1.2 1 1.9 2.2 1.9 3.5 0 1.4-.7 2.7-2.1 4.1-1.4 1.3-3.4 3.2-6.1 5.7-2.7 2.5-7.7 7-15.1 13.5-7.4 6.5-14.3 12.3-20.8 17.5-17.5 14.1-29.7 22.3-36.6 24.6-2.5.7-5.4 1-8.8 1-3.4 0-6.5-1.7-9.4-5.2-2.8-3.5-4.3-8.2-4.3-14.1 0-6 3.8-14.6 11.5-25.8 7.7-11.2 18.2-22.7 31.5-34.5 1.2-1 1.9-1.9 1.9-2.7 0-.8-1.5-1.2-4.4-1.2l-13.1.4c-18.4 0-19.1-8-19.1-9.7 0-.6.3-.9.8-.9.6-.1 40.4-2.9 58.7-8.1l15.3-20.4c.8-1.7 3.7-2.5 8.7-2.5 5 0 7.5 1 7.5 3.1 0 .7-.6 1.9-1.7 3.7 0 0-9.1 11.4-9.2 12.5.2 1 1.1 1.5 3.1 1.5"/><path fill="#FFF" d="M444.2 246.9c-10.7 0-16-6.5-16-19.6 0-8.2 3.6-16.9 10.7-26.1 7.1-9.2 15.6-16.8 25.3-22.7 9.7-5.9 18.3-8.8 25.8-8.8 3.3 0 6.4 1.3 9.3 4 2.8 2.6 4.3 5.2 4.3 7.7 0 4.6-3.3 9.7-9.8 15.5-6.5 5.8-13.4 10.4-20.5 13.9s-11.9 5.3-14.1 5.3-4-1-5.1-3.1c-.6-.4-1.3-.6-2.3-.6-1 0-2.6 1.8-4.8 5.5-2.2 3.7-3.3 6.7-3.3 8.9s.8 3.7 2.5 4.3c10.5 0 22-3.1 34.3-9.3 12.3-6.2 29.4-17 51.2-32.6 1.5-1.1 3.8-2.8 7-5 3.1-2.2 5-3.5 5.5-4 1.2 1 1.9 2.2 1.9 3.5 0 1.4-.6 2.6-1.9 3.7-6.9 6.9-15.9 14.7-26.9 23.3-11 8.6-23.7 16.7-38 24.4-14.4 8-26.1 11.8-35.1 11.8m44.3-66.5c-3.6 0-9.7 3.7-18.3 11.1-8.6 7.4-12.9 12-12.9 13.6 0 .3.2.4.6.4 3 0 9.1-3.4 18.2-10.2 9.1-6.8 13.6-11.4 13.6-13.9.1-.7-.3-1-1.2-1"/><path fill="#FEA621" d="M281.3 232.2c-2.8-1.7-6.5-3-11.2-4.2-4.7-1.1-8.3-1.8-10.7-2.2-2.4-.3-7.1-.8-14-1.4-6.9-.6-12.1-1-15.6-1.5 1.7-1.8 3-3.3 4.2-4.6 6.8-7.4 21.6-27 44.5-59.1 6-8 11.9-15.2 17.8-21.3 5.9-6.2 10.8-10.7 14.8-13.7s7.8-5.3 11.3-7.5c13.6-8.4 18.9-3.1 19.1-3 0 0-1.6-8.9-10.8-9.3-13-.6-23.7 3.7-36.3 13.1-5.4 4.2-11.9 10.3-19.4 18.3-7.5 8-19.1 21.6-35 40.8-15.8 19.1-28.7 34.4-38.7 45.8-34.1 0-58.7 5.9-73.7 17.7-6.5 5.1-9.8 9.8-9.8 14.1 0 6 3 10.7 8.9 14.3 6 3.5 12.3 5.3 19 5.3 6.7 0 17.6-1.9 30.9-7.9 13.3-6 22.8-13.5 30.2-20.4 5-.1 12.9-.2 23.8-.2s22.9-1.1 35.9.5c13 1.5 21.5 2.8 25.5 3.7 4 1 9.4-2.6 11.4-2.1 1.1.6 2 .8 2.7.8.4 0 .6-.3.6-.8 0-.6-.8-1.7-2.3-3.3-6.5-7.6-15.9-7.5-23.1-11.9m-122.6 25.4c-5.9 2.6-10.4 4.2-13.4 4.7s-6.7.7-11 .7c-3.3-.4-5-1.3-5-2.7 0-3.2 5.8-6.4 17.4-9.6 11.6-3.2 21.8-4.8 30.7-4.8-6.6 5.1-12.8 9-18.7 11.7"/><g opacity=".5"><defs><path id="a" d="M151.7 245.5h55.1v26.6h-55.1z"/></defs><clipPath id="b"><use xlink:href="#a" overflow="visible"/></clipPath><g clip-path="url(#b)"><defs><path id="c" d="M177.3 245.9l29.5-.4s-23.2 22.7-49.3 26.6l-5.8-11.7s13.6-4.6 25.6-14.5"/></defs><clipPath id="d"><use xlink:href="#c" overflow="visible"/></clipPath><linearGradient id="e" gradientUnits="userSpaceOnUse" x1="1.565" y1="284.12" x2="2.565" y2="284.12" gradientTransform="scale(-40.1564 40.1564) rotate(27.485 566.142 130.949)"><stop offset="0" stop-color="#231f20"/><stop offset="1" stop-color="#fff" stop-opacity="0"/></linearGradient><path clip-path="url(#d)" fill="url(#e)" d="M235.7 269.8L181.5 298l-22.7-43.5 54.3-28.2z"/></g></g><g opacity=".5"><defs><path id="f" d="M201.2 201.3h45.4V223h-45.4z"/></defs><clipPath id="g"><use xlink:href="#f" overflow="visible"/></clipPath><g clip-path="url(#g)"><defs><path id="h" d="M201.2 222.4l28.5.6s15.3-17.2 16.9-20.4l-27.2-1.4-18.2 21.2z"/></defs><clipPath id="i"><use xlink:href="#h" overflow="visible"/></clipPath><linearGradient id="j" gradientUnits="userSpaceOnUse" x1="2.176" y1="284.234" x2="3.176" y2="284.234" gradientTransform="scale(36.8833 -36.8833) rotate(49.075 322.195 142.49)"><stop offset="0" stop-color="#231f20"/><stop offset=".162" stop-color="#5b5859" stop-opacity=".817"/><stop offset=".351" stop-color="#959393" stop-opacity=".605"/><stop offset=".524" stop-color="#c3c1c2" stop-opacity=".409"/><stop offset=".677" stop-color="#e4e3e3" stop-opacity=".237"/><stop offset=".804" stop-color="#f8f8f8" stop-opacity=".095"/><stop offset=".888" stop-color="#fff" stop-opacity="0"/><stop offset="1" stop-color="#fff" stop-opacity="0"/></linearGradient><path clip-path="url(#i)" fill="url(#j)" d="M190.5 213.7l30.2-34.9 36.7 31.8-30.3 34.9z"/></g></g><defs><path id="k" d="M13.6 58.5h38.1v23.2H13.6z"/></defs><clipPath id="l"><use xlink:href="#k" overflow="visible"/></clipPath><g clip-path="url(#l)"><defs><path id="m" d="M14.5 68.5s-5.2 13.9 9.3 13.2c0 0 14.8-2.6 27.9-15.2l-9.1-8S17.1 72 14.5 68.5"/></defs><clipPath id="n"><use xlink:href="#m" overflow="visible"/></clipPath><linearGradient id="o" gradientUnits="userSpaceOnUse" x1="2.086" y1="284.324" x2="3.086" y2="284.324" gradientTransform="scale(31.09 -31.09) rotate(25.301 640.356 136.728)"><stop offset="0" stop-color="#231f20"/><stop offset="1" stop-color="#fff"/></linearGradient><path clip-path="url(#n)" fill="url(#o)" d="M0 62.9l43.9-20.8 17 35.9L17 98.8z"/></g><defs><path id="p" d="M57.3 104.6h33.5V125H57.3z"/></defs><clipPath id="q"><use xlink:href="#p" overflow="visible"/></clipPath><g clip-path="url(#q)"><defs><path id="r" d="M63.6 116.5s24.5-13.5 26.5-11.8c2.1 1.8-1 3.8-4.4 7.1-3.4 3.3-10.3 11.6-10.7 12.6s-17.7.3-17.7.3 2.7-4.5 6.3-8.2"/></defs><clipPath id="s"><use xlink:href="#r" overflow="visible"/></clipPath><linearGradient id="t" gradientUnits="userSpaceOnUse" x1="1.777" y1="283.812" x2="2.777" y2="283.812" gradientTransform="scale(-35.8613 35.8613) rotate(60.786 239.3 139.825)"><stop offset="0" stop-color="#231f20"/><stop offset=".12" stop-color="#4d4a4b"/><stop offset=".289" stop-color="#838181"/><stop offset=".454" stop-color="#afaeae"/><stop offset=".611" stop-color="#d2d1d1"/><stop offset=".759" stop-color="#ebeaeb"/><stop offset=".892" stop-color="#fafafa"/><stop offset="1" stop-color="#fff"/></linearGradient><path clip-path="url(#s)" fill="url(#t)" d="M101.7 108.3l-17.9 32-36.1-20.2 17.9-32z"/></g><defs><path id="u" d="M476 179.4h27.4v25.2H476z"/></defs><clipPath id="v"><use xlink:href="#u" overflow="visible"/></clipPath><g clip-path="url(#v)"><defs><path id="w" d="M488.4 180.7s15.2-3.6 15 1c-.2 4.7-3.9 12.8-19.4 22.8l-7.9-8.9c-.1.1 18.9-14 12.3-14.9"/></defs><clipPath id="x"><use xlink:href="#w" overflow="visible"/></clipPath><linearGradient id="y" gradientUnits="userSpaceOnUse" x1="1.782" y1="283.666" x2="2.782" y2="283.666" gradientTransform="scale(-24.9792 24.9792) rotate(42.104 350.008 116.938)"><stop offset="0" stop-color="#231f20"/><stop offset="1" stop-color="#fff"/></linearGradient><path clip-path="url(#x)" fill="url(#y)" d="M517.2 192.2l-28.8 26.1-26.1-28.9 28.9-26.1z"/></g><defs><path id="z" d="M276.7 70.2h27.4v25.2h-27.4z"/></defs><clipPath id="A"><use xlink:href="#z" overflow="visible"/></clipPath><g clip-path="url(#A)"><defs><path id="B" d="M289 71.6s15.2-3.6 15 1c-.2 4.7-3.9 12.8-19.4 22.8l-7.9-8.9c0 .1 19-14 12.3-14.9"/></defs><clipPath id="C"><use xlink:href="#B" overflow="visible"/></clipPath><linearGradient id="D" gradientUnits="userSpaceOnUse" x1="1.782" y1="283.666" x2="2.782" y2="283.666" gradientTransform="scale(-24.9792 24.9792) rotate(42.104 359.674 125.12)"><stop offset="0" stop-color="#231f20"/><stop offset="1" stop-color="#fff"/></linearGradient><path clip-path="url(#C)" fill="url(#D)" d="M317.9 83.1l-28.8 26L263 80.3l28.8-26.1z"/></g><defs><path id="E" d="M204 89h38.1v39.1H204z"/></defs><clipPath id="F"><use xlink:href="#E" overflow="visible"/></clipPath><g clip-path="url(#F)"><defs><path id="G" d="M242.1 89s-9.7 14.2-11.7 21.2l-23.7 17.9-2.7-15.6L242.1 89z"/></defs><clipPath id="H"><use xlink:href="#G" overflow="visible"/></clipPath><linearGradient id="I" gradientUnits="userSpaceOnUse" x1="1.874" y1="283.839" x2="2.874" y2="283.839" gradientTransform="scale(-43.4212 43.4212) rotate(42.104 364.169 133.184)"><stop offset="0" stop-color="#231f20"/><stop offset="1" stop-color="#fff"/></linearGradient><path clip-path="url(#H)" fill="url(#I)" d="M261.6 110.6l-40.4 36.5-36.6-40.5L225 70.1z"/></g><defs><path id="J" d="M337.5 196.4h41.7v39.4h-41.7z"/></defs><clipPath id="K"><use xlink:href="#J" overflow="visible"/></clipPath><g clip-path="url(#K)"><defs><path id="L" d="M379.2 196.4s-10.4 13.5-16 24.1l-20.3 15.4-5.4-14 19.2-11.1 22.5-14.4z"/></defs><clipPath id="M"><use xlink:href="#L" overflow="visible"/></clipPath><linearGradient id="N" gradientUnits="userSpaceOnUse" x1="1.881" y1="283.829" x2="2.881" y2="283.829" gradientTransform="scale(-44.0553 44.0553) rotate(40.758 372.641 129.948)"><stop offset="0" stop-color="#231f20"/><stop offset="1" stop-color="#fff"/></linearGradient><path clip-path="url(#M)" fill="url(#N)" d="M398.7 219.1l-43.5 37.4-37.2-43.3 43.4-37.4z"/></g><defs><path id="O" d="M404.3 192H447v41.6h-42.7z"/></defs><clipPath id="P"><use xlink:href="#O" overflow="visible"/></clipPath><g clip-path="url(#P)"><defs><path id="Q" d="M447 192s-10.4 13.5-16 24.1l-21.8 17.6-4.8-13.2 19.5-12.5 23.1-16z"/></defs><clipPath id="R"><use xlink:href="#Q" overflow="visible"/></clipPath><linearGradient id="S" gradientUnits="userSpaceOnUse" x1="1.886" y1="283.83" x2="2.886" y2="283.83" gradientTransform="scale(-46.187 46.187) rotate(40.758 372.502 128.344)"><stop offset="0" stop-color="#231f20"/><stop offset="1" stop-color="#fff"/></linearGradient><path clip-path="url(#R)" fill="url(#S)" d="M467.6 215.9l-45.1 38.9-38.8-45 45.1-38.9z"/></g><defs><path id="T" d="M130.3 37.6h49v74.7h-49z"/></defs><clipPath id="U"><use xlink:href="#T" overflow="visible"/></clipPath><g clip-path="url(#U)"><defs><path id="V" d="M173.6 37.6s13.6 21.6-.8 43.4c-14.4 21.8-26.4 31.3-26.4 31.3l-16.1-12.6s28.2-23.7 34.4-32.5c6.2-8.8 14.8-20.6 8.9-29.6"/></defs><clipPath id="W"><use xlink:href="#V" overflow="visible"/></clipPath><linearGradient id="X" gradientUnits="userSpaceOnUse" x1="1.876" y1="283.825" x2="2.876" y2="283.825" gradientTransform="scale(-57.0809 57.0809) rotate(53.213 281.887 137.25)"><stop offset="0" stop-color="#231f20"/><stop offset=".12" stop-color="#4d4a4b"/><stop offset=".289" stop-color="#838181"/><stop offset=".454" stop-color="#afaeae"/><stop offset=".611" stop-color="#d2d1d1"/><stop offset=".759" stop-color="#ebeaeb"/><stop offset=".892" stop-color="#fafafa"/><stop offset="1" stop-color="#fff"/></linearGradient><path clip-path="url(#W)" fill="url(#X)" d="M223 64.4l-56.2 75.2-72.3-54.1 56.2-75.2z"/></g><path fill="#FEA621" d="M229.7 223s101.6 4.6 160 21.9c39 11.5 69.6 14 90.2 2.9 0 0-7 46.5-114.1 14.4-54.5-16.3-145.4-16.9-145.4-16.9l9.3-22.3z"/><path fill="#4D4D4D" d="M305.748 110.12l.89-.647 4.942 6.793-.89.648zm-20.211 15.114l.779-.777 5.935 5.943-.778.778zm-20.364 21.531l.693-.855 6.524 5.292-.693.855zm-19.491 23.005l.693-.854 6.523 5.292-.693.854zm-19.232 23.098l.694-.855 6.523 5.292-.693.855zm-19.354 23.119l.693-.854 6.523 5.292-.693.854zm-31.022 30.951l.846-.703 5.368 6.461-.846.703zm-21.714 12.578l1.019-.416 3.173 7.778-1.018.415zM125 242.165l.888-.65 4.55 6.212-.888.65zm16.149-10.112l1-.459 3.958 8.636-1 .458zm33.346-8.217l1.097-.072.597 9.08-1.098.072zm47.137 8.136l.43-9.09 1.1.052-.431 9.09zm40.386 2.532l.431-9.09 1.1.052-.432 9.09zm41.409 3.721l1.484-8.978 1.086.18-1.485 8.977zm41.867 6.009l1.417-8.989 1.087.172-1.417 8.989zm44.352 9.928l1.416-8.989 1.087.172-1.417 8.989zm37.557 7.024l.575-7.678 1.097.082-.575 7.678zm29.345-6.636l1.096-.086.511 6.58-1.096.086zM134.1 262.9h1.1v7.3h-1.1zm191.456-158.513l1-.458 2.205 4.82-1 .458zm-10.8 1.782l.919-.605 1.98 3.006-.919.605zm-20.059 10.217l.852-.695 2.276 2.79-.853.695zm-19.715 19.334l.778-.779 2.545 2.546-.777.778zm-19.07 21.854l.738-.816 2.669 2.417-.739.815zm-21.025 25.12l.74-.815 2.666 2.418-.739.815zm-18.158 21.783l.738-.816 2.669 2.416-.739.816zm-52.168 50.133l.953-.55 1.8 3.118-.953.55zm-7.668-27.736l1.071-.25.82 3.505-1.07.25zM197.3 222.4h1.1v3.6h-1.1zm45.397 5.065l.236-3.592 1.098.072-.236 3.592zm41.872 3.472l.236-3.592 1.097.073-.236 3.592zm41.916 4.742l.636-3.544 1.082.194-.635 3.544zm43.892 8.052l.635-3.543 1.083.194-.636 3.544zm39.755 10.239l.636-3.543 1.082.194-.635 3.543zm33.014 1.059l1.099-.042.137 3.597-1.099.043zm-311.031-18.133l.928-.59 1.932 3.038-.928.59zm12.375 25.477l1.093-.125.41 3.577-1.093.125z"/><path fill="none" d="M.1 0H546v273.8H.1z"/><path fill="none" d="M.1 0H546v273.8H.1z"/></svg>